CrimsonText_New_Draft_39_CAPS_Regular_80%.ufo
<glyph name="exclam" format="1">
  <advance width="222"/>
  <unicode hex="0021"/>
  <outline>
    <contour>
      <point x="93" y="170" type="curve"/>
      <point x="129" y="170" type="line"/>
      <point x="136" y="287"/>
      <point x="165" y="404"/>
      <point x="165" y="483" type="curve" smooth="yes"/>
      <point x="165" y="530"/>
      <point x="142" y="558"/>
      <point x="111" y="558" type="curve" smooth="yes"/>
      <point x="80" y="558"/>
      <point x="57" y="530"/>
      <point x="57" y="483" type="curve" smooth="yes"/>
      <point x="57" y="404"/>
      <point x="86" y="287"/>
    </contour>
    <contour>
      <point x="111" y="-8" type="curve" smooth="yes"/>
      <point x="145" y="-8"/>
      <point x="171" y="20"/>
      <point x="171" y="57" type="curve" smooth="yes"/>
      <point x="171" y="95"/>
      <point x="145" y="124"/>
      <point x="111" y="124" type="curve" smooth="yes"/>
      <point x="77" y="124"/>
      <point x="51" y="95"/>
      <point x="51" y="57" type="curve" smooth="yes"/>
      <point x="51" y="20"/>
      <point x="77" y="-8"/>
    </contour>
  </outline>
</glyph>
<glyph name="quotesingle" format="1">
  <advance width="204"/>
  <unicode hex="0027"/>
  <outline>
    <contour>
      <point x="102" y="558" type="curve" smooth="yes"/>
      <point x="71" y="558"/>
      <point x="47" y="532"/>
      <point x="47" y="483" type="curve" smooth="yes"/>
      <point x="47" y="443"/>
      <point x="74" y="345"/>
      <point x="87" y="290" type="curve"/>
      <point x="117" y="290" type="line"/>
      <point x="130" y="345"/>
      <point x="157" y="443"/>
      <point x="157" y="483" type="curve" smooth="yes"/>
      <point x="157" y="532"/>
      <point x="133" y="558"/>
    </contour>
  </outline>
</glyph>
<glyph name="parenright" format="1">
  <advance width="298"/>
  <unicode hex="0029"/>
  <outline>
    <contour>
      <point x="27" y="583" type="curve"/>
      <point x="0" y="559" type="line"/>
      <point x="85" y="476"/>
      <point x="131" y="349"/>
      <point x="131" y="200" type="curve" smooth="yes"/>
      <point x="131" y="51"/>
      <point x="85" y="-76"/>
      <point x="0" y="-159" type="curve"/>
      <point x="27" y="-183" type="line"/>
      <point x="155" y="-83"/>
      <point x="220" y="47"/>
      <point x="220" y="200" type="curve" smooth="yes"/>
      <point x="220" y="354"/>
      <point x="155" y="486"/>
    </contour>
  </outline>
</glyph>
<glyph name="plus" format="1">
  <advance width="480"/>
  <unicode hex="002B"/>
  <outline>
    <contour>
      <point x="435" y="261" type="line"/>
      <point x="45" y="261" type="line"/>
      <point x="45" y="196" type="line"/>
      <point x="435" y="196" type="line"/>
    </contour>
    <contour>
      <point x="211" y="424" type="line"/>
      <point x="211" y="33" type="line"/>
      <point x="269" y="33" type="line"/>
      <point x="269" y="424" type="line"/>
    </contour>
  </outline>
</glyph>
<glyph name="comma" format="1">
  <advance width="204"/>
  <unicode hex="002C"/>
  <outline>
    <contour>
      <point x="36" y="-160" type="line"/>
      <point x="117" y="-123"/>
      <point x="166" y="-50"/>
      <point x="166" y="30" type="curve" smooth="yes"/>
      <point x="166" y="97"/>
      <point x="133" y="124"/>
      <point x="101" y="124" type="curve" smooth="yes"/>
      <point x="67" y="124"/>
      <point x="43" y="98"/>
      <point x="43" y="65" type="curve" smooth="yes"/>
      <point x="43" y="8"/>
      <point x="97" y="12"/>
      <point x="97" y="-40" type="curve" smooth="yes"/>
      <point x="97" y="-76"/>
      <point x="73" y="-106"/>
      <point x="23" y="-130" type="curve"/>
    </contour>
  </outline>
</glyph>
<glyph name="period" format="1">
  <advance width="204"/>
  <unicode hex="002E"/>
  <outline>
    <contour>
      <point x="102" y="-8" type="curve" smooth="yes"/>
      <point x="136" y="-8"/>
      <point x="162" y="20"/>
      <point x="162" y="57" type="curve" smooth="yes"/>
      <point x="162" y="95"/>
      <point x="136" y="124"/>
      <point x="102" y="124" type="curve" smooth="yes"/>
      <point x="68" y="124"/>
      <point x="42" y="95"/>
      <point x="42" y="57" type="curve" smooth="yes"/>
      <point x="42" y="20"/>
      <point x="68" y="-8"/>
    </contour>
  </outline>
</glyph>
<glyph name="slash" format="1">
  <advance width="309"/>
  <unicode hex="002F"/>
  <outline>
    <contour>
      <point x="19" y="-144" type="line"/>
      <point x="81" y="-144" type="line"/>
      <point x="322" y="582" type="line"/>
      <point x="260" y="582" type="line"/>
    </contour>
  </outline>
</glyph>
<glyph name="zero" format="1">
  <advance width="524"/>
  <unicode hex="0030"/>
  <outline>
    <contour>
      <point x="266" y="-8" type="curve" smooth="yes"/>
      <point x="385" y="-8"/>
      <point x="479" y="112"/>
      <point x="479" y="269" type="curve" smooth="yes"/>
      <point x="479" y="429"/>
      <point x="393" y="536"/>
      <point x="268" y="536" type="curve" smooth="yes"/>
      <point x="139" y="536"/>
      <point x="45" y="422"/>
      <point x="45" y="260" type="curve" smooth="yes"/>
      <point x="45" y="100"/>
      <point x="136" y="-8"/>
    </contour>
    <contour>
      <point x="272" y="44" type="curve" smooth="yes"/>
      <point x="196" y="44"/>
      <point x="143" y="138"/>
      <point x="143" y="280" type="curve" smooth="yes"/>
      <point x="143" y="413"/>
      <point x="188" y="487"/>
      <point x="260" y="487" type="curve" smooth="yes"/>
      <point x="333" y="487"/>
      <point x="382" y="395"/>
      <point x="382" y="247" type="curve" smooth="yes"/>
      <point x="382" y="116"/>
      <point x="339" y="44"/>
    </contour>
  </outline>
</glyph>
<glyph name="one" format="1">
  <advance width="285"/>
  <unicode hex="0031"/>
  <outline>
    <contour>
      <point x="194" y="185" type="curve" smooth="yes"/>
      <point x="194" y="348" type="line" smooth="yes"/>
      <point x="194" y="415"/>
      <point x="195" y="486"/>
      <point x="198" y="538" type="curve"/>
      <point x="23" y="463" type="line"/>
      <point x="26" y="419" type="line"/>
      <point x="51" y="426"/>
      <point x="90" y="434"/>
      <point x="105" y="436" type="curve"/>
      <point x="107" y="418"/>
      <point x="109" y="377"/>
      <point x="109" y="330" type="curve" smooth="yes"/>
      <point x="109" y="185" type="line" smooth="yes"/>
      <point x="109" y="94"/>
      <point x="106" y="57"/>
      <point x="103" y="51" type="curve"/>
      <point x="94" y="46"/>
      <point x="59" y="40"/>
      <point x="31" y="38" type="curve"/>
      <point x="34" y="-3" type="line"/>
      <point x="70" y="-1"/>
      <point x="119" y="2"/>
      <point x="152" y="2" type="curve" smooth="yes"/>
      <point x="184" y="2"/>
      <point x="234" y="-1"/>
      <point x="270" y="-3" type="curve"/>
      <point x="272" y="38" type="line"/>
      <point x="244" y="40"/>
      <point x="209" y="46"/>
      <point x="200" y="51" type="curve"/>
      <point x="197" y="57"/>
      <point x="194" y="94"/>
    </contour>
  </outline>
</glyph>
<glyph name="four" format="1">
  <advance width="468"/>
  <unicode hex="0034"/>
  <outline>
    <contour>
      <point x="347" y="143" type="curve"/>
      <point x="346" y="392" type="line"/>
      <point x="346" y="440"/>
      <point x="347" y="488"/>
      <point x="349" y="531" type="curve"/>
      <point x="305" y="531" type="line"/>
      <point x="23" y="178" type="line"/>
      <point x="31" y="143" type="line"/>
      <point x="426" y="143" type="line"/>
      <point x="426" y="207" type="line"/>
      <point x="143" y="207" type="line" smooth="yes"/>
      <point x="123" y="207"/>
      <point x="102" y="209"/>
      <point x="82" y="210" type="curve"/>
      <point x="94" y="189" type="line"/>
      <point x="283" y="428" type="line"/>
      <point x="262" y="434" type="line"/>
      <point x="262" y="143" type="line"/>
      <point x="262" y="80"/>
      <point x="262" y="60"/>
      <point x="261" y="51" type="curve"/>
      <point x="251" y="46"/>
      <point x="217" y="40"/>
      <point x="189" y="38" type="curve"/>
      <point x="192" y="-3" type="line"/>
      <point x="228" y="-1"/>
      <point x="272" y="2"/>
      <point x="305" y="2" type="curve" smooth="yes"/>
      <point x="337" y="2"/>
      <point x="375" y="-1"/>
      <point x="403" y="-3" type="curve"/>
      <point x="405" y="38" type="line"/>
      <point x="383" y="40"/>
      <point x="357" y="46"/>
      <point x="349" y="51" type="curve"/>
      <point x="348" y="60"/>
      <point x="347" y="80"/>
    </contour>
  </outline>
</glyph>
<glyph name="six" format="1">
  <advance width="448"/>
  <unicode hex="0036"/>
  <outline>
    <contour>
      <point x="120" y="223" type="curve"/>
      <point x="122" y="182" type="line"/>
      <point x="145" y="222"/>
      <point x="183" y="248"/>
      <point x="226" y="248" type="curve" smooth="yes"/>
      <point x="283" y="248"/>
      <point x="322" y="206"/>
      <point x="322" y="140" type="curve" smooth="yes"/>
      <point x="322" y="82"/>
      <point x="286" y="39"/>
      <point x="236" y="39" type="curve" smooth="yes"/>
      <point x="176" y="39"/>
      <point x="136" y="102"/>
      <point x="136" y="193" type="curve" smooth="yes"/>
      <point x="136" y="350"/>
      <point x="217" y="449"/>
      <point x="380" y="498" type="curve"/>
      <point x="365" y="544" type="line"/>
      <point x="168" y="507"/>
      <point x="42" y="361"/>
      <point x="42" y="197" type="curve" smooth="yes"/>
      <point x="42" y="74"/>
      <point x="118" y="-8"/>
      <point x="229" y="-8" type="curve" smooth="yes"/>
      <point x="331" y="-8"/>
      <point x="412" y="70"/>
      <point x="412" y="167" type="curve" smooth="yes"/>
      <point x="412" y="253"/>
      <point x="346" y="317"/>
      <point x="258" y="317" type="curve" smooth="yes"/>
      <point x="204" y="317"/>
      <point x="151" y="281"/>
    </contour>
  </outline>
</glyph>
<glyph name="seven" format="1">
  <advance width="404"/>
  <unicode hex="0037"/>
  <outline>
    <contour>
      <point x="185" y="0" type="line"/>
      <point x="386" y="492" type="line"/>
      <point x="383" y="529" type="line"/>
      <point x="360" y="529"/>
      <point x="336" y="528"/>
      <point x="315" y="528" type="curve" smooth="yes"/>
      <point x="128" y="528" type="line" smooth="yes"/>
      <point x="93" y="528"/>
      <point x="55" y="529"/>
      <point x="29" y="531" type="curve"/>
      <point x="9" y="378" type="line"/>
      <point x="49" y="373" type="line"/>
      <point x="58" y="397"/>
      <point x="66" y="422"/>
      <point x="74" y="442" type="curve"/>
      <point x="83" y="444"/>
      <point x="98" y="444"/>
      <point x="111" y="444" type="curve" smooth="yes"/>
      <point x="331" y="444" type="line"/>
      <point x="331" y="477" type="line"/>
      <point x="108" y="30" type="line"/>
      <point x="108" y="0" type="line"/>
    </contour>
  </outline>
</glyph>
<glyph name="colon" format="1">
  <advance width="204"/>
  <unicode hex="003A"/>
  <outline>
    <contour>
      <point x="102" y="-8" type="curve" smooth="yes"/>
      <point x="136" y="-8"/>
      <point x="162" y="20"/>
      <point x="162" y="57" type="curve" smooth="yes"/>
      <point x="162" y="95"/>
      <point x="136" y="124"/>
      <point x="102" y="124" type="curve" smooth="yes"/>
      <point x="68" y="124"/>
      <point x="42" y="95"/>
      <point x="42" y="57" type="curve" smooth="yes"/>
      <point x="42" y="20"/>
      <point x="68" y="-8"/>
    </contour>
    <contour>
      <point x="102" y="225" type="curve" smooth="yes"/>
      <point x="136" y="225"/>
      <point x="162" y="253"/>
      <point x="162" y="290" type="curve" smooth="yes"/>
      <point x="162" y="328"/>
      <point x="136" y="357"/>
      <point x="102" y="357" type="curve" smooth="yes"/>
      <point x="68" y="357"/>
      <point x="42" y="328"/>
      <point x="42" y="290" type="curve" smooth="yes"/>
      <point x="42" y="253"/>
      <point x="68" y="225"/>
    </contour>
  </outline>
</glyph>
<glyph name="less" format="1">
  <advance width="480"/>
  <unicode hex="003C"/>
  <outline>
    <contour>
      <point x="45" y="194" type="line"/>
      <point x="435" y="26" type="line"/>
      <point x="435" y="96" type="line"/>
      <point x="72" y="250" type="line"/>
      <point x="72" y="206" type="line"/>
      <point x="435" y="361" type="line"/>
      <point x="435" y="431" type="line"/>
      <point x="45" y="263" type="line"/>
    </contour>
  </outline>
</glyph>
<glyph name="equal" format="1">
  <advance width="480"/>
  <unicode hex="003D"/>
  <outline>
    <contour>
      <point x="435" y="341" type="line"/>
      <point x="45" y="341" type="line"/>
      <point x="45" y="276" type="line"/>
      <point x="435" y="276" type="line"/>
    </contour>
    <contour>
      <point x="435" y="181" type="line"/>
      <point x="45" y="181" type="line"/>
      <point x="45" y="116" type="line"/>
      <point x="435" y="116" type="line"/>
    </contour>
  </outline>
</glyph>
<glyph name="question" format="1">
  <advance width="294"/>
  <unicode hex="003F"/>
  <outline>
    <contour>
      <point x="86" y="170" type="curve"/>
      <point x="125" y="170" type="line"/>
      <point x="122" y="186"/>
      <point x="121" y="194"/>
      <point x="121" y="202" type="curve" smooth="yes"/>
      <point x="121" y="273"/>
      <point x="259" y="272"/>
      <point x="259" y="385" type="curve" smooth="yes"/>
      <point x="259" y="482"/>
      <point x="178" y="558"/>
      <point x="74" y="558" type="curve" smooth="yes"/>
      <point x="31" y="558"/>
      <point x="9" y="538"/>
      <point x="9" y="510" type="curve" smooth="yes"/>
      <point x="9" y="483"/>
      <point x="29" y="462"/>
      <point x="62" y="462" type="curve" smooth="yes"/>
      <point x="87" y="462"/>
      <point x="111" y="475"/>
      <point x="136" y="475" type="curve" smooth="yes"/>
      <point x="174" y="475"/>
      <point x="198" y="454"/>
      <point x="198" y="426" type="curve" smooth="yes"/>
      <point x="198" y="357"/>
      <point x="65" y="330"/>
      <point x="65" y="245" type="curve" smooth="yes"/>
      <point x="65" y="220"/>
      <point x="71" y="199"/>
    </contour>
    <contour>
      <point x="106" y="-8" type="curve" smooth="yes"/>
      <point x="140" y="-8"/>
      <point x="166" y="20"/>
      <point x="166" y="57" type="curve" smooth="yes"/>
      <point x="166" y="95"/>
      <point x="140" y="124"/>
      <point x="106" y="124" type="curve" smooth="yes"/>
      <point x="72" y="124"/>
      <point x="45" y="95"/>
      <point x="45" y="57" type="curve" smooth="yes"/>
      <point x="45" y="21"/>
      <point x="72" y="-8"/>
    </contour>
  </outline>
</glyph>
<glyph name="D" format="1">
  <advance width="607"/>
  <unicode hex="0044"/>
  <outline>
    <contour>
      <point x="33" y="529" type="curve"/>
      <point x="31" y="487" type="line"/>
      <point x="53" y="487"/>
      <point x="80" y="483"/>
      <point x="87" y="477" type="curve"/>
      <point x="90" y="471"/>
      <point x="93" y="433"/>
      <point x="93" y="342" type="curve" smooth="yes"/>
      <point x="93" y="185" type="line" smooth="yes"/>
      <point x="93" y="94"/>
      <point x="89" y="57"/>
      <point x="87" y="51" type="curve"/>
      <point x="80" y="46"/>
      <point x="53" y="40"/>
      <point x="31" y="38" type="curve"/>
      <point x="33" y="-3" type="line"/>
      <point x="54" y="-1"/>
      <point x="117" y="2"/>
      <point x="159" y="2" type="curve" smooth="yes"/>
      <point x="193" y="2"/>
      <point x="235" y="-1"/>
      <point x="271" y="-1" type="curve" smooth="yes"/>
      <point x="427" y="-1"/>
      <point x="561" y="98"/>
      <point x="561" y="270" type="curve" smooth="yes"/>
      <point x="561" y="429"/>
      <point x="451" y="529"/>
      <point x="260" y="529" type="curve" smooth="yes"/>
      <point x="214" y="529"/>
      <point x="165" y="527"/>
      <point x="129" y="527" type="curve" smooth="yes"/>
      <point x="99" y="527"/>
      <point x="61" y="527"/>
    </contour>
    <contour>
      <point x="182" y="476" type="curve"/>
      <point x="199" y="480"/>
      <point x="223" y="483"/>
      <point x="249" y="483" type="curve" smooth="yes"/>
      <point x="383" y="483"/>
      <point x="462" y="398"/>
      <point x="462" y="241" type="curve" smooth="yes"/>
      <point x="462" y="112"/>
      <point x="394" y="50"/>
      <point x="276" y="50" type="curve" smooth="yes"/>
      <point x="241" y="50"/>
      <point x="210" y="53"/>
      <point x="184" y="58" type="curve"/>
      <point x="181" y="70"/>
      <point x="178" y="107"/>
      <point x="178" y="185" type="curve" smooth="yes"/>
      <point x="178" y="342" type="line" smooth="yes"/>
      <point x="178" y="427"/>
      <point x="180" y="461"/>
    </contour>
    <contour>
      <point x="303" y="0" type="move" name="bottom"/>
    </contour>
    <contour>
      <point x="303" y="264" type="move" name="center"/>
    </contour>
    <contour>
      <point x="175" y="264" type="move" name="stroke"/>
    </contour>
    <contour>
      <point x="303" y="528" type="move" name="top"/>
    </contour>
  </outline>
</glyph>
<glyph name="H" format="1">
  <advance width="589"/>
  <unicode hex="0048"/>
  <outline>
    <contour>
      <point x="352" y="-3" type="line"/>
      <point x="380" y="-1"/>
      <point x="421" y="2"/>
      <point x="454" y="2" type="curve" smooth="yes"/>
      <point x="487" y="2"/>
      <point x="528" y="-1"/>
      <point x="556" y="-3" type="curve"/>
      <point x="558" y="38" type="line"/>
      <point x="537" y="40"/>
      <point x="509" y="46"/>
      <point x="503" y="51" type="curve"/>
      <point x="499" y="57"/>
      <point x="496" y="94"/>
      <point x="496" y="185" type="curve" smooth="yes"/>
      <point x="496" y="342" type="line" smooth="yes"/>
      <point x="496" y="433"/>
      <point x="499" y="470"/>
      <point x="503" y="476" type="curve"/>
      <point x="509" y="482"/>
      <point x="537" y="488"/>
      <point x="558" y="489" type="curve"/>
      <point x="556" y="530" type="line"/>
      <point x="528" y="528"/>
      <point x="487" y="526"/>
      <point x="454" y="526" type="curve" smooth="yes"/>
      <point x="421" y="526"/>
      <point x="380" y="528"/>
      <point x="352" y="530" type="curve"/>
      <point x="350" y="489" type="line"/>
      <point x="371" y="488"/>
      <point x="398" y="482"/>
      <point x="405" y="476" type="curve"/>
      <point x="408" y="470"/>
      <point x="411" y="433"/>
      <point x="411" y="342" type="curve" smooth="yes"/>
      <point x="411" y="185" type="line" smooth="yes"/>
      <point x="411" y="94"/>
      <point x="408" y="57"/>
      <point x="405" y="51" type="curve"/>
      <point x="398" y="46"/>
      <point x="371" y="40"/>
      <point x="350" y="38" type="curve"/>
    </contour>
    <contour>
      <point x="33" y="-3" type="line"/>
      <point x="61" y="-1"/>
      <point x="103" y="2"/>
      <point x="136" y="2" type="curve" smooth="yes"/>
      <point x="169" y="2"/>
      <point x="210" y="-1"/>
      <point x="237" y="-3" type="curve"/>
      <point x="239" y="38" type="line"/>
      <point x="218" y="40"/>
      <point x="191" y="46"/>
      <point x="184" y="51" type="curve"/>
      <point x="181" y="57"/>
      <point x="178" y="94"/>
      <point x="178" y="185" type="curve" smooth="yes"/>
      <point x="178" y="342" type="line" smooth="yes"/>
      <point x="178" y="433"/>
      <point x="181" y="470"/>
      <point x="184" y="476" type="curve"/>
      <point x="191" y="482"/>
      <point x="218" y="488"/>
      <point x="239" y="489" type="curve"/>
      <point x="237" y="530" type="line"/>
      <point x="210" y="528"/>
      <point x="169" y="526"/>
      <point x="136" y="526" type="curve" smooth="yes"/>
      <point x="103" y="526"/>
      <point x="61" y="528"/>
      <point x="33" y="530" type="curve"/>
      <point x="31" y="489" type="line"/>
      <point x="53" y="488"/>
      <point x="80" y="482"/>
      <point x="87" y="476" type="curve"/>
      <point x="90" y="470"/>
      <point x="93" y="433"/>
      <point x="93" y="342" type="curve" smooth="yes"/>
      <point x="93" y="185" type="line" smooth="yes"/>
      <point x="93" y="94"/>
      <point x="90" y="57"/>
      <point x="87" y="51" type="curve"/>
      <point x="80" y="46"/>
      <point x="53" y="40"/>
      <point x="31" y="38" type="curve"/>
    </contour>
    <contour>
      <point x="167" y="241" type="line"/>
      <point x="193" y="243"/>
      <point x="234" y="245"/>
      <point x="295" y="245" type="curve" smooth="yes"/>
      <point x="357" y="245"/>
      <point x="396" y="243"/>
      <point x="422" y="241" type="curve"/>
      <point x="422" y="299" type="line"/>
      <point x="398" y="297"/>
      <point x="357" y="296"/>
      <point x="295" y="296" type="curve" smooth="yes"/>
      <point x="234" y="296"/>
      <point x="191" y="297"/>
      <point x="167" y="299" type="curve"/>
    </contour>
    <contour>
      <point x="295" y="0" type="move" name="bottom"/>
    </contour>
    <contour>
      <point x="295" y="390" type="move" name="center"/>
    </contour>
    <contour>
      <point x="295" y="528" type="move" name="top"/>
    </contour>
    <contour>
      <point x="16" y="528" type="move" name="topleft"/>
    </contour>
  </outline>
</glyph>
<glyph name="J" format="1">
  <advance width="271"/>
  <unicode hex="004A"/>
  <outline>
    <contour>
      <point x="187" y="478" type="curve"/>
      <point x="193" y="483"/>
      <point x="220" y="490"/>
      <point x="240" y="491" type="curve"/>
      <point x="238" y="530" type="line"/>
      <point x="211" y="528"/>
      <point x="170" y="527"/>
      <point x="138" y="527" type="curve" smooth="yes"/>
      <point x="105" y="527"/>
      <point x="62" y="528"/>
      <point x="33" y="530" type="curve"/>
      <point x="31" y="491" type="line"/>
      <point x="54" y="490"/>
      <point x="82" y="483"/>
      <point x="89" y="478" type="curve"/>
      <point x="92" y="472"/>
      <point x="95" y="433"/>
      <point x="95" y="343" type="curve" smooth="yes"/>
      <point x="95" y="-22" type="line"/>
      <point x="95" y="-131"/>
      <point x="68" y="-148"/>
      <point x="26" y="-141" type="curve"/>
      <point x="61" y="-154" type="line"/>
      <point x="11" y="-103" type="line" smooth="yes"/>
      <point x="-7" y="-85"/>
      <point x="-22" y="-77"/>
      <point x="-38" y="-77" type="curve" smooth="yes"/>
      <point x="-60" y="-77"/>
      <point x="-75" y="-91"/>
      <point x="-75" y="-114" type="curve" smooth="yes"/>
      <point x="-75" y="-153"/>
      <point x="-25" y="-182"/>
      <point x="33" y="-182" type="curve" smooth="yes"/>
      <point x="114" y="-182"/>
      <point x="181" y="-119"/>
      <point x="181" y="11" type="curve"/>
      <point x="180" y="342" type="line"/>
      <point x="180" y="433"/>
      <point x="183" y="472"/>
    </contour>
    <contour>
      <point x="138" y="528" type="move" name="top"/>
    </contour>
  </outline>
</glyph>
<glyph name="M" format="1">
  <advance width="778"/>
  <unicode hex="004D"/>
  <outline>
    <contour>
      <point x="56" y="529" type="curve"/>
      <point x="54" y="489" type="line"/>
      <point x="77" y="488"/>
      <point x="106" y="482"/>
      <point x="114" y="476" type="curve"/>
      <point x="114" y="466"/>
      <point x="114" y="443"/>
      <point x="110" y="360" type="curve" smooth="yes"/>
      <point x="103" y="228" type="line" smooth="yes"/>
      <point x="97" y="119"/>
      <point x="94" y="60"/>
      <point x="91" y="51" type="curve"/>
      <point x="84" y="46"/>
      <point x="56" y="40"/>
      <point x="33" y="39" type="curve"/>
      <point x="35" y="-3" type="line"/>
      <point x="65" y="-1"/>
      <point x="97" y="1"/>
      <point x="120" y="1" type="curve" smooth="yes"/>
      <point x="142" y="1"/>
      <point x="177" y="-1"/>
      <point x="206" y="-3" type="curve"/>
      <point x="208" y="39" type="line"/>
      <point x="185" y="40"/>
      <point x="157" y="46"/>
      <point x="150" y="51" type="curve"/>
      <point x="149" y="62"/>
      <point x="150" y="130"/>
      <point x="155" y="242" type="curve" smooth="yes"/>
      <point x="168" y="502" type="line"/>
      <point x="141" y="502" type="line"/>
      <point x="352" y="-3" type="line"/>
      <point x="388" y="-3" type="line"/>
      <point x="583" y="502" type="line"/>
      <point x="564" y="502" type="line"/>
      <point x="589" y="196" type="line" smooth="yes"/>
      <point x="596" y="95"/>
      <point x="597" y="61"/>
      <point x="597" y="51" type="curve"/>
      <point x="590" y="46"/>
      <point x="562" y="40"/>
      <point x="541" y="38" type="curve"/>
      <point x="543" y="-3" type="line"/>
      <point x="570" y="-1"/>
      <point x="620" y="2"/>
      <point x="644" y="2" type="curve" smooth="yes"/>
      <point x="669" y="2"/>
      <point x="719" y="-1"/>
      <point x="747" y="-3" type="curve"/>
      <point x="749" y="38" type="line"/>
      <point x="728" y="40"/>
      <point x="700" y="46"/>
      <point x="693" y="51" type="curve"/>
      <point x="690" y="65"/>
      <point x="686" y="100"/>
      <point x="679" y="204" type="curve" smooth="yes"/>
      <point x="666" y="360" type="line" smooth="yes"/>
      <point x="660" y="443"/>
      <point x="658" y="470"/>
      <point x="659" y="476" type="curve"/>
      <point x="665" y="482"/>
      <point x="694" y="488"/>
      <point x="717" y="489" type="curve"/>
      <point x="715" y="529" type="line"/>
      <point x="688" y="528"/>
      <point x="652" y="527"/>
      <point x="628" y="527" type="curve" smooth="yes"/>
      <point x="603" y="527"/>
      <point x="566" y="528"/>
      <point x="542" y="529" type="curve"/>
      <point x="377" y="108" type="line"/>
      <point x="399" y="108" type="line"/>
      <point x="226" y="529" type="line"/>
      <point x="202" y="528"/>
      <point x="167" y="527"/>
      <point x="143" y="527" type="curve" smooth="yes"/>
      <point x="118" y="527"/>
      <point x="83" y="528"/>
    </contour>
    <contour>
      <point x="374" y="0" type="move" name="bottom"/>
    </contour>
    <contour>
      <point x="374" y="528" type="move" name="top"/>
    </contour>
  </outline>
</glyph>
<glyph name="O" format="1">
  <advance width="621"/>
  <unicode hex="004F"/>
  <outline>
    <contour>
      <point x="316" y="-8" type="curve" smooth="yes"/>
      <point x="451" y="-8"/>
      <point x="576" y="100"/>
      <point x="576" y="269" type="curve" smooth="yes"/>
      <point x="576" y="427"/>
      <point x="470" y="536"/>
      <point x="318" y="536" type="curve" smooth="yes"/>
      <point x="162" y="536"/>
      <point x="45" y="419"/>
      <point x="45" y="260" type="curve" smooth="yes"/>
      <point x="45" y="102"/>
      <point x="157" y="-8"/>
    </contour>
    <contour>
      <point x="324" y="46" type="curve" smooth="yes"/>
      <point x="221" y="46"/>
      <point x="147" y="143"/>
      <point x="147" y="280" type="curve" smooth="yes"/>
      <point x="147" y="406"/>
      <point x="207" y="486"/>
      <point x="307" y="486" type="curve" smooth="yes"/>
      <point x="408" y="486"/>
      <point x="476" y="389"/>
      <point x="476" y="247" type="curve" smooth="yes"/>
      <point x="476" y="122"/>
      <point x="418" y="46"/>
    </contour>
    <contour>
      <point x="310" y="0" type="move" name="bottom"/>
    </contour>
    <contour>
      <point x="310" y="264" type="move" name="center"/>
    </contour>
    <contour>
      <point x="377" y="0" type="move" name="ogonek"/>
    </contour>
    <contour>
      <point x="310" y="528" type="move" name="top"/>
    </contour>
    <contour>
      <point x="16" y="528" type="move" name="topleft"/>
    </contour>
    <contour>
      <point x="605" y="528" type="move" name="topright"/>
    </contour>
  </outline>
</glyph>
<glyph name="T" format="1">
  <advance width="502"/>
  <unicode hex="0054"/>
  <outline>
    <contour>
      <point x="472" y="532" type="curve"/>
      <point x="444" y="530"/>
      <point x="405" y="528"/>
      <point x="376" y="528" type="curve" smooth="yes"/>
      <point x="124" y="528" type="line" smooth="yes"/>
      <point x="95" y="528"/>
      <point x="56" y="530"/>
      <point x="28" y="532" type="curve"/>
      <point x="22" y="482"/>
      <point x="16" y="431"/>
      <point x="9" y="381" type="curve"/>
      <point x="53" y="376" type="line"/>
      <point x="66" y="420"/>
      <point x="80" y="459"/>
      <point x="90" y="479" type="curve"/>
      <point x="101" y="481"/>
      <point x="112" y="482"/>
      <point x="124" y="482" type="curve" smooth="yes"/>
      <point x="158" y="482" type="line" smooth="yes"/>
      <point x="178" y="482"/>
      <point x="192" y="481"/>
      <point x="206" y="479" type="curve"/>
      <point x="207" y="467"/>
      <point x="208" y="382"/>
      <point x="208" y="313" type="curve" smooth="yes"/>
      <point x="208" y="204" type="line" smooth="yes"/>
      <point x="208" y="130"/>
      <point x="204" y="71"/>
      <point x="203" y="51" type="curve"/>
      <point x="184" y="46"/>
      <point x="144" y="41"/>
      <point x="127" y="39" type="curve"/>
      <point x="129" y="-3" type="line"/>
      <point x="160" y="-1"/>
      <point x="221" y="1"/>
      <point x="251" y="1" type="curve" smooth="yes"/>
      <point x="281" y="1"/>
      <point x="342" y="-1"/>
      <point x="373" y="-3" type="curve"/>
      <point x="375" y="39" type="line"/>
      <point x="358" y="41"/>
      <point x="318" y="46"/>
      <point x="299" y="51" type="curve"/>
      <point x="297" y="71"/>
      <point x="294" y="130"/>
      <point x="294" y="204" type="curve" smooth="yes"/>
      <point x="294" y="313" type="line" smooth="yes"/>
      <point x="294" y="382"/>
      <point x="295" y="467"/>
      <point x="296" y="479" type="curve"/>
      <point x="310" y="481"/>
      <point x="325" y="482"/>
      <point x="344" y="482" type="curve" smooth="yes"/>
      <point x="376" y="482" type="line" smooth="yes"/>
      <point x="388" y="482"/>
      <point x="399" y="481"/>
      <point x="410" y="479" type="curve"/>
      <point x="420" y="459"/>
      <point x="434" y="420"/>
      <point x="447" y="377" type="curve"/>
      <point x="492" y="382" type="line"/>
      <point x="484" y="431"/>
      <point x="478" y="482"/>
    </contour>
    <contour>
      <point x="251" y="0" type="move" name="bottom"/>
    </contour>
    <contour>
      <point x="251" y="272" type="move" name="stroke"/>
    </contour>
    <contour>
      <point x="251" y="528" type="move" name="top"/>
    </contour>
  </outline>
</glyph>
<glyph name="bracketleft" format="1">
  <advance width="267"/>
  <unicode hex="005B"/>
  <outline>
    <contour>
      <point x="236" y="-176" type="line"/>
      <point x="236" y="-131" type="line"/>
      <point x="158" y="-131" type="line"/>
      <point x="158" y="533" type="line"/>
      <point x="236" y="533" type="line"/>
      <point x="236" y="578" type="line"/>
      <point x="79" y="578" type="line"/>
      <point x="79" y="-176" type="line"/>
    </contour>
  </outline>
</glyph>
<glyph name="backslash" format="1">
  <advance width="309"/>
  <unicode hex="005C"/>
  <outline>
    <contour>
      <point x="290" y="-176" type="line"/>
      <point x="49" y="582" type="line"/>
      <point x="-13" y="582" type="line"/>
      <point x="228" y="-176" type="line"/>
    </contour>
  </outline>
</glyph>
<glyph name="bracketright" format="1">
  <advance width="267"/>
  <unicode hex="005D"/>
  <outline>
    <contour>
      <point x="31" y="-176" type="line"/>
      <point x="188" y="-176" type="line"/>
      <point x="188" y="578" type="line"/>
      <point x="31" y="578" type="line"/>
      <point x="31" y="533" type="line"/>
      <point x="109" y="533" type="line"/>
      <point x="109" y="-131" type="line"/>
      <point x="31" y="-131" type="line"/>
    </contour>
  </outline>
</glyph>
<glyph name="asciicircum" format="1">
  <advance width="480"/>
  <unicode hex="005E"/>
  <outline>
    <contour>
      <point x="271" y="504" type="line"/>
      <point x="209" y="504" type="line"/>
      <point x="38" y="113" type="line"/>
      <point x="102" y="113" type="line"/>
      <point x="260" y="475" type="line"/>
      <point x="220" y="475" type="line"/>
      <point x="378" y="113" type="line"/>
      <point x="442" y="113" type="line"/>
    </contour>
  </outline>
</glyph>
<glyph name="underscore" format="1">
  <advance width="349"/>
  <unicode hex="005F"/>
  <outline>
    <contour>
      <point x="19" y="-55" type="line"/>
      <point x="330" y="-55" type="line"/>
      <point x="330" y="0" type="line"/>
      <point x="19" y="0" type="line"/>
    </contour>
  </outline>
</glyph>
<glyph name="c" format="1">
  <advance width="362"/>
  <unicode hex="0063"/>
  <outline>
    <contour>
      <point x="205" y="-6" type="curve" smooth="yes"/>
      <point x="264" y="-6"/>
      <point x="315" y="25"/>
      <point x="345" y="88" type="curve"/>
      <point x="323" y="109" type="line"/>
      <point x="295" y="76"/>
      <point x="267" y="64"/>
      <point x="231" y="64" type="curve" smooth="yes"/>
      <point x="168" y="64"/>
      <point x="121" y="108"/>
      <point x="121" y="190" type="curve" smooth="yes"/>
      <point x="121" y="281"/>
      <point x="181" y="323"/>
      <point x="238" y="312" type="curve"/>
      <point x="204" y="321" type="line"/>
      <point x="253" y="273" type="line" smooth="yes"/>
      <point x="272" y="255"/>
      <point x="282" y="249"/>
      <point x="301" y="249" type="curve" smooth="yes"/>
      <point x="322" y="249"/>
      <point x="337" y="262"/>
      <point x="337" y="286" type="curve" smooth="yes"/>
      <point x="337" y="325"/>
      <point x="291" y="356"/>
      <point x="221" y="356" type="curve" smooth="yes"/>
      <point x="113" y="356"/>
      <point x="33" y="270"/>
      <point x="33" y="167" type="curve" smooth="yes"/>
      <point x="33" y="63"/>
      <point x="110" y="-6"/>
    </contour>
    <contour>
      <point x="199" y="0" type="move" name="bottom"/>
    </contour>
    <contour>
      <point x="199" y="349" type="move" name="top"/>
    </contour>
  </outline>
</glyph>
<glyph name="h" format="1">
  <advance width="455"/>
  <unicode hex="0068"/>
  <outline>
    <contour>
      <point x="20" y="-2" type="line"/>
      <point x="48" y="0"/>
      <point x="84" y="2"/>
      <point x="113" y="2" type="curve" smooth="yes"/>
      <point x="141" y="2"/>
      <point x="179" y="0"/>
      <point x="207" y="-2" type="curve"/>
      <point x="209" y="34" type="line"/>
      <point x="193" y="36"/>
      <point x="164" y="42"/>
      <point x="155" y="48" type="curve"/>
      <point x="154" y="54"/>
      <point x="151" y="82"/>
      <point x="151" y="131" type="curve" smooth="yes"/>
      <point x="151" y="250" type="line"/>
      <point x="172" y="276"/>
      <point x="201" y="289"/>
      <point x="231" y="289" type="curve" smooth="yes"/>
      <point x="270" y="289"/>
      <point x="306" y="263"/>
      <point x="306" y="201" type="curve" smooth="yes"/>
      <point x="306" y="127" type="line" smooth="yes"/>
      <point x="306" y="82"/>
      <point x="304" y="54"/>
      <point x="302" y="48" type="curve"/>
      <point x="294" y="42"/>
      <point x="268" y="36"/>
      <point x="253" y="34" type="curve"/>
      <point x="255" y="-2" type="line"/>
      <point x="283" y="0"/>
      <point x="318" y="2"/>
      <point x="346" y="2" type="curve" smooth="yes"/>
      <point x="375" y="2"/>
      <point x="412" y="0"/>
      <point x="440" y="-2" type="curve"/>
      <point x="443" y="34" type="line"/>
      <point x="426" y="36"/>
      <point x="397" y="42"/>
      <point x="389" y="48" type="curve"/>
      <point x="387" y="54"/>
      <point x="384" y="81"/>
      <point x="384" y="129" type="curve" smooth="yes"/>
      <point x="384" y="213" type="line" smooth="yes"/>
      <point x="384" y="306"/>
      <point x="329" y="356"/>
      <point x="267" y="356" type="curve" smooth="yes"/>
      <point x="224" y="356"/>
      <point x="186" y="337"/>
      <point x="152" y="297" type="curve"/>
      <point x="149" y="298" type="line"/>
      <point x="151" y="424"/>
      <point x="152" y="478"/>
      <point x="156" y="544" type="curve"/>
      <point x="137" y="557" type="line"/>
      <point x="101" y="540"/>
      <point x="58" y="526"/>
      <point x="15" y="516" type="curve"/>
      <point x="16" y="482" type="line"/>
      <point x="30" y="482"/>
      <point x="53" y="480"/>
      <point x="69" y="478" type="curve"/>
      <point x="71" y="456"/>
      <point x="73" y="380"/>
      <point x="73" y="289" type="curve" smooth="yes"/>
      <point x="73" y="188" type="line" smooth="yes"/>
      <point x="73" y="95"/>
      <point x="70" y="53"/>
      <point x="68" y="48" type="curve"/>
      <point x="60" y="42"/>
      <point x="34" y="36"/>
      <point x="17" y="34" type="curve"/>
    </contour>
    <contour>
      <point x="229" y="0" type="move" name="bottom"/>
    </contour>
    <contour>
      <point x="160" y="415" type="move" name="stroke"/>
    </contour>
    <contour>
      <point x="112" y="528" type="move" name="top"/>
    </contour>
  </outline>
</glyph>
<glyph name="m" format="1">
  <advance width="676"/>
  <unicode hex="006D"/>
  <outline>
    <contour>
      <point x="22" y="-2" type="line"/>
      <point x="49" y="1"/>
      <point x="86" y="2"/>
      <point x="114" y="2" type="curve" smooth="yes"/>
      <point x="143" y="2"/>
      <point x="179" y="0"/>
      <point x="204" y="-2" type="curve"/>
      <point x="206" y="34" type="line"/>
      <point x="194" y="37"/>
      <point x="165" y="42"/>
      <point x="157" y="48" type="curve"/>
      <point x="155" y="54"/>
      <point x="152" y="82"/>
      <point x="152" y="131" type="curve" smooth="yes"/>
      <point x="152" y="250" type="line"/>
      <point x="172" y="276"/>
      <point x="201" y="289"/>
      <point x="229" y="289" type="curve" smooth="yes"/>
      <point x="267" y="289"/>
      <point x="301" y="267"/>
      <point x="301" y="207" type="curve"/>
      <point x="301" y="127" type="line"/>
      <point x="301" y="82"/>
      <point x="299" y="53"/>
      <point x="298" y="48" type="curve"/>
      <point x="290" y="42"/>
      <point x="265" y="37"/>
      <point x="251" y="34" type="curve"/>
      <point x="254" y="-2" type="line"/>
      <point x="280" y="0"/>
      <point x="312" y="2"/>
      <point x="341" y="2" type="curve" smooth="yes"/>
      <point x="369" y="2"/>
      <point x="404" y="0"/>
      <point x="430" y="-2" type="curve"/>
      <point x="432" y="34" type="line"/>
      <point x="417" y="37"/>
      <point x="392" y="42"/>
      <point x="384" y="48" type="curve"/>
      <point x="382" y="54"/>
      <point x="379" y="81"/>
      <point x="379" y="129" type="curve"/>
      <point x="378" y="213" type="line"/>
      <point x="378" y="311"/>
      <point x="319" y="356"/>
      <point x="261" y="356" type="curve" smooth="yes"/>
      <point x="222" y="356"/>
      <point x="186" y="337"/>
      <point x="153" y="296" type="curve"/>
      <point x="150" y="297" type="line"/>
      <point x="155" y="341" type="line"/>
      <point x="139" y="354" type="line"/>
      <point x="103" y="341"/>
      <point x="61" y="329"/>
      <point x="16" y="321" type="curve"/>
      <point x="16" y="288" type="line"/>
      <point x="35" y="285"/>
      <point x="54" y="282"/>
      <point x="68" y="276" type="curve"/>
      <point x="71" y="256"/>
      <point x="75" y="232"/>
      <point x="75" y="190" type="curve" smooth="yes"/>
      <point x="74" y="130" type="line" smooth="yes"/>
      <point x="73" y="82"/>
      <point x="71" y="53"/>
      <point x="70" y="48" type="curve"/>
      <point x="62" y="42"/>
      <point x="36" y="36"/>
      <point x="19" y="34" type="curve"/>
    </contour>
    <contour>
      <point x="480" y="-2" type="line"/>
      <point x="505" y="0"/>
      <point x="537" y="2"/>
      <point x="566" y="2" type="curve" smooth="yes"/>
      <point x="595" y="2"/>
      <point x="633" y="0"/>
      <point x="660" y="-2" type="curve"/>
      <point x="663" y="34" type="line"/>
      <point x="647" y="36"/>
      <point x="617" y="42"/>
      <point x="609" y="48" type="curve"/>
      <point x="607" y="54"/>
      <point x="604" y="81"/>
      <point x="604" y="129" type="curve" smooth="yes"/>
      <point x="603" y="214" type="line" smooth="yes"/>
      <point x="603" y="301"/>
      <point x="555" y="356"/>
      <point x="480" y="356" type="curve" smooth="yes"/>
      <point x="432" y="356"/>
      <point x="389" y="330"/>
      <point x="354" y="281" type="curve"/>
      <point x="370" y="249" type="line"/>
      <point x="391" y="275"/>
      <point x="420" y="289"/>
      <point x="452" y="289" type="curve" smooth="yes"/>
      <point x="489" y="289"/>
      <point x="526" y="266"/>
      <point x="526" y="202" type="curve"/>
      <point x="526" y="127" type="line" smooth="yes"/>
      <point x="526" y="82"/>
      <point x="524" y="54"/>
      <point x="522" y="48" type="curve"/>
      <point x="514" y="42"/>
      <point x="490" y="37"/>
      <point x="477" y="34" type="curve"/>
    </contour>
    <contour>
      <point x="340" y="0" type="move" name="bottom"/>
    </contour>
    <contour>
      <point x="340" y="349" type="move" name="top"/>
    </contour>
  </outline>
</glyph>
<glyph name="n" format="1">
  <advance width="456"/>
  <unicode hex="006E"/>
  <outline>
    <contour>
      <point x="21" y="-2" type="line"/>
      <point x="48" y="0"/>
      <point x="85" y="2"/>
      <point x="113" y="2" type="curve" smooth="yes"/>
      <point x="142" y="2"/>
      <point x="180" y="0"/>
      <point x="207" y="-2" type="curve"/>
      <point x="210" y="34" type="line"/>
      <point x="194" y="36"/>
      <point x="164" y="42"/>
      <point x="156" y="48" type="curve"/>
      <point x="155" y="54"/>
      <point x="152" y="82"/>
      <point x="152" y="131" type="curve" smooth="yes"/>
      <point x="152" y="250" type="line"/>
      <point x="173" y="276"/>
      <point x="202" y="289"/>
      <point x="232" y="289" type="curve" smooth="yes"/>
      <point x="271" y="289"/>
      <point x="307" y="263"/>
      <point x="307" y="201" type="curve" smooth="yes"/>
      <point x="307" y="127" type="line" smooth="yes"/>
      <point x="307" y="82"/>
      <point x="305" y="54"/>
      <point x="303" y="48" type="curve"/>
      <point x="294" y="42"/>
      <point x="269" y="36"/>
      <point x="253" y="34" type="curve"/>
      <point x="256" y="-2" type="line"/>
      <point x="284" y="0"/>
      <point x="319" y="2"/>
      <point x="347" y="2" type="curve" smooth="yes"/>
      <point x="376" y="2"/>
      <point x="413" y="0"/>
      <point x="441" y="-2" type="curve"/>
      <point x="443" y="34" type="line"/>
      <point x="427" y="36"/>
      <point x="398" y="42"/>
      <point x="389" y="48" type="curve"/>
      <point x="388" y="54"/>
      <point x="384" y="81"/>
      <point x="384" y="129" type="curve" smooth="yes"/>
      <point x="384" y="213" type="line" smooth="yes"/>
      <point x="384" y="306"/>
      <point x="330" y="356"/>
      <point x="268" y="356" type="curve" smooth="yes"/>
      <point x="225" y="356"/>
      <point x="188" y="337"/>
      <point x="152" y="296" type="curve"/>
      <point x="149" y="297" type="line"/>
      <point x="154" y="341" type="line"/>
      <point x="138" y="354" type="line"/>
      <point x="102" y="341"/>
      <point x="60" y="329"/>
      <point x="15" y="321" type="curve"/>
      <point x="15" y="288" type="line"/>
      <point x="34" y="285"/>
      <point x="54" y="282"/>
      <point x="67" y="276" type="curve"/>
      <point x="70" y="256"/>
      <point x="74" y="232"/>
      <point x="74" y="190" type="curve"/>
      <point x="73" y="130" type="line" smooth="yes"/>
      <point x="72" y="82"/>
      <point x="71" y="53"/>
      <point x="69" y="48" type="curve"/>
      <point x="61" y="42"/>
      <point x="35" y="36"/>
      <point x="18" y="34" type="curve"/>
    </contour>
    <contour>
      <point x="230" y="0" type="move" name="bottom"/>
    </contour>
    <contour>
      <point x="230" y="349" type="move" name="top"/>
    </contour>
  </outline>
</glyph>
<glyph name="o" format="1">
  <advance width="422"/>
  <unicode hex="006F"/>
  <outline>
    <contour>
      <point x="214" y="-6" type="curve" smooth="yes"/>
      <point x="311" y="-6"/>
      <point x="388" y="75"/>
      <point x="388" y="178" type="curve" smooth="yes"/>
      <point x="388" y="283"/>
      <point x="319" y="356"/>
      <point x="217" y="356" type="curve" smooth="yes"/>
      <point x="119" y="356"/>
      <point x="34" y="287"/>
      <point x="34" y="172" type="curve" smooth="yes"/>
      <point x="34" y="67"/>
      <point x="107" y="-6"/>
    </contour>
    <contour>
      <point x="222" y="41" type="curve" smooth="yes"/>
      <point x="165" y="41"/>
      <point x="123" y="104"/>
      <point x="123" y="192" type="curve" smooth="yes"/>
      <point x="123" y="265"/>
      <point x="156" y="311"/>
      <point x="206" y="311" type="curve" smooth="yes"/>
      <point x="262" y="311"/>
      <point x="300" y="249"/>
      <point x="300" y="156" type="curve" smooth="yes"/>
      <point x="300" y="85"/>
      <point x="270" y="41"/>
    </contour>
    <contour>
      <point x="211" y="0" type="move" name="bottom"/>
    </contour>
    <contour>
      <point x="211" y="175" type="move" name="center"/>
    </contour>
    <contour>
      <point x="269" y="0" type="move" name="ogonek"/>
    </contour>
    <contour>
      <point x="211" y="349" type="move" name="top"/>
    </contour>
    <contour>
      <point x="406" y="349" type="move" name="topright"/>
    </contour>
  </outline>
</glyph>
<glyph name="q" format="1">
  <advance width="446"/>
  <unicode hex="0071"/>
  <outline>
    <contour>
      <point x="233" y="-181" type="line"/>
      <point x="267" y="-178"/>
      <point x="298" y="-176"/>
      <point x="330" y="-176" type="curve" smooth="yes"/>
      <point x="361" y="-176"/>
      <point x="392" y="-178"/>
      <point x="419" y="-181" type="curve"/>
      <point x="421" y="-143" type="line"/>
      <point x="406" y="-140"/>
      <point x="382" y="-135"/>
      <point x="374" y="-130" type="curve"/>
      <point x="373" y="-123"/>
      <point x="370" y="-90"/>
      <point x="369" y="-16" type="curve" smooth="yes"/>
      <point x="367" y="188" type="line" smooth="yes"/>
      <point x="367" y="253"/>
      <point x="368" y="317"/>
      <point x="370" y="364" type="curve"/>
      <point x="343" y="364" type="line"/>
      <point x="313" y="336" type="line"/>
      <point x="286" y="348"/>
      <point x="256" y="355"/>
      <point x="221" y="355" type="curve" smooth="yes"/>
      <point x="128" y="355"/>
      <point x="33" y="285"/>
      <point x="33" y="163" type="curve" smooth="yes"/>
      <point x="33" y="61"/>
      <point x="100" y="-7"/>
      <point x="190" y="-7" type="curve" smooth="yes"/>
      <point x="226" y="-7"/>
      <point x="261" y="9"/>
      <point x="289" y="53" type="curve"/>
      <point x="291" y="52" type="line"/>
      <point x="291" y="-47" type="line" smooth="yes"/>
      <point x="291" y="-96"/>
      <point x="289" y="-125"/>
      <point x="288" y="-130" type="curve"/>
      <point x="280" y="-135"/>
      <point x="252" y="-141"/>
      <point x="231" y="-143" type="curve"/>
    </contour>
    <contour>
      <point x="217" y="63" type="curve" smooth="yes"/>
      <point x="162" y="63"/>
      <point x="120" y="108"/>
      <point x="120" y="189" type="curve" smooth="yes"/>
      <point x="120" y="268"/>
      <point x="165" y="311"/>
      <point x="218" y="311" type="curve" smooth="yes"/>
      <point x="243" y="311"/>
      <point x="273" y="303"/>
      <point x="290" y="281" type="curve"/>
      <point x="289" y="100" type="line"/>
      <point x="267" y="73"/>
      <point x="243" y="63"/>
    </contour>
    <contour>
      <point x="223" y="349" type="move" name="top"/>
    </contour>
  </outline>
</glyph>
<glyph name="s" format="1">
  <advance width="332"/>
  <unicode hex="0073"/>
  <outline>
    <contour>
      <point x="159" y="-6" type="curve" smooth="yes"/>
      <point x="243" y="-6"/>
      <point x="302" y="37"/>
      <point x="302" y="102" type="curve" smooth="yes"/>
      <point x="302" y="148"/>
      <point x="277" y="178"/>
      <point x="206" y="207" type="curve" smooth="yes"/>
      <point x="144" y="233"/>
      <point x="124" y="247"/>
      <point x="124" y="274" type="curve" smooth="yes"/>
      <point x="124" y="299"/>
      <point x="147" y="315"/>
      <point x="182" y="315" type="curve" smooth="yes"/>
      <point x="197" y="315"/>
      <point x="214" y="312"/>
      <point x="225" y="305" type="curve"/>
      <point x="231" y="290"/>
      <point x="237" y="273"/>
      <point x="244" y="250" type="curve"/>
      <point x="287" y="250" type="line"/>
      <point x="278" y="340" type="line"/>
      <point x="255" y="349"/>
      <point x="220" y="356"/>
      <point x="189" y="356" type="curve" smooth="yes"/>
      <point x="103" y="356"/>
      <point x="44" y="311"/>
      <point x="44" y="249" type="curve" smooth="yes"/>
      <point x="44" y="198"/>
      <point x="71" y="169"/>
      <point x="147" y="139" type="curve" smooth="yes"/>
      <point x="206" y="115"/>
      <point x="221" y="101"/>
      <point x="221" y="76" type="curve" smooth="yes"/>
      <point x="221" y="51"/>
      <point x="199" y="36"/>
      <point x="165" y="36" type="curve" smooth="yes"/>
      <point x="141" y="36"/>
      <point x="120" y="42"/>
      <point x="100" y="54" type="curve"/>
      <point x="93" y="72"/>
      <point x="90" y="89"/>
      <point x="85" y="112" type="curve"/>
      <point x="40" y="112" type="line"/>
      <point x="41" y="75"/>
      <point x="42" y="50"/>
      <point x="44" y="20" type="curve"/>
      <point x="73" y="4"/>
      <point x="117" y="-6"/>
    </contour>
    <contour>
      <point x="166" y="0" type="move" name="bottom"/>
    </contour>
    <contour>
      <point x="169" y="349" type="move" name="top"/>
    </contour>
  </outline>
</glyph>
<glyph name="v" format="1">
  <advance width="394"/>
  <unicode hex="0076"/>
  <outline>
    <contour>
      <point x="181" y="-3" type="line"/>
      <point x="210" y="-3" type="line"/>
      <point x="358" y="304" type="line"/>
      <point x="369" y="308"/>
      <point x="383" y="312"/>
      <point x="394" y="314" type="curve"/>
      <point x="393" y="350" type="line"/>
      <point x="375" y="349"/>
      <point x="350" y="349"/>
      <point x="330" y="349" type="curve" smooth="yes"/>
      <point x="310" y="349"/>
      <point x="270" y="349"/>
      <point x="253" y="349" type="curve"/>
      <point x="251" y="313" type="line"/>
      <point x="270" y="311"/>
      <point x="288" y="308"/>
      <point x="304" y="304" type="curve"/>
      <point x="208" y="92" type="line"/>
      <point x="231" y="92" type="line"/>
      <point x="128" y="304" type="line"/>
      <point x="144" y="308"/>
      <point x="163" y="311"/>
      <point x="181" y="313" type="curve"/>
      <point x="179" y="349" type="line"/>
      <point x="154" y="349"/>
      <point x="115" y="349"/>
      <point x="91" y="349" type="curve" smooth="yes"/>
      <point x="67" y="349"/>
      <point x="23" y="349"/>
      <point x="-1" y="350" type="curve"/>
      <point x="-3" y="314" type="line"/>
      <point x="9" y="312"/>
      <point x="25" y="308"/>
      <point x="36" y="304" type="curve"/>
    </contour>
    <contour>
      <point x="197" y="0" type="move" name="bottom"/>
    </contour>
    <contour>
      <point x="197" y="349" type="move" name="top"/>
    </contour>
  </outline>
</glyph>
<glyph name="x" format="1">
  <advance width="384"/>
  <unicode hex="0078"/>
  <outline>
    <contour>
      <point x="375" y="-2" type="curve"/>
      <point x="376" y="36" type="line"/>
      <point x="367" y="39"/>
      <point x="350" y="43"/>
      <point x="339" y="47" type="curve"/>
      <point x="230" y="193" type="line"/>
      <point x="208" y="225" type="line"/>
      <point x="146" y="306" type="line"/>
      <point x="157" y="310"/>
      <point x="169" y="313"/>
      <point x="181" y="314" type="curve"/>
      <point x="180" y="349" type="line"/>
      <point x="156" y="349"/>
      <point x="121" y="349"/>
      <point x="97" y="349" type="curve" smooth="yes"/>
      <point x="73" y="349"/>
      <point x="39" y="349"/>
      <point x="15" y="350" type="curve"/>
      <point x="13" y="315" type="line"/>
      <point x="23" y="314"/>
      <point x="38" y="310"/>
      <point x="49" y="306" type="curve"/>
      <point x="151" y="171" type="line"/>
      <point x="173" y="139" type="line"/>
      <point x="244" y="47" type="line"/>
      <point x="233" y="43"/>
      <point x="217" y="40"/>
      <point x="206" y="38" type="curve"/>
      <point x="207" y="-1" type="line"/>
      <point x="231" y="0"/>
      <point x="267" y="2"/>
      <point x="291" y="2" type="curve" smooth="yes"/>
      <point x="315" y="2"/>
      <point x="351" y="-1"/>
    </contour>
    <contour>
      <point x="268" y="306" type="curve"/>
      <point x="208" y="225" type="line"/>
      <point x="151" y="171" type="line"/>
      <point x="49" y="47" type="line"/>
      <point x="37" y="43"/>
      <point x="20" y="39"/>
      <point x="11" y="36" type="curve"/>
      <point x="13" y="-2" type="line"/>
      <point x="29" y="-1"/>
      <point x="56" y="2"/>
      <point x="76" y="2" type="curve" smooth="yes"/>
      <point x="93" y="2"/>
      <point x="124" y="0"/>
      <point x="140" y="-1" type="curve"/>
      <point x="141" y="37" type="line"/>
      <point x="130" y="39"/>
      <point x="114" y="43"/>
      <point x="103" y="47" type="curve"/>
      <point x="173" y="139" type="line"/>
      <point x="230" y="193" type="line"/>
      <point x="323" y="306" type="line"/>
      <point x="335" y="310"/>
      <point x="348" y="314"/>
      <point x="358" y="315" type="curve"/>
      <point x="356" y="350" type="line"/>
      <point x="340" y="349"/>
      <point x="313" y="349"/>
      <point x="295" y="349" type="curve" smooth="yes"/>
      <point x="277" y="349"/>
      <point x="250" y="349"/>
      <point x="234" y="349" type="curve"/>
      <point x="233" y="314" type="line"/>
      <point x="245" y="313"/>
      <point x="257" y="310"/>
    </contour>
    <contour>
      <point x="192" y="0" type="move" name="bottom"/>
    </contour>
    <contour>
      <point x="192" y="349" type="move" name="top"/>
    </contour>
  </outline>
</glyph>
<glyph name="y" format="1">
  <advance width="394"/>
  <unicode hex="0079"/>
  <outline>
    <contour>
      <point x="181" y="-3" type="line"/>
      <point x="231" y="92" type="line"/>
      <point x="128" y="304" type="line"/>
      <point x="144" y="308"/>
      <point x="163" y="311"/>
      <point x="181" y="313" type="curve"/>
      <point x="179" y="349" type="line"/>
      <point x="154" y="349"/>
      <point x="115" y="349"/>
      <point x="91" y="349" type="curve" smooth="yes"/>
      <point x="67" y="349"/>
      <point x="23" y="349"/>
      <point x="-1" y="350" type="curve"/>
      <point x="-3" y="314" type="line"/>
      <point x="9" y="312"/>
      <point x="25" y="308"/>
      <point x="36" y="304" type="curve"/>
    </contour>
    <contour>
      <point x="394" y="350" type="line"/>
      <point x="376" y="349"/>
      <point x="351" y="349"/>
      <point x="330" y="349" type="curve" smooth="yes"/>
      <point x="310" y="349"/>
      <point x="269" y="349"/>
      <point x="253" y="349" type="curve"/>
      <point x="252" y="313" type="line"/>
      <point x="271" y="311"/>
      <point x="289" y="308"/>
      <point x="305" y="304" type="curve"/>
      <point x="207" y="92" type="line"/>
      <point x="198" y="75" type="line"/>
      <point x="106" y="-103" type="line"/>
      <point x="150" y="-65" type="line"/>
      <point x="67" y="-90" type="line" smooth="yes"/>
      <point x="36" y="-100"/>
      <point x="21" y="-119"/>
      <point x="21" y="-140" type="curve" smooth="yes"/>
      <point x="21" y="-165"/>
      <point x="41" y="-182"/>
      <point x="71" y="-182" type="curve" smooth="yes"/>
      <point x="105" y="-182"/>
      <point x="132" y="-166"/>
      <point x="158" y="-109" type="curve" smooth="yes"/>
      <point x="221" y="23" type="line"/>
      <point x="359" y="304" type="line"/>
      <point x="370" y="308"/>
      <point x="384" y="312"/>
      <point x="395" y="314" type="curve"/>
    </contour>
    <contour>
      <point x="259" y="0" type="move" name="bottom"/>
    </contour>
    <contour>
      <point x="217" y="349" type="move" name="top"/>
    </contour>
  </outline>
</glyph>
<glyph name="asciitilde" format="1">
  <advance width="480"/>
  <unicode hex="007E"/>
  <outline>
    <contour>
      <point x="406" y="272" type="line"/>
      <point x="390" y="244"/>
      <point x="370" y="228"/>
      <point x="342" y="228" type="curve" smooth="yes"/>
      <point x="296" y="228"/>
      <point x="218" y="290"/>
      <point x="150" y="290" type="curve" smooth="yes"/>
      <point x="103" y="290"/>
      <point x="64" y="259"/>
      <point x="45" y="205" type="curve"/>
      <point x="74" y="185" type="line"/>
      <point x="89" y="214"/>
      <point x="111" y="230"/>
      <point x="138" y="230" type="curve" smooth="yes"/>
      <point x="184" y="230"/>
      <point x="262" y="166"/>
      <point x="330" y="166" type="curve" smooth="yes"/>
      <point x="377" y="166"/>
      <point x="416" y="199"/>
      <point x="435" y="252" type="curve"/>
    </contour>
  </outline>
</glyph>
<glyph name="sterling" format="1">
  <advance width="464"/>
  <unicode hex="00A3"/>
  <outline>
    <contour>
      <point x="61" y="-9" type="line"/>
      <point x="104" y="7"/>
      <point x="133" y="13"/>
      <point x="173" y="13" type="curve" smooth="yes"/>
      <point x="236" y="13"/>
      <point x="279" y="-7"/>
      <point x="332" y="-7" type="curve" smooth="yes"/>
      <point x="393" y="-7"/>
      <point x="435" y="27"/>
      <point x="464" y="108" type="curve"/>
      <point x="431" y="125" type="line"/>
      <point x="414" y="85"/>
      <point x="388" y="71"/>
      <point x="357" y="71" type="curve" smooth="yes"/>
      <point x="328" y="71"/>
      <point x="287" y="86"/>
      <point x="259" y="86" type="curve" smooth="yes"/>
      <point x="213" y="86"/>
      <point x="190" y="73"/>
      <point x="125" y="38" type="curve"/>
      <point x="121" y="27" type="line"/>
      <point x="197" y="82"/>
      <point x="224" y="128"/>
      <point x="224" y="191" type="curve" smooth="yes"/>
      <point x="224" y="264"/>
      <point x="180" y="345"/>
      <point x="180" y="409" type="curve" smooth="yes"/>
      <point x="180" y="472"/>
      <point x="231" y="499"/>
      <point x="307" y="491" type="curve"/>
      <point x="262" y="515" type="line"/>
      <point x="327" y="448" type="line" smooth="yes"/>
      <point x="346" y="429"/>
      <point x="359" y="423"/>
      <point x="379" y="423" type="curve" smooth="yes"/>
      <point x="402" y="423"/>
      <point x="417" y="439"/>
      <point x="417" y="462" type="curve" smooth="yes"/>
      <point x="417" y="505"/>
      <point x="361" y="536"/>
      <point x="283" y="536" type="curve" smooth="yes"/>
      <point x="169" y="536"/>
      <point x="86" y="471"/>
      <point x="86" y="380" type="curve" smooth="yes"/>
      <point x="86" y="311"/>
      <point x="147" y="226"/>
      <point x="147" y="141" type="curve" smooth="yes"/>
      <point x="147" y="79"/>
      <point x="121" y="51"/>
      <point x="49" y="33" type="curve"/>
    </contour>
    <contour>
      <point x="35" y="249" type="line"/>
      <point x="354" y="249" type="line"/>
      <point x="354" y="294" type="line"/>
      <point x="35" y="294" type="line"/>
    </contour>
  </outline>
</glyph>
<glyph name="brokenbar" format="1">
  <advance width="217"/>
  <unicode hex="00A6"/>
  <outline>
    <contour>
      <point x="79" y="280" type="line"/>
      <point x="138" y="280" type="line"/>
      <point x="138" y="578" type="line"/>
      <point x="79" y="578" type="line"/>
    </contour>
    <contour>
      <point x="79" y="-176" type="line"/>
      <point x="138" y="-176" type="line"/>
      <point x="138" y="122" type="line"/>
      <point x="79" y="122" type="line"/>
    </contour>
  </outline>
</glyph>
<glyph name="periodcentered" format="1">
  <advance width="214"/>
  <unicode hex="00B7"/>
  <outline>
    <contour>
      <point x="107" y="112" type="curve" smooth="yes"/>
      <point x="141" y="112"/>
      <point x="167" y="140"/>
      <point x="167" y="177" type="curve" smooth="yes"/>
      <point x="167" y="215"/>
      <point x="141" y="244"/>
      <point x="107" y="244" type="curve" smooth="yes"/>
      <point x="73" y="244"/>
      <point x="46" y="215"/>
      <point x="46" y="177" type="curve" smooth="yes"/>
      <point x="46" y="140"/>
      <point x="73" y="112"/>
    </contour>
  </outline>
</glyph>
<glyph name="AE" format="1">
  <advance width="725"/>
  <unicode hex="00C6"/>
  <outline>
    <contour>
      <point x="565" y="182" type="curve"/>
      <point x="605" y="182" type="line"/>
      <point x="604" y="212"/>
      <point x="603" y="244"/>
      <point x="603" y="271" type="curve" smooth="yes"/>
      <point x="603" y="299"/>
      <point x="604" y="329"/>
      <point x="605" y="359" type="curve"/>
      <point x="565" y="359" type="line"/>
      <point x="562" y="340"/>
      <point x="558" y="310"/>
      <point x="554" y="298" type="curve"/>
      <point x="547" y="297"/>
      <point x="531" y="295"/>
      <point x="511" y="295" type="curve" smooth="yes"/>
      <point x="454" y="295" type="line" smooth="yes"/>
      <point x="437" y="295"/>
      <point x="420" y="297"/>
      <point x="401" y="297" type="curve"/>
      <point x="401" y="245" type="line"/>
      <point x="420" y="246"/>
      <point x="437" y="247"/>
      <point x="454" y="247" type="curve" smooth="yes"/>
      <point x="511" y="247" type="line" smooth="yes"/>
      <point x="531" y="247"/>
      <point x="547" y="246"/>
      <point x="554" y="244" type="curve"/>
      <point x="558" y="232"/>
      <point x="562" y="201"/>
    </contour>
    <contour>
      <point x="146" y="157" type="line"/>
      <point x="172" y="159"/>
      <point x="205" y="160"/>
      <point x="253" y="160" type="curve" smooth="yes"/>
      <point x="301" y="160"/>
      <point x="332" y="159"/>
      <point x="353" y="157" type="curve"/>
      <point x="353" y="209" type="line"/>
      <point x="333" y="207"/>
      <point x="301" y="206"/>
      <point x="253" y="206" type="curve" smooth="yes"/>
      <point x="205" y="206"/>
      <point x="178" y="207"/>
      <point x="158" y="209" type="curve"/>
    </contour>
    <contour>
      <point x="661" y="140" type="line"/>
      <point x="642" y="101"/>
      <point x="626" y="70"/>
      <point x="615" y="50" type="curve"/>
      <point x="603" y="47"/>
      <point x="590" y="46"/>
      <point x="550" y="46" type="curve" smooth="yes"/>
      <point x="480" y="46" type="line" smooth="yes"/>
      <point x="452" y="46"/>
      <point x="435" y="48"/>
      <point x="419" y="50" type="curve"/>
      <point x="418" y="61"/>
      <point x="417" y="102"/>
      <point x="417" y="148" type="curve" smooth="yes"/>
      <point x="417" y="374" type="line" smooth="yes"/>
      <point x="417" y="421"/>
      <point x="418" y="471"/>
      <point x="419" y="481" type="curve"/>
      <point x="434" y="483"/>
      <point x="452" y="484"/>
      <point x="474" y="484" type="curve" smooth="yes"/>
      <point x="562" y="484" type="line" smooth="yes"/>
      <point x="573" y="484"/>
      <point x="585" y="483"/>
      <point x="596" y="481" type="curve"/>
      <point x="608" y="459"/>
      <point x="617" y="434"/>
      <point x="628" y="402" type="curve"/>
      <point x="670" y="408" type="line"/>
      <point x="651" y="532" type="line"/>
      <point x="622" y="530"/>
      <point x="583" y="528"/>
      <point x="553" y="528" type="curve" smooth="yes"/>
      <point x="375" y="528" type="line" smooth="yes"/>
      <point x="345" y="528"/>
      <point x="289" y="528"/>
      <point x="258" y="530" type="curve"/>
      <point x="256" y="489" type="line"/>
      <point x="281" y="488"/>
      <point x="316" y="482"/>
      <point x="325" y="476" type="curve"/>
      <point x="328" y="509" type="line"/>
      <point x="28" y="48" type="line"/>
      <point x="18" y="44"/>
      <point x="4" y="40"/>
      <point x="-15" y="38" type="curve"/>
      <point x="-13" y="-2" type="line"/>
      <point x="12" y="0"/>
      <point x="45" y="0"/>
      <point x="67" y="0" type="curve" smooth="yes"/>
      <point x="89" y="0"/>
      <point x="118" y="0"/>
      <point x="145" y="-2" type="curve"/>
      <point x="147" y="38" type="line"/>
      <point x="126" y="40"/>
      <point x="101" y="45"/>
      <point x="91" y="48" type="curve"/>
      <point x="359" y="477" type="line"/>
      <point x="332" y="462" type="line"/>
      <point x="332" y="167" type="line" smooth="yes"/>
      <point x="332" y="94"/>
      <point x="331" y="57"/>
      <point x="329" y="51" type="curve"/>
      <point x="321" y="46"/>
      <point x="294" y="40"/>
      <point x="273" y="38" type="curve"/>
      <point x="275" y="-3" type="line"/>
      <point x="302" y="-1"/>
      <point x="345" y="0"/>
      <point x="375" y="0" type="curve" smooth="yes"/>
      <point x="575" y="0" type="line" smooth="yes"/>
      <point x="606" y="0"/>
      <point x="639" y="-2"/>
      <point x="667" y="-5" type="curve"/>
      <point x="704" y="131" type="line"/>
    </contour>
    <contour>
      <point x="375" y="0" type="move" name="bottom"/>
    </contour>
    <contour>
      <point x="375" y="528" type="move" name="top"/>
    </contour>
  </outline>
</glyph>
<glyph name="multiply" format="1">
  <advance width="480"/>
  <unicode hex="00D7"/>
  <outline>
    <contour>
      <point x="385" y="416" type="line"/>
      <point x="53" y="86" type="line"/>
      <point x="95" y="41" type="line"/>
      <point x="427" y="370" type="line"/>
    </contour>
    <contour>
      <point x="95" y="416" type="line"/>
      <point x="53" y="370" type="line"/>
      <point x="385" y="41" type="line"/>
      <point x="427" y="86" type="line"/>
    </contour>
  </outline>
</glyph>
<glyph name="Thorn" format="1">
  <advance width="455"/>
  <unicode hex="00DE"/>
  <outline>
    <contour>
      <point x="33" y="-3" type="line"/>
      <point x="61" y="-1"/>
      <point x="103" y="2"/>
      <point x="136" y="2" type="curve" smooth="yes"/>
      <point x="169" y="2"/>
      <point x="211" y="-1"/>
      <point x="248" y="-3" type="curve"/>
      <point x="250" y="39" type="line"/>
      <point x="219" y="41"/>
      <point x="190" y="46"/>
      <point x="181" y="51" type="curve"/>
      <point x="180" y="57"/>
      <point x="178" y="78"/>
      <point x="178" y="108" type="curve" smooth="yes"/>
      <point x="178" y="387" type="line"/>
      <point x="190" y="390"/>
      <point x="204" y="390"/>
      <point x="215" y="390" type="curve" smooth="yes"/>
      <point x="294" y="390"/>
      <point x="340" y="346"/>
      <point x="340" y="267" type="curve" smooth="yes"/>
      <point x="340" y="198"/>
      <point x="298" y="162"/>
      <point x="230" y="162" type="curve" smooth="yes"/>
      <point x="208" y="162"/>
      <point x="187" y="165"/>
      <point x="166" y="172" type="curve"/>
      <point x="166" y="125" type="line"/>
      <point x="183" y="119"/>
      <point x="210" y="116"/>
      <point x="228" y="116" type="curve" smooth="yes"/>
      <point x="344" y="116"/>
      <point x="430" y="181"/>
      <point x="430" y="279" type="curve" smooth="yes"/>
      <point x="430" y="380"/>
      <point x="357" y="434"/>
      <point x="224" y="434" type="curve" smooth="yes"/>
      <point x="201" y="434"/>
      <point x="180" y="433"/>
      <point x="160" y="430" type="curve"/>
      <point x="178" y="401" type="line"/>
      <point x="178" y="442" type="line" smooth="yes"/>
      <point x="178" y="461"/>
      <point x="180" y="471"/>
      <point x="182" y="476" type="curve"/>
      <point x="190" y="482"/>
      <point x="217" y="488"/>
      <point x="237" y="489" type="curve"/>
      <point x="235" y="530" type="line"/>
      <point x="209" y="528"/>
      <point x="169" y="526"/>
      <point x="136" y="526" type="curve" smooth="yes"/>
      <point x="103" y="526"/>
      <point x="61" y="528"/>
      <point x="35" y="530" type="curve"/>
      <point x="33" y="489" type="line"/>
      <point x="53" y="488"/>
      <point x="80" y="482"/>
      <point x="87" y="476" type="curve"/>
      <point x="90" y="470"/>
      <point x="93" y="433"/>
      <point x="93" y="342" type="curve" smooth="yes"/>
      <point x="93" y="185" type="line" smooth="yes"/>
      <point x="93" y="94"/>
      <point x="90" y="57"/>
      <point x="87" y="51" type="curve"/>
      <point x="80" y="46"/>
      <point x="53" y="40"/>
      <point x="31" y="38" type="curve"/>
    </contour>
  </outline>
</glyph>
<glyph name="oslash" format="1">
  <advance width="422"/>
  <unicode hex="00F8"/>
  <outline>
    <component base="slashlongcomb" xOffset="-29.056"/>
    <component base="o"/>
    <contour>
      <point x="211" y="349" type="move" name="top"/>
    </contour>
  </outline>
</glyph>
<glyph name="thorn" format="1">
  <advance width="443"/>
  <unicode hex="00FE"/>
  <outline>
    <contour>
      <point x="21" y="-181" type="line"/>
      <point x="48" y="-178"/>
      <point x="80" y="-176"/>
      <point x="112" y="-176" type="curve" smooth="yes"/>
      <point x="144" y="-176"/>
      <point x="185" y="-178"/>
      <point x="212" y="-181" type="curve"/>
      <point x="215" y="-143" type="line"/>
      <point x="194" y="-141"/>
      <point x="164" y="-135"/>
      <point x="156" y="-130" type="curve"/>
      <point x="154" y="-123"/>
      <point x="151" y="-96"/>
      <point x="151" y="-46" type="curve" smooth="yes"/>
      <point x="151" y="5" type="line"/>
      <point x="172" y="-2"/>
      <point x="196" y="-6"/>
      <point x="219" y="-6" type="curve" smooth="yes"/>
      <point x="330" y="-6"/>
      <point x="408" y="82"/>
      <point x="408" y="187" type="curve" smooth="yes"/>
      <point x="408" y="292"/>
      <point x="342" y="356"/>
      <point x="258" y="356" type="curve" smooth="yes"/>
      <point x="216" y="356"/>
      <point x="178" y="332"/>
      <point x="152" y="294" type="curve"/>
      <point x="150" y="295" type="line"/>
      <point x="152" y="424"/>
      <point x="153" y="478"/>
      <point x="156" y="544" type="curve"/>
      <point x="138" y="557" type="line"/>
      <point x="102" y="540"/>
      <point x="59" y="526"/>
      <point x="16" y="516" type="curve"/>
      <point x="17" y="482" type="line"/>
      <point x="31" y="482"/>
      <point x="55" y="480"/>
      <point x="70" y="478" type="curve"/>
      <point x="72" y="456"/>
      <point x="74" y="380"/>
      <point x="74" y="295" type="curve"/>
      <point x="72" y="26" type="line" smooth="yes"/>
      <point x="71" y="-96"/>
      <point x="70" y="-124"/>
      <point x="68" y="-130" type="curve"/>
      <point x="60" y="-135"/>
      <point x="34" y="-141"/>
      <point x="19" y="-143" type="curve"/>
    </contour>
    <contour>
      <point x="222" y="46" type="curve" smooth="yes"/>
      <point x="196" y="46"/>
      <point x="169" y="53"/>
      <point x="151" y="65" type="curve"/>
      <point x="151" y="251" type="line"/>
      <point x="171" y="274"/>
      <point x="197" y="287"/>
      <point x="227" y="287" type="curve" smooth="yes"/>
      <point x="279" y="287"/>
      <point x="321" y="247"/>
      <point x="321" y="166" type="curve" smooth="yes"/>
      <point x="320" y="85"/>
      <point x="281" y="46"/>
    </contour>
  </outline>
</glyph>
<glyph name="Eogonek" format="1">
  <advance width="494"/>
  <unicode hex="0118"/>
  <outline>
    <contour>
      <point x="333" y="182" type="curve"/>
      <point x="374" y="182" type="line"/>
      <point x="373" y="212"/>
      <point x="372" y="244"/>
      <point x="372" y="271" type="curve" smooth="yes"/>
      <point x="372" y="299"/>
      <point x="373" y="329"/>
      <point x="374" y="359" type="curve"/>
      <point x="333" y="359" type="line"/>
      <point x="331" y="340"/>
      <point x="327" y="310"/>
      <point x="323" y="298" type="curve"/>
      <point x="315" y="297"/>
      <point x="299" y="295"/>
      <point x="280" y="295" type="curve" smooth="yes"/>
      <point x="215" y="295" type="line" smooth="yes"/>
      <point x="198" y="295"/>
      <point x="180" y="297"/>
      <point x="162" y="297" type="curve"/>
      <point x="162" y="245" type="line"/>
      <point x="180" y="246"/>
      <point x="198" y="247"/>
      <point x="215" y="247" type="curve" smooth="yes"/>
      <point x="280" y="247" type="line" smooth="yes"/>
      <point x="299" y="247"/>
      <point x="315" y="246"/>
      <point x="323" y="244" type="curve"/>
      <point x="327" y="232"/>
      <point x="331" y="201"/>
    </contour>
    <contour>
      <point x="464" y="-110" type="line"/>
      <point x="446" y="-128"/>
      <point x="428" y="-138"/>
      <point x="409" y="-138" type="curve" smooth="yes"/>
      <point x="382" y="-138"/>
      <point x="364" y="-121"/>
      <point x="364" y="-93" type="curve" smooth="yes"/>
      <point x="364" y="-61"/>
      <point x="389" y="-30"/>
      <point x="438" y="0" type="curve"/>
      <point x="472" y="131" type="line"/>
      <point x="430" y="140" type="line"/>
      <point x="411" y="101"/>
      <point x="395" y="70"/>
      <point x="383" y="50" type="curve"/>
      <point x="372" y="47"/>
      <point x="359" y="46"/>
      <point x="319" y="46" type="curve" smooth="yes"/>
      <point x="241" y="46" type="line" smooth="yes"/>
      <point x="213" y="46"/>
      <point x="196" y="48"/>
      <point x="180" y="50" type="curve"/>
      <point x="179" y="61"/>
      <point x="178" y="102"/>
      <point x="178" y="148" type="curve" smooth="yes"/>
      <point x="178" y="374" type="line" smooth="yes"/>
      <point x="178" y="421"/>
      <point x="179" y="471"/>
      <point x="180" y="481" type="curve"/>
      <point x="194" y="483"/>
      <point x="212" y="484"/>
      <point x="235" y="484" type="curve" smooth="yes"/>
      <point x="330" y="484" type="line" smooth="yes"/>
      <point x="342" y="484"/>
      <point x="354" y="483"/>
      <point x="365" y="481" type="curve"/>
      <point x="377" y="459"/>
      <point x="386" y="434"/>
      <point x="397" y="402" type="curve"/>
      <point x="439" y="408" type="line"/>
      <point x="420" y="532" type="line"/>
      <point x="391" y="530"/>
      <point x="352" y="528"/>
      <point x="322" y="528" type="curve" smooth="yes"/>
      <point x="136" y="528" type="line" smooth="yes"/>
      <point x="106" y="528"/>
      <point x="61" y="528"/>
      <point x="33" y="530" type="curve"/>
      <point x="31" y="489" type="line"/>
      <point x="53" y="488"/>
      <point x="80" y="482"/>
      <point x="87" y="476" type="curve"/>
      <point x="90" y="470"/>
      <point x="93" y="433"/>
      <point x="93" y="342" type="curve" smooth="yes"/>
      <point x="93" y="185" type="line" smooth="yes"/>
      <point x="93" y="94"/>
      <point x="90" y="57"/>
      <point x="87" y="51" type="curve"/>
      <point x="80" y="46"/>
      <point x="53" y="40"/>
      <point x="31" y="38" type="curve"/>
      <point x="33" y="-3" type="line"/>
      <point x="61" y="-1"/>
      <point x="106" y="0"/>
      <point x="136" y="0" type="curve" smooth="yes"/>
      <point x="389" y="0" type="line"/>
      <point x="333" y="-27"/>
      <point x="300" y="-63"/>
      <point x="300" y="-100" type="curve" smooth="yes"/>
      <point x="300" y="-145"/>
      <point x="339" y="-178"/>
      <point x="396" y="-178" type="curve" smooth="yes"/>
      <point x="432" y="-178"/>
      <point x="461" y="-163"/>
      <point x="483" y="-138" type="curve"/>
    </contour>
    <contour>
      <point x="247" y="0" type="move" name="bottom"/>
    </contour>
    <contour>
      <point x="247" y="528" type="move" name="top"/>
    </contour>
    <contour>
      <point x="16" y="528" type="move" name="topleft"/>
    </contour>
  </outline>
</glyph>
<glyph name="kgreenlandic" format="1">
  <advance width="415"/>
  <unicode hex="0138"/>
  <outline>
    <contour>
      <point x="19" y="-2" type="line"/>
      <point x="50" y="0"/>
      <point x="86" y="2"/>
      <point x="115" y="2" type="curve" smooth="yes"/>
      <point x="144" y="2"/>
      <point x="181" y="0"/>
      <point x="211" y="-2" type="curve"/>
      <point x="214" y="34" type="line"/>
      <point x="195" y="36"/>
      <point x="166" y="42"/>
      <point x="158" y="48" type="curve"/>
      <point x="156" y="54"/>
      <point x="153" y="82"/>
      <point x="153" y="131" type="curve" smooth="yes"/>
      <point x="153" y="233" type="line" smooth="yes"/>
      <point x="153" y="281"/>
      <point x="155" y="311"/>
      <point x="158" y="341" type="curve"/>
      <point x="142" y="354" type="line"/>
      <point x="104" y="341"/>
      <point x="61" y="329"/>
      <point x="16" y="321" type="curve"/>
      <point x="16" y="288" type="line"/>
      <point x="35" y="285"/>
      <point x="55" y="282"/>
      <point x="68" y="276" type="curve"/>
      <point x="71" y="256"/>
      <point x="75" y="232"/>
      <point x="75" y="190" type="curve"/>
      <point x="74" y="130" type="line" smooth="yes"/>
      <point x="73" y="82"/>
      <point x="72" y="53"/>
      <point x="70" y="48" type="curve"/>
      <point x="62" y="42"/>
      <point x="36" y="36"/>
      <point x="17" y="34" type="curve"/>
    </contour>
    <contour>
      <point x="410" y="-2" type="curve"/>
      <point x="411" y="35" type="line"/>
      <point x="398" y="36"/>
      <point x="388" y="38"/>
      <point x="377" y="41" type="curve"/>
      <point x="369" y="48"/>
      <point x="353" y="66"/>
      <point x="335" y="88" type="curve" smooth="yes"/>
      <point x="221" y="223" type="line"/>
      <point x="210" y="189" type="line"/>
      <point x="350" y="305" type="line"/>
      <point x="365" y="309"/>
      <point x="387" y="312"/>
      <point x="403" y="314" type="curve"/>
      <point x="401" y="350" type="line"/>
      <point x="377" y="349"/>
      <point x="343" y="349"/>
      <point x="318" y="349" type="curve" smooth="yes"/>
      <point x="294" y="349"/>
      <point x="257" y="349"/>
      <point x="233" y="349" type="curve"/>
      <point x="232" y="313" type="line"/>
      <point x="245" y="312"/>
      <point x="267" y="309"/>
      <point x="283" y="305" type="curve"/>
      <point x="170" y="194" type="line"/>
      <point x="142" y="187" type="line"/>
      <point x="142" y="161" type="line"/>
      <point x="163" y="161" type="line"/>
      <point x="262" y="51" type="line" smooth="yes"/>
      <point x="277" y="34"/>
      <point x="288" y="17"/>
      <point x="301" y="0" type="curve"/>
      <point x="336" y="0"/>
      <point x="374" y="0"/>
    </contour>
  </outline>
</glyph>
<glyph name="oe" format="1">
  <advance width="648"/>
  <unicode hex="0153"/>
  <outline>
    <contour>
      <point x="213" y="-6" type="curve" smooth="yes"/>
      <point x="309" y="-6"/>
      <point x="369" y="76"/>
      <point x="369" y="178" type="curve" smooth="yes"/>
      <point x="369" y="283"/>
      <point x="308" y="356"/>
      <point x="209" y="356" type="curve" smooth="yes"/>
      <point x="115" y="356"/>
      <point x="35" y="280"/>
      <point x="35" y="172" type="curve" smooth="yes"/>
      <point x="35" y="66"/>
      <point x="107" y="-6"/>
    </contour>
    <contour>
      <point x="222" y="40" type="curve" smooth="yes"/>
      <point x="170" y="40"/>
      <point x="124" y="99"/>
      <point x="124" y="191" type="curve" smooth="yes"/>
      <point x="124" y="273"/>
      <point x="158" y="312"/>
      <point x="208" y="312" type="curve" smooth="yes"/>
      <point x="263" y="312"/>
      <point x="302" y="249"/>
      <point x="302" y="157" type="curve" smooth="yes"/>
      <point x="302" y="80"/>
      <point x="269" y="40"/>
    </contour>
    <contour>
      <point x="474" y="-6" type="curve" smooth="yes"/>
      <point x="532" y="-6"/>
      <point x="583" y="25"/>
      <point x="613" y="87" type="curve"/>
      <point x="591" y="108" type="line"/>
      <point x="562" y="75"/>
      <point x="534" y="63"/>
      <point x="498" y="63" type="curve" smooth="yes"/>
      <point x="432" y="63"/>
      <point x="386" y="113"/>
      <point x="386" y="191" type="curve" smooth="yes"/>
      <point x="386" y="208" type="line" smooth="yes"/>
      <point x="386" y="278"/>
      <point x="422" y="315"/>
      <point x="467" y="315" type="curve" smooth="yes"/>
      <point x="505" y="315"/>
      <point x="536" y="285"/>
      <point x="536" y="228" type="curve" smooth="yes"/>
      <point x="536" y="204" type="line"/>
      <point x="549" y="221" type="line"/>
      <point x="378" y="221" type="line"/>
      <point x="377" y="181" type="line"/>
      <point x="610" y="181" type="line"/>
      <point x="610" y="198" type="line" smooth="yes"/>
      <point x="610" y="295"/>
      <point x="557" y="355"/>
      <point x="475" y="356" type="curve" smooth="yes"/>
      <point x="378" y="356"/>
      <point x="313" y="273"/>
      <point x="313" y="176" type="curve" smooth="yes"/>
      <point x="313" y="67"/>
      <point x="381" y="-6"/>
    </contour>
    <contour>
      <point x="344" y="0" type="move" name="bottom"/>
    </contour>
    <contour>
      <point x="344" y="349" type="move" name="top"/>
    </contour>
  </outline>
</glyph>
<glyph name="Uogonek" format="1">
  <advance width="591"/>
  <unicode hex="0172"/>
  <outline>
    <contour>
      <point x="562" y="529" type="line"/>
      <point x="533" y="528"/>
      <point x="496" y="527"/>
      <point x="470" y="527" type="curve" smooth="yes"/>
      <point x="443" y="527"/>
      <point x="411" y="528"/>
      <point x="382" y="529" type="curve"/>
      <point x="381" y="488" type="line"/>
      <point x="403" y="488"/>
      <point x="430" y="482"/>
      <point x="437" y="476" type="curve"/>
      <point x="440" y="470"/>
      <point x="443" y="423"/>
      <point x="443" y="326" type="curve" smooth="yes"/>
      <point x="443" y="222" type="line" smooth="yes"/>
      <point x="443" y="104"/>
      <point x="392" y="60"/>
      <point x="317" y="60" type="curve" smooth="yes"/>
      <point x="226" y="60"/>
      <point x="178" y="108"/>
      <point x="177" y="218" type="curve" smooth="yes"/>
      <point x="177" y="342" type="line" smooth="yes"/>
      <point x="177" y="433"/>
      <point x="180" y="465"/>
      <point x="184" y="476" type="curve"/>
      <point x="191" y="482"/>
      <point x="218" y="488"/>
      <point x="240" y="488" type="curve"/>
      <point x="238" y="529" type="line"/>
      <point x="209" y="528"/>
      <point x="168" y="527"/>
      <point x="134" y="527" type="curve" smooth="yes"/>
      <point x="101" y="527"/>
      <point x="59" y="528"/>
      <point x="31" y="529" type="curve"/>
      <point x="29" y="488" type="line"/>
      <point x="51" y="488"/>
      <point x="78" y="482"/>
      <point x="85" y="476" type="curve"/>
      <point x="88" y="470"/>
      <point x="91" y="433"/>
      <point x="91" y="342" type="curve" smooth="yes"/>
      <point x="91" y="206" type="line" smooth="yes"/>
      <point x="91" y="69"/>
      <point x="171" y="-8"/>
      <point x="304" y="-8" type="curve" smooth="yes"/>
      <point x="330" y="-8" type="line"/>
      <point x="356" y="18" type="line"/>
      <point x="275" y="-11"/>
      <point x="229" y="-54"/>
      <point x="229" y="-100" type="curve" smooth="yes"/>
      <point x="229" y="-145"/>
      <point x="269" y="-178"/>
      <point x="325" y="-178" type="curve" smooth="yes"/>
      <point x="361" y="-178"/>
      <point x="391" y="-163"/>
      <point x="412" y="-138" type="curve"/>
      <point x="393" y="-110" type="line"/>
      <point x="375" y="-128"/>
      <point x="358" y="-138"/>
      <point x="338" y="-138" type="curve" smooth="yes"/>
      <point x="312" y="-138"/>
      <point x="294" y="-121"/>
      <point x="294" y="-93" type="curve" smooth="yes"/>
      <point x="294" y="-61"/>
      <point x="320" y="-22"/>
      <point x="388" y="8" type="curve" smooth="yes"/>
      <point x="455" y="36"/>
      <point x="501" y="103"/>
      <point x="501" y="215" type="curve" smooth="yes"/>
      <point x="501" y="326" type="line" smooth="yes"/>
      <point x="501" y="423"/>
      <point x="504" y="470"/>
      <point x="508" y="476" type="curve"/>
      <point x="515" y="482"/>
      <point x="548" y="488"/>
      <point x="564" y="488" type="curve"/>
    </contour>
    <contour>
      <point x="311" y="528" type="move" name="top"/>
    </contour>
    <contour>
      <point x="575" y="528" type="move" name="topright"/>
    </contour>
  </outline>
</glyph>
<glyph name="florin" format="1">
  <advance width="310"/>
  <unicode hex="0192"/>
  <outline>
    <contour>
      <point x="63" y="-183" type="curve" smooth="yes"/>
      <point x="128" y="-183"/>
      <point x="187" y="-113"/>
      <point x="187" y="52" type="curve" smooth="yes"/>
      <point x="187" y="300" type="line"/>
      <point x="186" y="348" type="line"/>
      <point x="186" y="411" type="line" smooth="yes"/>
      <point x="186" y="478"/>
      <point x="204" y="508"/>
      <point x="226" y="519" type="curve"/>
      <point x="257" y="490" type="line" smooth="yes"/>
      <point x="271" y="476"/>
      <point x="283" y="470"/>
      <point x="299" y="470" type="curve" smooth="yes"/>
      <point x="317" y="470"/>
      <point x="330" y="481"/>
      <point x="330" y="502" type="curve" smooth="yes"/>
      <point x="330" y="534"/>
      <point x="295" y="558"/>
      <point x="247" y="558" type="curve" smooth="yes"/>
      <point x="169" y="558"/>
      <point x="109" y="488"/>
      <point x="109" y="379" type="curve"/>
      <point x="109" y="-5" type="line"/>
      <point x="109" y="-103"/>
      <point x="93" y="-133"/>
      <point x="84" y="-144" type="curve"/>
      <point x="53" y="-115" type="line" smooth="yes"/>
      <point x="39" y="-101"/>
      <point x="27" y="-95"/>
      <point x="11" y="-95" type="curve" smooth="yes"/>
      <point x="-7" y="-95"/>
      <point x="-20" y="-106"/>
      <point x="-20" y="-127" type="curve" smooth="yes"/>
      <point x="-20" y="-159"/>
      <point x="15" y="-183"/>
    </contour>
    <contour>
      <point x="50" y="300" type="line"/>
      <point x="274" y="300" type="line"/>
      <point x="274" y="348" type="line"/>
      <point x="164" y="348" type="line"/>
      <point x="109" y="350" type="line"/>
      <point x="89" y="343"/>
      <point x="70" y="337"/>
      <point x="50" y="334" type="curve"/>
    </contour>
  </outline>
</glyph>
<glyph name="tildecomb" format="1">
  <advance width="480"/>
  <unicode hex="0303"/>
  <outline>
    <contour>
      <point x="352" y="515" type="line"/>
      <point x="338" y="490"/>
      <point x="325" y="477"/>
      <point x="304" y="477" type="curve" smooth="yes"/>
      <point x="270" y="477"/>
      <point x="224" y="517"/>
      <point x="184" y="517" type="curve" smooth="yes"/>
      <point x="146" y="517"/>
      <point x="114" y="484"/>
      <point x="98" y="429" type="curve"/>
      <point x="128" y="411" type="line"/>
      <point x="142" y="436"/>
      <point x="155" y="449"/>
      <point x="177" y="449" type="curve" smooth="yes"/>
      <point x="210" y="449"/>
      <point x="256" y="409"/>
      <point x="296" y="409" type="curve" smooth="yes"/>
      <point x="334" y="409"/>
      <point x="366" y="442"/>
      <point x="382" y="496" type="curve"/>
    </contour>
    <contour>
      <point x="240" y="349" type="move" name="_top"/>
    </contour>
    <contour>
      <point x="240" y="550" type="move" name="top"/>
    </contour>
  </outline>
</glyph>
<glyph name="dotbelowcomb" format="1">
  <advance width="480"/>
  <unicode hex="0323"/>
  <outline>
    <contour>
      <point x="241" y="-166" type="curve" smooth="yes"/>
      <point x="271" y="-166"/>
      <point x="291" y="-142"/>
      <point x="291" y="-113" type="curve" smooth="yes"/>
      <point x="291" y="-84"/>
      <point x="271" y="-60"/>
      <point x="241" y="-60" type="curve" smooth="yes"/>
      <point x="210" y="-60"/>
      <point x="189" y="-84"/>
      <point x="189" y="-113" type="curve" smooth="yes"/>
      <point x="189" y="-142"/>
      <point x="210" y="-166"/>
    </contour>
    <contour>
      <point x="240" y="0" type="move" name="_bottom"/>
    </contour>
    <contour>
      <point x="240" y="-176" type="move" name="bottom"/>
    </contour>
  </outline>
</glyph>
<glyph name="Delta" format="1">
  <advance width="511"/>
  <unicode hex="0394"/>
  <outline>
    <contour>
      <point x="15" y="0" type="line"/>
      <point x="496" y="0" type="line"/>
      <point x="258" y="546" type="line"/>
    </contour>
    <contour>
      <point x="80" y="26" type="line"/>
      <point x="265" y="432" type="line"/>
      <point x="223" y="412" type="line"/>
      <point x="393" y="26" type="line"/>
      <point x="409" y="67" type="line"/>
      <point x="69" y="67" type="line"/>
    </contour>
  </outline>
</glyph>
<glyph name="Sigma" format="1">
  <advance width="457"/>
  <unicode hex="03A3"/>
  <outline>
    <contour>
      <point x="376" y="166" type="line"/>
      <point x="371" y="132"/>
      <point x="367" y="108"/>
      <point x="362" y="84" type="curve"/>
      <point x="346" y="82"/>
      <point x="328" y="81"/>
      <point x="301" y="81" type="curve" smooth="yes"/>
      <point x="73" y="81" type="line"/>
      <point x="75" y="19" type="line"/>
      <point x="273" y="271" type="line"/>
      <point x="111" y="514" type="line"/>
      <point x="108" y="481" type="line"/>
      <point x="298" y="481" type="line" smooth="yes"/>
      <point x="325" y="481"/>
      <point x="343" y="480"/>
      <point x="359" y="478" type="curve"/>
      <point x="364" y="454"/>
      <point x="368" y="427"/>
      <point x="372" y="386" type="curve"/>
      <point x="414" y="386" type="line"/>
      <point x="415" y="529" type="line"/>
      <point x="388" y="528"/>
      <point x="360" y="528"/>
      <point x="338" y="528" type="curve" smooth="yes"/>
      <point x="90" y="528" type="line" smooth="yes"/>
      <point x="67" y="528"/>
      <point x="44" y="529"/>
      <point x="21" y="530" type="curve"/>
      <point x="21" y="492" type="line"/>
      <point x="207" y="216" type="line"/>
      <point x="213" y="277" type="line"/>
      <point x="25" y="36" type="line"/>
      <point x="25" y="-2" type="line"/>
      <point x="47" y="-1"/>
      <point x="71" y="0"/>
      <point x="94" y="0" type="curve" smooth="yes"/>
      <point x="340" y="0" type="line" smooth="yes"/>
      <point x="362" y="0"/>
      <point x="390" y="0"/>
      <point x="417" y="-1" type="curve"/>
      <point x="416" y="166" type="line"/>
    </contour>
  </outline>
</glyph>
<glyph name="quoteright" format="1">
  <advance width="212"/>
  <unicode hex="2019"/>
  <outline>
    <contour>
      <point x="40" y="274" type="line"/>
      <point x="121" y="311"/>
      <point x="170" y="384"/>
      <point x="170" y="464" type="curve" smooth="yes"/>
      <point x="170" y="531"/>
      <point x="137" y="558"/>
      <point x="105" y="558" type="curve" smooth="yes"/>
      <point x="71" y="558"/>
      <point x="47" y="532"/>
      <point x="47" y="499" type="curve" smooth="yes"/>
      <point x="47" y="442"/>
      <point x="101" y="446"/>
      <point x="101" y="394" type="curve" smooth="yes"/>
      <point x="101" y="358"/>
      <point x="77" y="328"/>
      <point x="27" y="304" type="curve"/>
    </contour>
  </outline>
</glyph>
<glyph name="quotesinglbase" format="1">
  <advance width="212"/>
  <unicode hex="201A"/>
  <outline>
    <contour>
      <point x="40" y="-160" type="line"/>
      <point x="121" y="-123"/>
      <point x="170" y="-50"/>
      <point x="170" y="30" type="curve" smooth="yes"/>
      <point x="170" y="97"/>
      <point x="137" y="124"/>
      <point x="105" y="124" type="curve" smooth="yes"/>
      <point x="71" y="124"/>
      <point x="47" y="98"/>
      <point x="47" y="65" type="curve" smooth="yes"/>
      <point x="47" y="8"/>
      <point x="101" y="12"/>
      <point x="101" y="-40" type="curve" smooth="yes"/>
      <point x="101" y="-76"/>
      <point x="77" y="-106"/>
      <point x="27" y="-130" type="curve"/>
    </contour>
  </outline>
</glyph>
<glyph name="dagger" format="1">
  <advance width="382"/>
  <unicode hex="2020"/>
  <outline>
    <contour>
      <point x="311" y="431" type="curve" smooth="yes"/>
      <point x="281" y="431"/>
      <point x="239" y="413"/>
      <point x="206" y="407" type="curve"/>
      <point x="211" y="440"/>
      <point x="228" y="484"/>
      <point x="228" y="513" type="curve" smooth="yes"/>
      <point x="228" y="544"/>
      <point x="212" y="558"/>
      <point x="191" y="558" type="curve" smooth="yes"/>
      <point x="170" y="558"/>
      <point x="154" y="544"/>
      <point x="154" y="513" type="curve" smooth="yes"/>
      <point x="154" y="484"/>
      <point x="171" y="440"/>
      <point x="175" y="407" type="curve"/>
      <point x="143" y="413"/>
      <point x="101" y="431"/>
      <point x="71" y="431" type="curve" smooth="yes"/>
      <point x="43" y="431"/>
      <point x="30" y="413"/>
      <point x="30" y="389" type="curve" smooth="yes"/>
      <point x="30" y="365"/>
      <point x="43" y="347"/>
      <point x="71" y="347" type="curve" smooth="yes"/>
      <point x="100" y="347"/>
      <point x="142" y="364"/>
      <point x="174" y="371" type="curve"/>
      <point x="166" y="343"/>
      <point x="158" y="316"/>
      <point x="146" y="281" type="curve"/>
      <point x="165" y="163"/>
      <point x="171" y="88"/>
      <point x="177" y="0" type="curve"/>
      <point x="206" y="0" type="line"/>
      <point x="213" y="88"/>
      <point x="216" y="163"/>
      <point x="236" y="281" type="curve"/>
      <point x="224" y="316"/>
      <point x="216" y="343"/>
      <point x="208" y="371" type="curve"/>
      <point x="240" y="364"/>
      <point x="281" y="347"/>
      <point x="311" y="347" type="curve" smooth="yes"/>
      <point x="338" y="347"/>
      <point x="352" y="365"/>
      <point x="352" y="389" type="curve" smooth="yes"/>
      <point x="352" y="413"/>
      <point x="338" y="431"/>
    </contour>
  </outline>
</glyph>
<glyph name="bullet" format="1">
  <advance width="336"/>
  <unicode hex="2022"/>
  <outline>
    <contour>
      <point x="168" y="53" type="curve" smooth="yes"/>
      <point x="237" y="53"/>
      <point x="292" y="106"/>
      <point x="292" y="174" type="curve" smooth="yes"/>
      <point x="292" y="244"/>
      <point x="237" y="299"/>
      <point x="168" y="299" type="curve" smooth="yes"/>
      <point x="100" y="299"/>
      <point x="44" y="244"/>
      <point x="44" y="174" type="curve" smooth="yes"/>
      <point x="44" y="106"/>
      <point x="100" y="53"/>
    </contour>
  </outline>
</glyph>
<glyph name="guilsinglleft" format="1">
  <advance width="310"/>
  <unicode hex="2039"/>
  <outline>
    <contour>
      <point x="258" y="309" type="line"/>
      <point x="233" y="340" type="line"/>
      <point x="62" y="197" type="line"/>
      <point x="62" y="159" type="line"/>
      <point x="233" y="16" type="line"/>
      <point x="258" y="47" type="line"/>
      <point x="125" y="209" type="line"/>
      <point x="125" y="147" type="line"/>
    </contour>
  </outline>
</glyph>
<glyph name="dong" format="1">
  <advance width="446"/>
  <unicode hex="20AB"/>
  <outline>
    <contour>
      <point x="49" y="-87" type="line"/>
      <point x="429" y="-87" type="line"/>
      <point x="429" y="-48" type="line"/>
      <point x="49" y="-48" type="line"/>
    </contour>
    <component base="dcroat"/>
  </outline>
</glyph>
<glyph name="partialdiff" format="1">
  <advance width="467"/>
  <unicode hex="2202"/>
  <outline>
    <contour>
      <point x="233" y="-7" type="curve" smooth="yes"/>
      <point x="346" y="-8"/>
      <point x="416" y="89"/>
      <point x="416" y="255" type="curve" smooth="yes"/>
      <point x="416" y="457"/>
      <point x="312" y="562"/>
      <point x="168" y="562" type="curve" smooth="yes"/>
      <point x="148" y="562"/>
      <point x="131" y="560"/>
      <point x="112" y="558" type="curve"/>
      <point x="112" y="516" type="line"/>
      <point x="141" y="516" type="line" smooth="yes"/>
      <point x="250" y="516"/>
      <point x="326" y="451"/>
      <point x="327" y="282" type="curve"/>
      <point x="337" y="281" type="line"/>
      <point x="313" y="335"/>
      <point x="269" y="358"/>
      <point x="216" y="358" type="curve" smooth="yes"/>
      <point x="122" y="358"/>
      <point x="50" y="284"/>
      <point x="50" y="174" type="curve" smooth="yes"/>
      <point x="50" y="62"/>
      <point x="123" y="-7"/>
    </contour>
    <contour>
      <point x="238" y="35" type="curve" smooth="yes"/>
      <point x="182" y="35"/>
      <point x="139" y="92"/>
      <point x="137" y="186" type="curve" smooth="yes"/>
      <point x="134" y="263"/>
      <point x="171" y="310"/>
      <point x="224" y="310" type="curve" smooth="yes"/>
      <point x="278" y="310"/>
      <point x="322" y="256"/>
      <point x="325" y="164" type="curve" smooth="yes"/>
      <point x="328" y="85"/>
      <point x="291" y="35"/>
    </contour>
  </outline>
</glyph>
<glyph name="summation" format="1">
  <advance width="457"/>
  <unicode hex="2211"/>
  <outline>
    <contour>
      <point x="376" y="-10" type="line"/>
      <point x="371" y="-44"/>
      <point x="367" y="-68"/>
      <point x="362" y="-92" type="curve"/>
      <point x="346" y="-94"/>
      <point x="328" y="-95"/>
      <point x="301" y="-95" type="curve" smooth="yes"/>
      <point x="73" y="-95" type="line"/>
      <point x="77" y="-157" type="line"/>
      <point x="297" y="183" type="line"/>
      <point x="113" y="514" type="line"/>
      <point x="108" y="481" type="line"/>
      <point x="298" y="481" type="line" smooth="yes"/>
      <point x="325" y="481"/>
      <point x="343" y="480"/>
      <point x="359" y="478" type="curve"/>
      <point x="364" y="454"/>
      <point x="368" y="427"/>
      <point x="372" y="386" type="curve"/>
      <point x="414" y="386" type="line"/>
      <point x="415" y="529" type="line"/>
      <point x="388" y="528"/>
      <point x="360" y="528"/>
      <point x="338" y="528" type="curve" smooth="yes"/>
      <point x="90" y="528" type="line" smooth="yes"/>
      <point x="67" y="528"/>
      <point x="44" y="529"/>
      <point x="21" y="530" type="curve"/>
      <point x="21" y="492" type="line"/>
      <point x="228" y="128" type="line"/>
      <point x="235" y="191" type="line"/>
      <point x="25" y="-140" type="line"/>
      <point x="25" y="-178" type="line"/>
      <point x="47" y="-177"/>
      <point x="71" y="-176"/>
      <point x="94" y="-176" type="curve" smooth="yes"/>
      <point x="340" y="-176" type="line" smooth="yes"/>
      <point x="362" y="-176"/>
      <point x="390" y="-176"/>
      <point x="417" y="-177" type="curve"/>
      <point x="416" y="-10" type="line"/>
    </contour>
  </outline>
</glyph>
<glyph name="minus" format="1">
  <advance width="480"/>
  <unicode hex="2212"/>
  <outline>
    <contour>
      <point x="435" y="261" type="line"/>
      <point x="45" y="261" type="line"/>
      <point x="45" y="196" type="line"/>
      <point x="435" y="196" type="line"/>
    </contour>
  </outline>
</glyph>
<glyph name="radical" format="1">
  <advance width="426"/>
  <unicode hex="221A"/>
  <outline>
    <contour>
      <point x="206" y="-3" type="line"/>
      <point x="238" y="-3" type="line"/>
      <point x="428" y="528" type="line"/>
      <point x="369" y="528" type="line"/>
      <point x="226" y="92" type="line"/>
      <point x="257" y="92" type="line"/>
      <point x="173" y="297" type="line" smooth="yes"/>
      <point x="164" y="319"/>
      <point x="160" y="334"/>
      <point x="155" y="351" type="curve"/>
      <point x="123" y="349"/>
      <point x="64" y="349"/>
      <point x="31" y="350" type="curve"/>
      <point x="29" y="314" type="line"/>
      <point x="50" y="312"/>
      <point x="66" y="308"/>
      <point x="77" y="304" type="curve"/>
    </contour>
  </outline>
</glyph>
<glyph name="integral" format="1">
  <advance width="480"/>
  <unicode hex="222B"/>
  <outline>
    <contour>
      <point x="346" y="558" type="curve" smooth="yes"/>
      <point x="255" y="558"/>
      <point x="200" y="513"/>
      <point x="200" y="406" type="curve" smooth="yes"/>
      <point x="200" y="-52" type="line" smooth="yes"/>
      <point x="200" y="-114"/>
      <point x="181" y="-134"/>
      <point x="131" y="-134" type="curve" smooth="yes"/>
      <point x="118" y="-134"/>
      <point x="109" y="-133"/>
      <point x="103" y="-132" type="curve"/>
      <point x="103" y="-180" type="line"/>
      <point x="112" y="-182"/>
      <point x="124" y="-183"/>
      <point x="139" y="-183" type="curve" smooth="yes"/>
      <point x="226" y="-183"/>
      <point x="280" y="-144"/>
      <point x="280" y="-32" type="curve" smooth="yes"/>
      <point x="280" y="426" type="line" smooth="yes"/>
      <point x="280" y="484"/>
      <point x="301" y="508"/>
      <point x="354" y="508" type="curve" smooth="yes"/>
      <point x="368" y="508"/>
      <point x="378" y="508"/>
      <point x="382" y="507" type="curve"/>
      <point x="382" y="554" type="line"/>
      <point x="375" y="557"/>
      <point x="363" y="558"/>
    </contour>
  </outline>
</glyph>
<glyph name="notequal" format="1">
  <advance width="480"/>
  <unicode hex="2260"/>
  <outline>
    <contour>
      <point x="293" y="447" type="line"/>
      <point x="123" y="35" type="line"/>
      <point x="177" y="10" type="line"/>
      <point x="347" y="422" type="line"/>
    </contour>
    <contour>
      <point x="435" y="341" type="line"/>
      <point x="45" y="341" type="line"/>
      <point x="45" y="276" type="line"/>
      <point x="435" y="276" type="line"/>
    </contour>
    <contour>
      <point x="435" y="181" type="line"/>
      <point x="45" y="181" type="line"/>
      <point x="45" y="116" type="line"/>
      <point x="435" y="116" type="line"/>
    </contour>
  </outline>
</glyph>
<glyph name="Germandbls" format="1">
  <advance width="618"/>
  <outline>
    <contour>
      <point x="34" y="-3" type="line"/>
      <point x="62" y="-1"/>
      <point x="100" y="2"/>
      <point x="134" y="2" type="curve" smooth="yes"/>
      <point x="166" y="2"/>
      <point x="206" y="-1"/>
      <point x="232" y="-3" type="curve"/>
      <point x="233" y="38" type="line"/>
      <point x="214" y="39"/>
      <point x="189" y="46"/>
      <point x="183" y="51" type="curve"/>
      <point x="180" y="57"/>
      <point x="177" y="94"/>
      <point x="177" y="185" type="curve"/>
      <point x="176" y="336" type="line"/>
      <point x="176" y="435"/>
      <point x="225" y="488"/>
      <point x="304" y="488" type="curve" smooth="yes"/>
      <point x="358" y="488"/>
      <point x="398" y="466"/>
      <point x="415" y="420" type="curve"/>
      <point x="475" y="420" type="line"/>
      <point x="443" y="502"/>
      <point x="379" y="537"/>
      <point x="302" y="537" type="curve" smooth="yes"/>
      <point x="174" y="537"/>
      <point x="91" y="449"/>
      <point x="91" y="315" type="curve"/>
      <point x="92" y="185" type="line"/>
      <point x="92" y="94"/>
      <point x="89" y="57"/>
      <point x="86" y="51" type="curve"/>
      <point x="79" y="46"/>
      <point x="54" y="40"/>
      <point x="32" y="38" type="curve"/>
    </contour>
    <contour>
      <point x="423" y="-8" type="curve" smooth="yes"/>
      <point x="523" y="-8"/>
      <point x="594" y="44"/>
      <point x="594" y="123" type="curve" smooth="yes"/>
      <point x="594" y="267"/>
      <point x="369" y="244"/>
      <point x="369" y="337" type="curve" smooth="yes"/>
      <point x="369" y="374"/>
      <point x="401" y="398"/>
      <point x="454" y="398" type="curve" smooth="yes"/>
      <point x="473" y="398"/>
      <point x="489" y="397"/>
      <point x="505" y="391" type="curve"/>
      <point x="515" y="369"/>
      <point x="520" y="346"/>
      <point x="527" y="319" type="curve"/>
      <point x="568" y="323" type="line"/>
      <point x="561" y="426" type="line"/>
      <point x="534" y="436"/>
      <point x="490" y="442"/>
      <point x="455" y="442" type="curve" smooth="yes"/>
      <point x="352" y="442"/>
      <point x="285" y="384"/>
      <point x="285" y="310" type="curve" smooth="yes"/>
      <point x="285" y="163"/>
      <point x="509" y="197"/>
      <point x="509" y="97" type="curve" smooth="yes"/>
      <point x="509" y="60"/>
      <point x="477" y="39"/>
      <point x="430" y="39" type="curve" smooth="yes"/>
      <point x="402" y="39"/>
      <point x="371" y="46"/>
      <point x="346" y="62" type="curve"/>
      <point x="337" y="85"/>
      <point x="330" y="111"/>
      <point x="322" y="141" type="curve"/>
      <point x="280" y="135" type="line"/>
      <point x="280" y="102"/>
      <point x="282" y="61"/>
      <point x="285" y="22" type="curve"/>
      <point x="319" y="4"/>
      <point x="374" y="-8"/>
    </contour>
  </outline>
</glyph>
<glyph name="Ohm" format="1">
  <advance width="640"/>
  <outline>
    <contour>
      <point x="42" y="-5" type="line"/>
      <point x="64" y="-2"/>
      <point x="98" y="0"/>
      <point x="139" y="0" type="curve" smooth="yes"/>
      <point x="272" y="0" type="line"/>
      <point x="277" y="39" type="line"/>
      <point x="205" y="111"/>
      <point x="162" y="203"/>
      <point x="162" y="288" type="curve" smooth="yes"/>
      <point x="162" y="411"/>
      <point x="222" y="485"/>
      <point x="320" y="485" type="curve" smooth="yes"/>
      <point x="417" y="485"/>
      <point x="477" y="411"/>
      <point x="477" y="288" type="curve" smooth="yes"/>
      <point x="477" y="203"/>
      <point x="435" y="111"/>
      <point x="363" y="39" type="curve"/>
      <point x="367" y="0" type="line"/>
      <point x="500" y="0" type="line" smooth="yes"/>
      <point x="542" y="0"/>
      <point x="576" y="-2"/>
      <point x="597" y="-5" type="curve"/>
      <point x="636" y="140" type="line"/>
      <point x="592" y="150" type="line"/>
      <point x="572" y="109"/>
      <point x="557" y="78"/>
      <point x="545" y="58" type="curve"/>
      <point x="528" y="56"/>
      <point x="514" y="54"/>
      <point x="481" y="54" type="curve" smooth="yes"/>
      <point x="410" y="54" type="line"/>
      <point x="418" y="40" type="line"/>
      <point x="516" y="102"/>
      <point x="580" y="205"/>
      <point x="580" y="302" type="curve" smooth="yes"/>
      <point x="580" y="435"/>
      <point x="472" y="536"/>
      <point x="320" y="536" type="curve" smooth="yes"/>
      <point x="168" y="536"/>
      <point x="60" y="435"/>
      <point x="60" y="302" type="curve" smooth="yes"/>
      <point x="60" y="205"/>
      <point x="124" y="107"/>
      <point x="222" y="40" type="curve"/>
      <point x="230" y="54" type="line"/>
      <point x="159" y="54" type="line" smooth="yes"/>
      <point x="126" y="54"/>
      <point x="111" y="56"/>
      <point x="95" y="58" type="curve"/>
      <point x="83" y="78"/>
      <point x="68" y="109"/>
      <point x="48" y="150" type="curve"/>
      <point x="4" y="140" type="line"/>
    </contour>
  </outline>
</glyph>
<glyph name="Schwa" format="1">
  <advance width="583"/>
  <outline>
    <contour>
      <point x="282" y="536" type="curve" smooth="yes"/>
      <point x="181" y="536"/>
      <point x="92" y="482"/>
      <point x="49" y="394" type="curve"/>
      <point x="78" y="370" type="line"/>
      <point x="119" y="418"/>
      <point x="177" y="443"/>
      <point x="246" y="443" type="curve" smooth="yes"/>
      <point x="364" y="443"/>
      <point x="439" y="367"/>
      <point x="439" y="242" type="curve" smooth="yes"/>
      <point x="439" y="220" type="line" smooth="yes"/>
      <point x="439" y="111"/>
      <point x="385" y="46"/>
      <point x="297" y="46" type="curve" smooth="yes"/>
      <point x="208" y="46"/>
      <point x="154" y="101"/>
      <point x="154" y="189" type="curve" smooth="yes"/>
      <point x="154" y="221" type="line"/>
      <point x="136" y="201" type="line"/>
      <point x="476" y="201" type="line"/>
      <point x="476" y="255" type="line"/>
      <point x="45" y="255" type="line"/>
      <point x="45" y="230" type="line" smooth="yes"/>
      <point x="45" y="85"/>
      <point x="140" y="-8"/>
      <point x="291" y="-8" type="curve" smooth="yes"/>
      <point x="434" y="-8"/>
      <point x="538" y="112"/>
      <point x="538" y="274" type="curve" smooth="yes"/>
      <point x="538" y="427"/>
      <point x="433" y="536"/>
    </contour>
    <contour>
      <point x="292" y="0" type="move" name="bottom"/>
    </contour>
    <contour>
      <point x="292" y="528" type="move" name="top"/>
    </contour>
  </outline>
</glyph>
<glyph name="T_h" format="1">
  <advance width="861"/>
  <outline>
    <contour>
      <point x="795" y="48" type="curve"/>
      <point x="793" y="54"/>
      <point x="790" y="81"/>
      <point x="790" y="129" type="curve" smooth="yes"/>
      <point x="790" y="213" type="line" smooth="yes"/>
      <point x="790" y="306"/>
      <point x="735" y="356"/>
      <point x="673" y="356" type="curve" smooth="yes"/>
      <point x="630" y="356"/>
      <point x="593" y="337"/>
      <point x="558" y="297" type="curve"/>
      <point x="556" y="298" type="line"/>
      <point x="557" y="424"/>
      <point x="558" y="469"/>
      <point x="560" y="534" type="curve"/>
      <point x="532" y="531"/>
      <point x="497" y="528"/>
      <point x="465" y="528" type="curve" smooth="yes"/>
      <point x="124" y="528" type="line" smooth="yes"/>
      <point x="95" y="528"/>
      <point x="56" y="530"/>
      <point x="28" y="532" type="curve"/>
      <point x="22" y="482"/>
      <point x="16" y="431"/>
      <point x="9" y="381" type="curve"/>
      <point x="53" y="376" type="line"/>
      <point x="66" y="420"/>
      <point x="80" y="459"/>
      <point x="90" y="479" type="curve"/>
      <point x="101" y="481"/>
      <point x="112" y="482"/>
      <point x="124" y="482" type="curve" smooth="yes"/>
      <point x="158" y="482" type="line" smooth="yes"/>
      <point x="178" y="482"/>
      <point x="192" y="481"/>
      <point x="206" y="479" type="curve"/>
      <point x="207" y="467"/>
      <point x="208" y="382"/>
      <point x="208" y="313" type="curve" smooth="yes"/>
      <point x="208" y="204" type="line" smooth="yes"/>
      <point x="208" y="130"/>
      <point x="204" y="71"/>
      <point x="203" y="51" type="curve"/>
      <point x="184" y="46"/>
      <point x="144" y="41"/>
      <point x="127" y="39" type="curve"/>
      <point x="129" y="-3" type="line"/>
      <point x="160" y="-1"/>
      <point x="221" y="1"/>
      <point x="251" y="1" type="curve" smooth="yes"/>
      <point x="281" y="1"/>
      <point x="339" y="-1"/>
      <point x="368" y="-3" type="curve"/>
      <point x="370" y="39" type="line"/>
      <point x="354" y="41"/>
      <point x="317" y="46"/>
      <point x="299" y="51" type="curve"/>
      <point x="297" y="71"/>
      <point x="294" y="130"/>
      <point x="294" y="204" type="curve" smooth="yes"/>
      <point x="294" y="313" type="line" smooth="yes"/>
      <point x="294" y="382"/>
      <point x="295" y="467"/>
      <point x="296" y="479" type="curve"/>
      <point x="310" y="481"/>
      <point x="325" y="482"/>
      <point x="344" y="482" type="curve" smooth="yes"/>
      <point x="432" y="482" type="line" smooth="yes"/>
      <point x="448" y="482"/>
      <point x="464" y="479"/>
      <point x="475" y="477" type="curve"/>
      <point x="477" y="455"/>
      <point x="479" y="380"/>
      <point x="479" y="289" type="curve" smooth="yes"/>
      <point x="479" y="188" type="line" smooth="yes"/>
      <point x="479" y="95"/>
      <point x="476" y="53"/>
      <point x="474" y="48" type="curve"/>
      <point x="467" y="42"/>
      <point x="440" y="36"/>
      <point x="423" y="34" type="curve"/>
      <point x="426" y="-2" type="line"/>
      <point x="454" y="0"/>
      <point x="490" y="2"/>
      <point x="519" y="2" type="curve" smooth="yes"/>
      <point x="547" y="2"/>
      <point x="585" y="0"/>
      <point x="613" y="-2" type="curve"/>
      <point x="615" y="34" type="line"/>
      <point x="599" y="36"/>
      <point x="570" y="42"/>
      <point x="561" y="48" type="curve"/>
      <point x="560" y="54"/>
      <point x="557" y="82"/>
      <point x="557" y="131" type="curve" smooth="yes"/>
      <point x="557" y="250" type="line"/>
      <point x="578" y="276"/>
      <point x="607" y="289"/>
      <point x="637" y="289" type="curve" smooth="yes"/>
      <point x="676" y="289"/>
      <point x="712" y="263"/>
      <point x="712" y="201" type="curve" smooth="yes"/>
      <point x="712" y="127" type="line" smooth="yes"/>
      <point x="712" y="82"/>
      <point x="710" y="54"/>
      <point x="708" y="48" type="curve"/>
      <point x="700" y="42"/>
      <point x="674" y="36"/>
      <point x="659" y="34" type="curve"/>
      <point x="661" y="-2" type="line"/>
      <point x="689" y="0"/>
      <point x="724" y="2"/>
      <point x="752" y="2" type="curve" smooth="yes"/>
      <point x="781" y="2"/>
      <point x="818" y="0"/>
      <point x="846" y="-2" type="curve"/>
      <point x="849" y="34" type="line"/>
      <point x="832" y="36"/>
      <point x="803" y="42"/>
    </contour>
  </outline>
</glyph>
<glyph name="acutecomb.case" format="1">
  <advance width="480"/>
  <outline>
    <contour>
      <point x="260" y="565" type="line"/>
      <point x="361" y="667" type="line"/>
      <point x="285" y="686" type="line"/>
      <point x="220" y="580" type="line"/>
    </contour>
    <contour>
      <point x="240" y="528" type="move" name="_top"/>
    </contour>
    <contour>
      <point x="240" y="696" type="move" name="top"/>
    </contour>
  </outline>
</glyph>
<glyph name="acutecomb_dotaccentcomb.case" format="1">
  <advance width="480"/>
  <outline>
    <contour>
      <point x="230" y="685" type="curve" smooth="yes"/>
      <point x="257" y="685"/>
      <point x="275" y="707"/>
      <point x="275" y="733" type="curve" smooth="yes"/>
      <point x="275" y="758"/>
      <point x="257" y="781"/>
      <point x="230" y="781" type="curve" smooth="yes"/>
      <point x="201" y="781"/>
      <point x="182" y="758"/>
      <point x="182" y="733" type="curve" smooth="yes"/>
      <point x="182" y="707"/>
      <point x="201" y="685"/>
    </contour>
    <contour>
      <point x="260" y="565" type="line"/>
      <point x="361" y="667" type="line"/>
      <point x="284" y="686" type="line"/>
      <point x="220" y="580" type="line"/>
    </contour>
    <contour>
      <point x="240" y="528" type="move" name="_top"/>
    </contour>
  </outline>
</glyph>
<glyph name="apostrophemod" format="1">
  <advance width="480"/>
  <outline>
    <contour>
      <point x="201" y="411" type="line"/>
      <point x="269" y="429"/>
      <point x="307" y="479"/>
      <point x="307" y="525" type="curve" smooth="yes"/>
      <point x="307" y="566"/>
      <point x="283" y="585"/>
      <point x="252" y="585" type="curve" smooth="yes"/>
      <point x="227" y="585"/>
      <point x="208" y="567"/>
      <point x="208" y="545" type="curve" smooth="yes"/>
      <point x="208" y="500"/>
      <point x="251" y="508"/>
      <point x="251" y="482" type="curve" smooth="yes"/>
      <point x="251" y="466"/>
      <point x="233" y="448"/>
      <point x="190" y="437" type="curve"/>
    </contour>
    <contour>
      <point x="240" y="349" type="move" name="_top"/>
    </contour>
    <contour>
      <point x="240" y="531" type="move" name="top"/>
    </contour>
  </outline>
</glyph>
<glyph name="brevecomb.case" format="1">
  <advance width="480"/>
  <outline>
    <contour>
      <point x="342" y="681" type="line"/>
      <point x="332" y="652"/>
      <point x="295" y="633"/>
      <point x="243" y="633" type="curve" smooth="yes"/>
      <point x="190" y="633"/>
      <point x="153" y="652"/>
      <point x="142" y="681" type="curve"/>
      <point x="100" y="666" type="line"/>
      <point x="112" y="609"/>
      <point x="168" y="573"/>
      <point x="241" y="573" type="curve" smooth="yes"/>
      <point x="314" y="573"/>
      <point x="368" y="609"/>
      <point x="380" y="666" type="curve"/>
    </contour>
    <contour>
      <point x="240" y="528" type="move" name="_top"/>
    </contour>
    <contour>
      <point x="240" y="696" type="move" name="top"/>
    </contour>
  </outline>
</glyph>
<glyph name="brevecomb_hookabovecomb.case" format="1">
  <advance width="480"/>
  <outline>
    <contour>
      <point x="242" y="780" type="curve" smooth="yes"/>
      <point x="194" y="780"/>
      <point x="163" y="759"/>
      <point x="163" y="735" type="curve" smooth="yes"/>
      <point x="163" y="722"/>
      <point x="172" y="714"/>
      <point x="186" y="714" type="curve" smooth="yes"/>
      <point x="199" y="714"/>
      <point x="205" y="718"/>
      <point x="216" y="729" type="curve" smooth="yes"/>
      <point x="246" y="761" type="line"/>
      <point x="215" y="750" type="line"/>
      <point x="242" y="757"/>
      <point x="261" y="754"/>
      <point x="261" y="732" type="curve" smooth="yes"/>
      <point x="261" y="710"/>
      <point x="225" y="696"/>
      <point x="225" y="667" type="curve" smooth="yes"/>
      <point x="225" y="655" type="line"/>
      <point x="255" y="655" type="line"/>
      <point x="255" y="684"/>
      <point x="322" y="685"/>
      <point x="322" y="730" type="curve" smooth="yes"/>
      <point x="322" y="762"/>
      <point x="290" y="780"/>
    </contour>
    <contour>
      <point x="241" y="573" type="curve" smooth="yes"/>
      <point x="314" y="573"/>
      <point x="368" y="609"/>
      <point x="380" y="666" type="curve"/>
      <point x="342" y="681" type="line"/>
      <point x="332" y="652"/>
      <point x="295" y="633"/>
      <point x="243" y="633" type="curve" smooth="yes"/>
      <point x="190" y="633"/>
      <point x="153" y="652"/>
      <point x="142" y="681" type="curve"/>
      <point x="100" y="666" type="line"/>
      <point x="112" y="609"/>
      <point x="168" y="573"/>
    </contour>
    <contour>
      <point x="240" y="528" type="move" name="_top"/>
    </contour>
  </outline>
</glyph>
<glyph name="brevecomb_tildecomb" format="1">
  <advance width="480"/>
  <outline>
    <contour>
      <point x="241" y="394" type="curve" smooth="yes"/>
      <point x="308" y="394"/>
      <point x="350" y="437"/>
      <point x="356" y="498" type="curve"/>
      <point x="318" y="512" type="line"/>
      <point x="311" y="478"/>
      <point x="283" y="455"/>
      <point x="242" y="455" type="curve" smooth="yes"/>
      <point x="203" y="455"/>
      <point x="175" y="478"/>
      <point x="166" y="512" type="curve"/>
      <point x="124" y="498" type="line"/>
      <point x="130" y="437"/>
      <point x="177" y="394"/>
    </contour>
    <contour>
      <point x="289" y="531" type="curve" smooth="yes"/>
      <point x="324" y="531"/>
      <point x="351" y="562"/>
      <point x="366" y="613" type="curve"/>
      <point x="339" y="630" type="line"/>
      <point x="326" y="606"/>
      <point x="314" y="594"/>
      <point x="296" y="594" type="curve" smooth="yes"/>
      <point x="266" y="594"/>
      <point x="226" y="632"/>
      <point x="191" y="632" type="curve" smooth="yes"/>
      <point x="156" y="632"/>
      <point x="129" y="602"/>
      <point x="114" y="551" type="curve"/>
      <point x="141" y="534" type="line"/>
      <point x="153" y="557"/>
      <point x="165" y="569"/>
      <point x="184" y="569" type="curve" smooth="yes"/>
      <point x="213" y="569"/>
      <point x="254" y="531"/>
    </contour>
    <contour>
      <point x="240" y="349" type="move" name="_top"/>
    </contour>
  </outline>
</glyph>
<glyph name="breveinvertedcomb.case" format="1">
  <advance width="480"/>
  <outline>
    <contour>
      <point x="138" y="569" type="line"/>
      <point x="148" y="598"/>
      <point x="185" y="617"/>
      <point x="237" y="617" type="curve" smooth="yes"/>
      <point x="290" y="617"/>
      <point x="327" y="598"/>
      <point x="338" y="569" type="curve"/>
      <point x="380" y="583" type="line"/>
      <point x="368" y="641"/>
      <point x="312" y="677"/>
      <point x="239" y="677" type="curve" smooth="yes"/>
      <point x="166" y="677"/>
      <point x="112" y="641"/>
      <point x="100" y="583" type="curve"/>
    </contour>
    <contour>
      <point x="240" y="528" type="move" name="_top"/>
    </contour>
    <contour>
      <point x="240" y="696" type="move" name="top"/>
    </contour>
  </outline>
</glyph>
<glyph name="caroncomb.alt.t" format="1">
  <advance width="480"/>
  <outline>
    <contour>
      <point x="224" y="384" type="line"/>
      <point x="274" y="410"/>
      <point x="306" y="454"/>
      <point x="306" y="497" type="curve" smooth="yes"/>
      <point x="306" y="535"/>
      <point x="282" y="554"/>
      <point x="251" y="554" type="curve" smooth="yes"/>
      <point x="227" y="554"/>
      <point x="208" y="537"/>
      <point x="208" y="514" type="curve" smooth="yes"/>
      <point x="208" y="471"/>
      <point x="248" y="480"/>
      <point x="248" y="455" type="curve" smooth="yes"/>
      <point x="248" y="441"/>
      <point x="238" y="424"/>
      <point x="210" y="407" type="curve"/>
    </contour>
    <contour>
      <point x="208" y="550" type="move" name="_topright"/>
    </contour>
  </outline>
</glyph>
<glyph name="caroncomb.case" format="1">
  <advance width="480"/>
  <outline>
    <contour>
      <point x="97" y="658" type="line"/>
      <point x="205" y="575" type="line"/>
      <point x="275" y="575" type="line"/>
      <point x="383" y="658" type="line"/>
      <point x="350" y="681" type="line"/>
      <point x="215" y="613" type="line"/>
      <point x="265" y="613" type="line"/>
      <point x="130" y="681" type="line"/>
    </contour>
    <contour>
      <point x="240" y="528" type="move" name="_top"/>
    </contour>
    <contour>
      <point x="240" y="694" type="move" name="top"/>
    </contour>
  </outline>
</glyph>
<glyph name="caroncomb_dotaccentcomb.case" format="1">
  <advance width="480"/>
  <outline>
    <contour>
      <point x="241" y="685" type="curve" smooth="yes"/>
      <point x="268" y="685"/>
      <point x="286" y="707"/>
      <point x="286" y="733" type="curve" smooth="yes"/>
      <point x="286" y="758"/>
      <point x="268" y="781"/>
      <point x="241" y="781" type="curve" smooth="yes"/>
      <point x="212" y="781"/>
      <point x="194" y="758"/>
      <point x="194" y="733" type="curve" smooth="yes"/>
      <point x="194" y="707"/>
      <point x="212" y="685"/>
    </contour>
    <contour>
      <point x="97" y="658" type="line"/>
      <point x="205" y="575" type="line"/>
      <point x="275" y="575" type="line"/>
      <point x="383" y="658" type="line"/>
      <point x="350" y="681" type="line"/>
      <point x="215" y="613" type="line"/>
      <point x="265" y="613" type="line"/>
      <point x="130" y="681" type="line"/>
    </contour>
    <contour>
      <point x="240" y="528" type="move" name="_top"/>
    </contour>
  </outline>
</glyph>
<glyph name="caroncomb_dotaccentcomb" format="1">
  <advance width="480"/>
  <outline>
    <contour>
      <point x="359" y="527" type="line"/>
      <point x="321" y="542" type="line"/>
      <point x="216" y="428" type="line"/>
      <point x="266" y="428" type="line"/>
      <point x="159" y="542" type="line"/>
      <point x="121" y="527" type="line"/>
      <point x="205" y="396" type="line"/>
      <point x="275" y="396" type="line"/>
    </contour>
    <contour>
      <point x="241" y="535" type="curve" smooth="yes"/>
      <point x="268" y="535"/>
      <point x="286" y="557"/>
      <point x="286" y="583" type="curve" smooth="yes"/>
      <point x="286" y="608"/>
      <point x="268" y="631"/>
      <point x="241" y="631" type="curve" smooth="yes"/>
      <point x="212" y="631"/>
      <point x="194" y="608"/>
      <point x="194" y="583" type="curve" smooth="yes"/>
      <point x="194" y="557"/>
      <point x="212" y="535"/>
    </contour>
    <contour>
      <point x="240" y="349" type="move" name="_top"/>
    </contour>
  </outline>
</glyph>
<glyph name="circumflexcomb.case" format="1">
  <advance width="480"/>
  <outline>
    <contour>
      <point x="383" y="591" type="line"/>
      <point x="275" y="674" type="line"/>
      <point x="205" y="674" type="line"/>
      <point x="97" y="591" type="line"/>
      <point x="130" y="569" type="line"/>
      <point x="265" y="637" type="line"/>
      <point x="215" y="637" type="line"/>
      <point x="350" y="569" type="line"/>
    </contour>
    <contour>
      <point x="240" y="528" type="move" name="_top"/>
    </contour>
    <contour>
      <point x="240" y="694" type="move" name="top"/>
    </contour>
  </outline>
</glyph>
<glyph name="circumflexcomb_acutecomb.case" format="1">
  <advance width="480"/>
  <outline>
    <contour>
      <point x="349" y="657" type="line"/>
      <point x="443" y="762" type="line"/>
      <point x="366" y="781" type="line"/>
      <point x="311" y="672" type="line"/>
    </contour>
    <contour>
      <point x="383" y="591" type="line"/>
      <point x="275" y="674" type="line"/>
      <point x="205" y="674" type="line"/>
      <point x="97" y="591" type="line"/>
      <point x="130" y="569" type="line"/>
      <point x="265" y="637" type="line"/>
      <point x="215" y="637" type="line"/>
      <point x="350" y="569" type="line"/>
    </contour>
    <contour>
      <point x="240" y="528" type="move" name="_top"/>
    </contour>
  </outline>
</glyph>
<glyph name="circumflexcomb_tildecomb.case" format="1">
  <advance width="480"/>
  <outline>
    <contour>
      <point x="130" y="569" type="line"/>
      <point x="265" y="637" type="line"/>
      <point x="215" y="637" type="line"/>
      <point x="350" y="569" type="line"/>
      <point x="383" y="591" type="line"/>
      <point x="275" y="674" type="line"/>
      <point x="205" y="674" type="line"/>
      <point x="97" y="591" type="line"/>
    </contour>
    <contour>
      <point x="295" y="690" type="curve" smooth="yes"/>
      <point x="334" y="690"/>
      <point x="365" y="717"/>
      <point x="382" y="763" type="curve"/>
      <point x="353" y="780" type="line"/>
      <point x="339" y="762"/>
      <point x="326" y="752"/>
      <point x="305" y="752" type="curve" smooth="yes"/>
      <point x="271" y="752"/>
      <point x="224" y="781"/>
      <point x="184" y="781" type="curve" smooth="yes"/>
      <point x="145" y="781"/>
      <point x="114" y="754"/>
      <point x="97" y="708" type="curve"/>
      <point x="126" y="690" type="line"/>
      <point x="140" y="708"/>
      <point x="153" y="719"/>
      <point x="175" y="719" type="curve" smooth="yes"/>
      <point x="208" y="719"/>
      <point x="255" y="690"/>
    </contour>
    <contour>
      <point x="240" y="528" type="move" name="_top"/>
    </contour>
  </outline>
</glyph>
<glyph name="circumflexcomb_tildecomb" format="1">
  <advance width="480"/>
  <outline>
    <contour>
      <point x="159" y="386" type="line"/>
      <point x="265" y="478" type="line"/>
      <point x="215" y="478" type="line"/>
      <point x="321" y="386" type="line"/>
      <point x="359" y="401" type="line"/>
      <point x="275" y="508" type="line"/>
      <point x="205" y="508" type="line"/>
      <point x="121" y="401" type="line"/>
    </contour>
    <contour>
      <point x="290" y="531" type="curve" smooth="yes"/>
      <point x="325" y="531"/>
      <point x="353" y="562"/>
      <point x="368" y="613" type="curve"/>
      <point x="341" y="630" type="line"/>
      <point x="328" y="606"/>
      <point x="316" y="594"/>
      <point x="297" y="594" type="curve" smooth="yes"/>
      <point x="267" y="594"/>
      <point x="226" y="632"/>
      <point x="190" y="632" type="curve" smooth="yes"/>
      <point x="155" y="632"/>
      <point x="127" y="602"/>
      <point x="112" y="551" type="curve"/>
      <point x="139" y="534" type="line"/>
      <point x="152" y="557"/>
      <point x="164" y="569"/>
      <point x="183" y="569" type="curve" smooth="yes"/>
      <point x="212" y="569"/>
      <point x="254" y="531"/>
    </contour>
    <contour>
      <point x="240" y="349" type="move" name="_top"/>
    </contour>
  </outline>
</glyph>
<glyph name="colonsign" format="1">
  <advance width="544"/>
  <outline>
    <contour>
      <point x="332" y="-8" type="curve" smooth="yes"/>
      <point x="395" y="-8"/>
      <point x="456" y="11"/>
      <point x="496" y="33" type="curve"/>
      <point x="506" y="71"/>
      <point x="515" y="110"/>
      <point x="521" y="149" type="curve"/>
      <point x="476" y="154" type="line"/>
      <point x="462" y="124"/>
      <point x="452" y="98"/>
      <point x="438" y="71" type="curve"/>
      <point x="412" y="53"/>
      <point x="379" y="44"/>
      <point x="343" y="44" type="curve" smooth="yes"/>
      <point x="236" y="44"/>
      <point x="150" y="127"/>
      <point x="150" y="280" type="curve" smooth="yes"/>
      <point x="150" y="394"/>
      <point x="207" y="486"/>
      <point x="337" y="486" type="curve" smooth="yes"/>
      <point x="370" y="486"/>
      <point x="409" y="478"/>
      <point x="432" y="464" type="curve"/>
      <point x="443" y="435"/>
      <point x="452" y="405"/>
      <point x="460" y="376" type="curve"/>
      <point x="503" y="379" type="line"/>
      <point x="497" y="507" type="line"/>
      <point x="455" y="525"/>
      <point x="395" y="536"/>
      <point x="345" y="536" type="curve" smooth="yes"/>
      <point x="159" y="536"/>
      <point x="46" y="416"/>
      <point x="46" y="258" type="curve" smooth="yes"/>
      <point x="46" y="84"/>
      <point x="172" y="-8"/>
    </contour>
    <contour>
      <point x="159" y="-104" type="line"/>
      <point x="201" y="-104" type="line"/>
      <point x="361" y="632" type="line"/>
      <point x="319" y="632" type="line"/>
    </contour>
    <contour>
      <point x="258" y="-104" type="line"/>
      <point x="300" y="-104" type="line"/>
      <point x="460" y="632" type="line"/>
      <point x="418" y="632" type="line"/>
    </contour>
  </outline>
</glyph>
<glyph name="commaturnedabovecomb.case" format="1">
  <advance width="480"/>
  <outline>
    <contour>
      <point x="297" y="747" type="line"/>
      <point x="228" y="729"/>
      <point x="190" y="679"/>
      <point x="190" y="633" type="curve" smooth="yes"/>
      <point x="190" y="592"/>
      <point x="215" y="573"/>
      <point x="245" y="573" type="curve" smooth="yes"/>
      <point x="271" y="573"/>
      <point x="290" y="591"/>
      <point x="290" y="613" type="curve" smooth="yes"/>
      <point x="290" y="657"/>
      <point x="247" y="650"/>
      <point x="247" y="676" type="curve" smooth="yes"/>
      <point x="247" y="692"/>
      <point x="265" y="710"/>
      <point x="307" y="721" type="curve"/>
    </contour>
    <contour>
      <point x="240" y="528" type="move" name="_top"/>
    </contour>
    <contour>
      <point x="240" y="678" type="move" name="top"/>
    </contour>
  </outline>
</glyph>
<glyph name="commaturnedabovecomb" format="1">
  <advance width="480"/>
  <outline>
    <contour>
      <point x="297" y="567" type="line"/>
      <point x="228" y="549"/>
      <point x="190" y="499"/>
      <point x="190" y="453" type="curve" smooth="yes"/>
      <point x="190" y="412"/>
      <point x="215" y="393"/>
      <point x="245" y="393" type="curve" smooth="yes"/>
      <point x="271" y="393"/>
      <point x="290" y="411"/>
      <point x="290" y="433" type="curve" smooth="yes"/>
      <point x="290" y="477"/>
      <point x="247" y="470"/>
      <point x="247" y="496" type="curve" smooth="yes"/>
      <point x="247" y="512"/>
      <point x="265" y="530"/>
      <point x="307" y="541" type="curve"/>
    </contour>
    <contour>
      <point x="240" y="349" type="move" name="_top"/>
    </contour>
    <contour>
      <point x="240" y="531" type="move" name="top"/>
    </contour>
  </outline>
</glyph>
<glyph name="commaturnedmod" format="1">
  <advance width="480"/>
  <outline>
    <contour>
      <point x="297" y="585" type="line"/>
      <point x="228" y="566"/>
      <point x="190" y="517"/>
      <point x="190" y="471" type="curve" smooth="yes"/>
      <point x="190" y="430"/>
      <point x="215" y="411"/>
      <point x="245" y="411" type="curve" smooth="yes"/>
      <point x="271" y="411"/>
      <point x="290" y="429"/>
      <point x="290" y="451" type="curve" smooth="yes"/>
      <point x="290" y="495"/>
      <point x="247" y="488"/>
      <point x="247" y="514" type="curve" smooth="yes"/>
      <point x="247" y="530"/>
      <point x="265" y="548"/>
      <point x="307" y="559" type="curve"/>
    </contour>
    <contour>
      <point x="240" y="349" type="move" name="_top"/>
    </contour>
    <contour>
      <point x="240" y="531" type="move" name="top"/>
    </contour>
  </outline>
</glyph>
<glyph name="commercialMinusSign" format="1">
  <advance width="480"/>
  <outline>
    <contour>
      <point x="121" y="0" type="line"/>
      <point x="183" y="0" type="line"/>
      <point x="358" y="528" type="line"/>
      <point x="296" y="528" type="line"/>
    </contour>
    <contour>
      <point x="305" y="-7" type="curve" smooth="yes"/>
      <point x="339" y="-7"/>
      <point x="365" y="21"/>
      <point x="365" y="58" type="curve" smooth="yes"/>
      <point x="365" y="96"/>
      <point x="339" y="125"/>
      <point x="305" y="125" type="curve" smooth="yes"/>
      <point x="271" y="125"/>
      <point x="245" y="96"/>
      <point x="245" y="58" type="curve" smooth="yes"/>
      <point x="245" y="21"/>
      <point x="271" y="-7"/>
    </contour>
    <contour>
      <point x="174" y="403" type="curve" smooth="yes"/>
      <point x="208" y="403"/>
      <point x="235" y="431"/>
      <point x="235" y="468" type="curve" smooth="yes"/>
      <point x="235" y="506"/>
      <point x="208" y="535"/>
      <point x="174" y="535" type="curve" smooth="yes"/>
      <point x="140" y="535"/>
      <point x="114" y="506"/>
      <point x="114" y="468" type="curve" smooth="yes"/>
      <point x="114" y="431"/>
      <point x="140" y="403"/>
    </contour>
  </outline>
</glyph>
<glyph name="dieresisbelowcomb" format="1">
  <advance width="480"/>
  <outline>
    <contour>
      <point x="172" y="-162" type="curve" smooth="yes"/>
      <point x="200" y="-162"/>
      <point x="218" y="-139"/>
      <point x="218" y="-113" type="curve" smooth="yes"/>
      <point x="218" y="-87"/>
      <point x="200" y="-64"/>
      <point x="172" y="-64" type="curve" smooth="yes"/>
      <point x="143" y="-64"/>
      <point x="124" y="-87"/>
      <point x="124" y="-113" type="curve" smooth="yes"/>
      <point x="124" y="-139"/>
      <point x="143" y="-162"/>
    </contour>
    <contour>
      <point x="309" y="-162" type="curve" smooth="yes"/>
      <point x="337" y="-162"/>
      <point x="356" y="-139"/>
      <point x="356" y="-113" type="curve" smooth="yes"/>
      <point x="356" y="-87"/>
      <point x="337" y="-64"/>
      <point x="309" y="-64" type="curve" smooth="yes"/>
      <point x="280" y="-64"/>
      <point x="262" y="-87"/>
      <point x="262" y="-113" type="curve" smooth="yes"/>
      <point x="262" y="-139"/>
      <point x="280" y="-162"/>
    </contour>
    <contour>
      <point x="240" y="0" type="move" name="_bottom"/>
    </contour>
    <contour>
      <point x="240" y="-176" type="move" name="bottom"/>
    </contour>
  </outline>
</glyph>
<glyph name="dieresiscomb_acutecomb.case" format="1">
  <advance width="480"/>
  <outline>
    <contour>
      <point x="259" y="670" type="line"/>
      <point x="351" y="762" type="line"/>
      <point x="274" y="781" type="line"/>
      <point x="221" y="685" type="line"/>
    </contour>
    <contour>
      <point x="156" y="577" type="curve" smooth="yes"/>
      <point x="184" y="577"/>
      <point x="202" y="600"/>
      <point x="202" y="626" type="curve" smooth="yes"/>
      <point x="202" y="653"/>
      <point x="184" y="676"/>
      <point x="156" y="676" type="curve" smooth="yes"/>
      <point x="127" y="676"/>
      <point x="108" y="653"/>
      <point x="108" y="626" type="curve" smooth="yes"/>
      <point x="108" y="600"/>
      <point x="127" y="577"/>
    </contour>
    <contour>
      <point x="325" y="577" type="curve" smooth="yes"/>
      <point x="353" y="577"/>
      <point x="372" y="600"/>
      <point x="372" y="626" type="curve" smooth="yes"/>
      <point x="372" y="653"/>
      <point x="353" y="676"/>
      <point x="325" y="676" type="curve" smooth="yes"/>
      <point x="296" y="676"/>
      <point x="278" y="653"/>
      <point x="278" y="626" type="curve" smooth="yes"/>
      <point x="278" y="600"/>
      <point x="296" y="577"/>
    </contour>
    <contour>
      <point x="240" y="528" type="move" name="_top"/>
    </contour>
  </outline>
</glyph>
<glyph name="dotaccentcomb.i" format="1">
  <advance width="480"/>
  <outline>
    <contour>
      <point x="241" y="425" type="curve" smooth="yes"/>
      <point x="276" y="425"/>
      <point x="298" y="453"/>
      <point x="298" y="486" type="curve" smooth="yes"/>
      <point x="298" y="519"/>
      <point x="276" y="548"/>
      <point x="241" y="548" type="curve" smooth="yes"/>
      <point x="206" y="548"/>
      <point x="182" y="519"/>
      <point x="182" y="486" type="curve" smooth="yes"/>
      <point x="182" y="453"/>
      <point x="206" y="425"/>
    </contour>
    <contour>
      <point x="240" y="349" type="move" name="_top"/>
    </contour>
    <contour>
      <point x="240" y="531" type="move" name="top"/>
    </contour>
  </outline>
</glyph>
<glyph name="dotaccentcomb_macroncomb.case" format="1">
  <advance width="480"/>
  <outline>
    <contour>
      <point x="102" y="714" type="line"/>
      <point x="378" y="714" type="line"/>
      <point x="378" y="767" type="line"/>
      <point x="102" y="767" type="line"/>
    </contour>
    <contour>
      <point x="241" y="577" type="curve" smooth="yes"/>
      <point x="269" y="577"/>
      <point x="287" y="600"/>
      <point x="287" y="626" type="curve" smooth="yes"/>
      <point x="287" y="653"/>
      <point x="269" y="676"/>
      <point x="241" y="676" type="curve" smooth="yes"/>
      <point x="212" y="676"/>
      <point x="193" y="653"/>
      <point x="193" y="626" type="curve" smooth="yes"/>
      <point x="193" y="600"/>
      <point x="212" y="577"/>
    </contour>
    <contour>
      <point x="240" y="528" type="move" name="_top"/>
    </contour>
  </outline>
</glyph>
<glyph name="eight.tosf" format="1">
  <advance width="480"/>
  <outline>
    <contour>
      <point x="236" y="-8" type="curve" smooth="yes"/>
      <point x="349" y="-8"/>
      <point x="426" y="55"/>
      <point x="426" y="146" type="curve" smooth="yes"/>
      <point x="426" y="209"/>
      <point x="389" y="252"/>
      <point x="280" y="300" type="curve" smooth="yes"/>
      <point x="184" y="340"/>
      <point x="161" y="366"/>
      <point x="161" y="416" type="curve" smooth="yes"/>
      <point x="161" y="465"/>
      <point x="194" y="493"/>
      <point x="241" y="493" type="curve" smooth="yes"/>
      <point x="296" y="493"/>
      <point x="328" y="455"/>
      <point x="328" y="391" type="curve" smooth="yes"/>
      <point x="328" y="348"/>
      <point x="315" y="315"/>
      <point x="281" y="275" type="curve"/>
      <point x="297" y="264" type="line"/>
      <point x="366" y="288"/>
      <point x="408" y="335"/>
      <point x="408" y="398" type="curve" smooth="yes"/>
      <point x="408" y="479"/>
      <point x="344" y="536"/>
      <point x="249" y="536" type="curve" smooth="yes"/>
      <point x="150" y="536"/>
      <point x="78" y="475"/>
      <point x="78" y="391" type="curve" smooth="yes"/>
      <point x="78" y="320"/>
      <point x="117" y="274"/>
      <point x="226" y="227" type="curve" smooth="yes"/>
      <point x="319" y="189"/>
      <point x="342" y="163"/>
      <point x="342" y="116" type="curve" smooth="yes"/>
      <point x="342" y="68"/>
      <point x="306" y="39"/>
      <point x="249" y="39" type="curve" smooth="yes"/>
      <point x="182" y="39"/>
      <point x="142" y="79"/>
      <point x="142" y="137" type="curve" smooth="yes"/>
      <point x="142" y="180"/>
      <point x="163" y="216"/>
      <point x="216" y="252" type="curve"/>
      <point x="194" y="270" type="line"/>
      <point x="110" y="249"/>
      <point x="58" y="201"/>
      <point x="58" y="134" type="curve" smooth="yes"/>
      <point x="58" y="51"/>
      <point x="129" y="-8"/>
    </contour>
  </outline>
</glyph>
<glyph name="f_f" format="1">
  <advance width="484"/>
  <outline>
    <contour>
      <point x="217" y="-3" type="curve"/>
      <point x="218" y="34" type="line"/>
      <point x="198" y="37"/>
      <point x="168" y="43"/>
      <point x="157" y="48" type="curve"/>
      <point x="155" y="56"/>
      <point x="153" y="90"/>
      <point x="152" y="180" type="curve" smooth="yes"/>
      <point x="150" y="300" type="line"/>
      <point x="150" y="348" type="line"/>
      <point x="150" y="377" type="line" smooth="yes"/>
      <point x="150" y="452"/>
      <point x="188" y="493"/>
      <point x="247" y="493" type="curve" smooth="yes"/>
      <point x="282" y="493"/>
      <point x="321" y="477"/>
      <point x="333" y="418" type="curve"/>
      <point x="360" y="483" type="line"/>
      <point x="338" y="517"/>
      <point x="293" y="534"/>
      <point x="250" y="534" type="curve" smooth="yes"/>
      <point x="144" y="534"/>
      <point x="76" y="460"/>
      <point x="71" y="350" type="curve"/>
      <point x="71" y="300" type="line"/>
      <point x="73" y="162" type="line"/>
      <point x="73" y="87"/>
      <point x="71" y="54"/>
      <point x="70" y="48" type="curve"/>
      <point x="63" y="43"/>
      <point x="34" y="37"/>
      <point x="19" y="35" type="curve"/>
      <point x="21" y="-2" type="line"/>
      <point x="47" y="0"/>
      <point x="86" y="2"/>
      <point x="119" y="2" type="curve" smooth="yes"/>
      <point x="150" y="2"/>
      <point x="183" y="0"/>
    </contour>
    <contour>
      <point x="13" y="300" type="line"/>
      <point x="472" y="300" type="line"/>
      <point x="472" y="348" type="line"/>
      <point x="127" y="348" type="line"/>
      <point x="71" y="350" type="line"/>
      <point x="51" y="343"/>
      <point x="33" y="337"/>
      <point x="13" y="334" type="curve"/>
    </contour>
    <contour>
      <point x="458" y="-3" type="curve"/>
      <point x="460" y="34" type="line"/>
      <point x="438" y="37"/>
      <point x="405" y="43"/>
      <point x="392" y="48" type="curve"/>
      <point x="389" y="56"/>
      <point x="388" y="90"/>
      <point x="387" y="180" type="curve" smooth="yes"/>
      <point x="385" y="300" type="line"/>
      <point x="383" y="348" type="line"/>
      <point x="383" y="411" type="line" smooth="yes"/>
      <point x="383" y="501"/>
      <point x="412" y="525"/>
      <point x="440" y="525" type="curve"/>
      <point x="414" y="530" type="line"/>
      <point x="455" y="490" type="line" smooth="yes"/>
      <point x="469" y="476"/>
      <point x="480" y="470"/>
      <point x="497" y="470" type="curve" smooth="yes"/>
      <point x="515" y="470"/>
      <point x="527" y="481"/>
      <point x="527" y="502" type="curve" smooth="yes"/>
      <point x="527" y="534"/>
      <point x="492" y="558"/>
      <point x="445" y="558" type="curve" smooth="yes"/>
      <point x="367" y="558"/>
      <point x="306" y="488"/>
      <point x="306" y="379" type="curve" smooth="yes"/>
      <point x="306" y="300" type="line"/>
      <point x="308" y="162" type="line"/>
      <point x="308" y="87"/>
      <point x="306" y="54"/>
      <point x="305" y="48" type="curve"/>
      <point x="298" y="43"/>
      <point x="269" y="37"/>
      <point x="253" y="35" type="curve"/>
      <point x="256" y="-2" type="line"/>
      <point x="282" y="0"/>
      <point x="321" y="2"/>
      <point x="354" y="2" type="curve" smooth="yes"/>
      <point x="385" y="2"/>
      <point x="421" y="0"/>
    </contour>
  </outline>
</glyph>
<glyph name="f_f_i" format="1">
  <advance width="690"/>
  <outline>
    <contour>
      <point x="485" y="-2" type="line"/>
      <point x="513" y="0"/>
      <point x="549" y="2"/>
      <point x="578" y="2" type="curve" smooth="yes"/>
      <point x="606" y="2"/>
      <point x="644" y="0"/>
      <point x="674" y="-2" type="curve"/>
      <point x="676" y="34" type="line"/>
      <point x="658" y="36"/>
      <point x="628" y="42"/>
      <point x="620" y="48" type="curve"/>
      <point x="619" y="54"/>
      <point x="616" y="82"/>
      <point x="616" y="131" type="curve" smooth="yes"/>
      <point x="616" y="233" type="line" smooth="yes"/>
      <point x="616" y="281"/>
      <point x="617" y="313"/>
      <point x="619" y="351" type="curve"/>
      <point x="597" y="349"/>
      <point x="574" y="348"/>
      <point x="552" y="348" type="curve" smooth="yes"/>
      <point x="127" y="348" type="line"/>
      <point x="71" y="350" type="line"/>
      <point x="51" y="343"/>
      <point x="33" y="337"/>
      <point x="13" y="334" type="curve"/>
      <point x="13" y="300" type="line"/>
      <point x="531" y="300" type="line"/>
      <point x="534" y="275"/>
      <point x="538" y="251"/>
      <point x="537" y="211" type="curve" smooth="yes"/>
      <point x="536" y="130" type="line" smooth="yes"/>
      <point x="536" y="82"/>
      <point x="534" y="53"/>
      <point x="532" y="48" type="curve"/>
      <point x="525" y="42"/>
      <point x="500" y="36"/>
      <point x="482" y="34" type="curve"/>
    </contour>
    <contour>
      <point x="208" y="-3" type="curve"/>
      <point x="209" y="34" type="line"/>
      <point x="192" y="37"/>
      <point x="167" y="43"/>
      <point x="157" y="48" type="curve"/>
      <point x="155" y="56"/>
      <point x="153" y="90"/>
      <point x="152" y="180" type="curve" smooth="yes"/>
      <point x="150" y="300" type="line"/>
      <point x="150" y="348" type="line"/>
      <point x="150" y="377" type="line" smooth="yes"/>
      <point x="150" y="452"/>
      <point x="188" y="493"/>
      <point x="247" y="493" type="curve" smooth="yes"/>
      <point x="282" y="493"/>
      <point x="321" y="477"/>
      <point x="333" y="418" type="curve"/>
      <point x="360" y="483" type="line"/>
      <point x="338" y="517"/>
      <point x="293" y="534"/>
      <point x="250" y="534" type="curve" smooth="yes"/>
      <point x="144" y="534"/>
      <point x="76" y="460"/>
      <point x="71" y="350" type="curve"/>
      <point x="71" y="300" type="line"/>
      <point x="73" y="162" type="line"/>
      <point x="73" y="87"/>
      <point x="71" y="54"/>
      <point x="70" y="48" type="curve"/>
      <point x="63" y="43"/>
      <point x="34" y="37"/>
      <point x="19" y="35" type="curve"/>
      <point x="21" y="-2" type="line"/>
      <point x="47" y="0"/>
      <point x="86" y="2"/>
      <point x="119" y="2" type="curve" smooth="yes"/>
      <point x="150" y="2"/>
      <point x="179" y="0"/>
    </contour>
    <contour>
      <point x="441" y="-3" type="curve"/>
      <point x="442" y="34" type="line"/>
      <point x="426" y="37"/>
      <point x="401" y="43"/>
      <point x="392" y="48" type="curve"/>
      <point x="389" y="56"/>
      <point x="388" y="90"/>
      <point x="387" y="180" type="curve" smooth="yes"/>
      <point x="385" y="300" type="line"/>
      <point x="385" y="348" type="line"/>
      <point x="385" y="387" type="line" smooth="yes"/>
      <point x="385" y="482"/>
      <point x="447" y="527"/>
      <point x="522" y="516" type="curve"/>
      <point x="477" y="537" type="line"/>
      <point x="541" y="470" type="line" smooth="yes"/>
      <point x="562" y="451"/>
      <point x="575" y="445"/>
      <point x="594" y="445" type="curve" smooth="yes"/>
      <point x="616" y="445"/>
      <point x="632" y="459"/>
      <point x="632" y="484" type="curve" smooth="yes"/>
      <point x="632" y="526"/>
      <point x="581" y="558"/>
      <point x="505" y="558" type="curve" smooth="yes"/>
      <point x="388" y="558"/>
      <point x="306" y="481"/>
      <point x="306" y="370" type="curve" smooth="yes"/>
      <point x="306" y="300" type="line"/>
      <point x="308" y="162" type="line"/>
      <point x="308" y="87"/>
      <point x="306" y="54"/>
      <point x="305" y="48" type="curve"/>
      <point x="298" y="43"/>
      <point x="269" y="37"/>
      <point x="253" y="35" type="curve"/>
      <point x="256" y="-2" type="line"/>
      <point x="282" y="0"/>
      <point x="321" y="2"/>
      <point x="354" y="2" type="curve" smooth="yes"/>
      <point x="385" y="2"/>
      <point x="413" y="0"/>
    </contour>
  </outline>
</glyph>
<glyph name="f_i" format="1">
  <advance width="455"/>
  <outline>
    <contour>
      <point x="206" y="-3" type="curve"/>
      <point x="207" y="34" type="line"/>
      <point x="191" y="37"/>
      <point x="166" y="43"/>
      <point x="157" y="48" type="curve"/>
      <point x="155" y="56"/>
      <point x="153" y="90"/>
      <point x="152" y="180" type="curve" smooth="yes"/>
      <point x="150" y="300" type="line"/>
      <point x="150" y="348" type="line"/>
      <point x="150" y="387" type="line" smooth="yes"/>
      <point x="150" y="482"/>
      <point x="212" y="527"/>
      <point x="287" y="516" type="curve"/>
      <point x="242" y="537" type="line"/>
      <point x="306" y="470" type="line" smooth="yes"/>
      <point x="327" y="451"/>
      <point x="340" y="445"/>
      <point x="359" y="445" type="curve" smooth="yes"/>
      <point x="381" y="445"/>
      <point x="397" y="459"/>
      <point x="397" y="484" type="curve" smooth="yes"/>
      <point x="397" y="526"/>
      <point x="346" y="558"/>
      <point x="270" y="558" type="curve" smooth="yes"/>
      <point x="153" y="558"/>
      <point x="71" y="481"/>
      <point x="71" y="370" type="curve" smooth="yes"/>
      <point x="71" y="300" type="line"/>
      <point x="73" y="162" type="line"/>
      <point x="73" y="87"/>
      <point x="71" y="54"/>
      <point x="70" y="48" type="curve"/>
      <point x="63" y="43"/>
      <point x="34" y="37"/>
      <point x="19" y="35" type="curve"/>
      <point x="21" y="-2" type="line"/>
      <point x="47" y="0"/>
      <point x="86" y="2"/>
      <point x="119" y="2" type="curve" smooth="yes"/>
      <point x="150" y="2"/>
      <point x="178" y="0"/>
    </contour>
    <contour>
      <point x="250" y="-2" type="line"/>
      <point x="278" y="0"/>
      <point x="314" y="2"/>
      <point x="343" y="2" type="curve" smooth="yes"/>
      <point x="371" y="2"/>
      <point x="409" y="0"/>
      <point x="439" y="-2" type="curve"/>
      <point x="441" y="34" type="line"/>
      <point x="423" y="36"/>
      <point x="393" y="42"/>
      <point x="385" y="48" type="curve"/>
      <point x="384" y="54"/>
      <point x="381" y="82"/>
      <point x="381" y="131" type="curve" smooth="yes"/>
      <point x="381" y="233" type="line" smooth="yes"/>
      <point x="381" y="281"/>
      <point x="382" y="313"/>
      <point x="384" y="351" type="curve"/>
      <point x="362" y="349"/>
      <point x="339" y="348"/>
      <point x="317" y="348" type="curve" smooth="yes"/>
      <point x="127" y="348" type="line"/>
      <point x="71" y="350" type="line"/>
      <point x="49" y="341"/>
      <point x="35" y="338"/>
      <point x="13" y="334" type="curve"/>
      <point x="13" y="300" type="line"/>
      <point x="296" y="300" type="line"/>
      <point x="299" y="275"/>
      <point x="303" y="251"/>
      <point x="302" y="211" type="curve" smooth="yes"/>
      <point x="301" y="130" type="line" smooth="yes"/>
      <point x="301" y="82"/>
      <point x="299" y="53"/>
      <point x="297" y="48" type="curve"/>
      <point x="290" y="42"/>
      <point x="265" y="36"/>
      <point x="247" y="34" type="curve"/>
    </contour>
  </outline>
</glyph>
<glyph name="five.osf" format="1">
  <advance width="363"/>
  <outline>
    <contour>
      <point x="127" y="-182" type="curve" smooth="yes"/>
      <point x="239" y="-182"/>
      <point x="330" y="-106"/>
      <point x="330" y="-17" type="curve" smooth="yes"/>
      <point x="330" y="62"/>
      <point x="273" y="116"/>
      <point x="166" y="139" type="curve" smooth="yes"/>
      <point x="137" y="146"/>
      <point x="108" y="150"/>
      <point x="78" y="154" type="curve"/>
      <point x="101" y="119" type="line"/>
      <point x="134" y="268" type="line"/>
      <point x="303" y="268" type="line"/>
      <point x="303" y="349" type="line"/>
      <point x="97" y="349" type="line"/>
      <point x="49" y="76" type="line"/>
      <point x="79" y="71"/>
      <point x="106" y="67"/>
      <point x="133" y="61" type="curve" smooth="yes"/>
      <point x="211" y="44"/>
      <point x="243" y="15"/>
      <point x="243" y="-40" type="curve" smooth="yes"/>
      <point x="243" y="-103"/>
      <point x="183" y="-148"/>
      <point x="107" y="-134" type="curve"/>
      <point x="144" y="-149" type="line"/>
      <point x="92" y="-102" type="line" smooth="yes"/>
      <point x="72" y="-84"/>
      <point x="60" y="-80"/>
      <point x="44" y="-80" type="curve" smooth="yes"/>
      <point x="24" y="-80"/>
      <point x="9" y="-95"/>
      <point x="9" y="-117" type="curve" smooth="yes"/>
      <point x="9" y="-154"/>
      <point x="59" y="-182"/>
    </contour>
  </outline>
</glyph>
<glyph name="fl" format="1">
  <advance width="461"/>
  <outline>
    <contour>
      <point x="206" y="-3" type="curve"/>
      <point x="207" y="34" type="line"/>
      <point x="191" y="37"/>
      <point x="166" y="43"/>
      <point x="157" y="48" type="curve"/>
      <point x="155" y="56"/>
      <point x="153" y="90"/>
      <point x="152" y="180" type="curve" smooth="yes"/>
      <point x="150" y="300" type="line"/>
      <point x="148" y="348" type="line"/>
      <point x="148" y="382" type="line" smooth="yes"/>
      <point x="148" y="471"/>
      <point x="195" y="515"/>
      <point x="253" y="515" type="curve" smooth="yes"/>
      <point x="281" y="515"/>
      <point x="307" y="498"/>
      <point x="329" y="472" type="curve"/>
      <point x="372" y="522" type="line"/>
      <point x="341" y="545"/>
      <point x="304" y="558"/>
      <point x="259" y="558" type="curve" smooth="yes"/>
      <point x="152" y="558"/>
      <point x="71" y="481"/>
      <point x="71" y="370" type="curve" smooth="yes"/>
      <point x="71" y="300" type="line"/>
      <point x="73" y="162" type="line"/>
      <point x="73" y="87"/>
      <point x="71" y="54"/>
      <point x="70" y="48" type="curve"/>
      <point x="63" y="43"/>
      <point x="34" y="37"/>
      <point x="19" y="35" type="curve"/>
      <point x="21" y="-2" type="line"/>
      <point x="47" y="0"/>
      <point x="86" y="2"/>
      <point x="119" y="2" type="curve" smooth="yes"/>
      <point x="150" y="2"/>
      <point x="178" y="0"/>
    </contour>
    <contour>
      <point x="13" y="300" type="line"/>
      <point x="237" y="300" type="line"/>
      <point x="237" y="348" type="line"/>
      <point x="148" y="348" type="line"/>
      <point x="71" y="350" type="line"/>
      <point x="51" y="343"/>
      <point x="33" y="337"/>
      <point x="13" y="334" type="curve"/>
    </contour>
    <contour>
      <point x="251" y="-2" type="line"/>
      <point x="281" y="0"/>
      <point x="318" y="2"/>
      <point x="347" y="2" type="curve" smooth="yes"/>
      <point x="376" y="2"/>
      <point x="414" y="0"/>
      <point x="444" y="-2" type="curve"/>
      <point x="446" y="34" type="line"/>
      <point x="428" y="36"/>
      <point x="398" y="42"/>
      <point x="390" y="48" type="curve"/>
      <point x="388" y="54"/>
      <point x="385" y="87"/>
      <point x="385" y="187" type="curve"/>
      <point x="386" y="308" type="line"/>
      <point x="386" y="424"/>
      <point x="387" y="478"/>
      <point x="390" y="544" type="curve"/>
      <point x="372" y="557" type="line"/>
      <point x="350" y="546"/>
      <point x="326" y="535"/>
      <point x="301" y="524" type="curve"/>
      <point x="304" y="481"/>
      <point x="306" y="386"/>
      <point x="306" y="289" type="curve" smooth="yes"/>
      <point x="306" y="188" type="line" smooth="yes"/>
      <point x="306" y="95"/>
      <point x="303" y="53"/>
      <point x="301" y="48" type="curve"/>
      <point x="294" y="42"/>
      <point x="268" y="36"/>
      <point x="249" y="34" type="curve"/>
    </contour>
  </outline>
</glyph>
<glyph name="four.tf" format="1">
  <advance width="480"/>
  <outline>
    <contour>
      <point x="353" y="133" type="curve"/>
      <point x="352" y="392" type="line"/>
      <point x="352" y="440"/>
      <point x="354" y="488"/>
      <point x="355" y="531" type="curve"/>
      <point x="311" y="531" type="line"/>
      <point x="29" y="167" type="line"/>
      <point x="37" y="133" type="line"/>
      <point x="433" y="133" type="line"/>
      <point x="433" y="197" type="line"/>
      <point x="150" y="197" type="line" smooth="yes"/>
      <point x="130" y="197"/>
      <point x="109" y="198"/>
      <point x="89" y="200" type="curve"/>
      <point x="100" y="178" type="line"/>
      <point x="289" y="419" type="line"/>
      <point x="269" y="423" type="line"/>
      <point x="269" y="133" type="line"/>
      <point x="269" y="80"/>
      <point x="267" y="60"/>
      <point x="267" y="51" type="curve"/>
      <point x="256" y="46"/>
      <point x="223" y="40"/>
      <point x="195" y="38" type="curve"/>
      <point x="197" y="-3" type="line"/>
      <point x="233" y="-1"/>
      <point x="278" y="2"/>
      <point x="311" y="2" type="curve" smooth="yes"/>
      <point x="344" y="2"/>
      <point x="382" y="-1"/>
      <point x="410" y="-3" type="curve"/>
      <point x="411" y="38" type="line"/>
      <point x="390" y="40"/>
      <point x="364" y="46"/>
      <point x="356" y="51" type="curve"/>
      <point x="355" y="60"/>
      <point x="353" y="80"/>
    </contour>
  </outline>
</glyph>
<glyph name="hookabovecomb.case" format="1">
  <advance width="480"/>
  <outline>
    <contour>
      <point x="242" y="715" type="curve" smooth="yes"/>
      <point x="194" y="715"/>
      <point x="163" y="693"/>
      <point x="163" y="670" type="curve" smooth="yes"/>
      <point x="163" y="656"/>
      <point x="172" y="648"/>
      <point x="186" y="648" type="curve" smooth="yes"/>
      <point x="199" y="648"/>
      <point x="205" y="652"/>
      <point x="216" y="663" type="curve" smooth="yes"/>
      <point x="246" y="695" type="line"/>
      <point x="215" y="684" type="line"/>
      <point x="242" y="691"/>
      <point x="261" y="688"/>
      <point x="261" y="666" type="curve" smooth="yes"/>
      <point x="261" y="645"/>
      <point x="225" y="627"/>
      <point x="225" y="586" type="curve" smooth="yes"/>
      <point x="225" y="573" type="line"/>
      <point x="255" y="573" type="line"/>
      <point x="255" y="612"/>
      <point x="322" y="612"/>
      <point x="322" y="662" type="curve" smooth="yes"/>
      <point x="322" y="695"/>
      <point x="290" y="715"/>
    </contour>
    <contour>
      <point x="240" y="528" type="move" name="_top"/>
    </contour>
    <contour>
      <point x="240" y="696" type="move" name="top"/>
    </contour>
  </outline>
</glyph>
<glyph name="jdotless.alt" format="1">
  <advance width="222"/>
  <outline>
    <contour>
      <point x="15" y="-182" type="curve" smooth="yes"/>
      <point x="93" y="-182"/>
      <point x="153" y="-112"/>
      <point x="153" y="-3" type="curve"/>
      <point x="153" y="227" type="line"/>
      <point x="153" y="281"/>
      <point x="154" y="311"/>
      <point x="157" y="341" type="curve"/>
      <point x="141" y="354" type="line"/>
      <point x="103" y="341"/>
      <point x="60" y="329"/>
      <point x="15" y="321" type="curve"/>
      <point x="15" y="288" type="line"/>
      <point x="34" y="285"/>
      <point x="54" y="282"/>
      <point x="67" y="276" type="curve"/>
      <point x="70" y="256"/>
      <point x="74" y="232"/>
      <point x="74" y="193" type="curve" smooth="yes"/>
      <point x="73" y="-34" type="line"/>
      <point x="73" y="-125"/>
      <point x="48" y="-149"/>
      <point x="19" y="-149" type="curve"/>
      <point x="45" y="-154" type="line"/>
      <point x="5" y="-114" type="line" smooth="yes"/>
      <point x="-9" y="-100"/>
      <point x="-21" y="-94"/>
      <point x="-37" y="-94" type="curve" smooth="yes"/>
      <point x="-55" y="-94"/>
      <point x="-67" y="-105"/>
      <point x="-67" y="-126" type="curve" smooth="yes"/>
      <point x="-67" y="-158"/>
      <point x="-33" y="-182"/>
    </contour>
    <contour>
      <point x="111" y="-176" type="move" name="bottom"/>
    </contour>
    <contour>
      <point x="113" y="349" type="move" name="top"/>
    </contour>
  </outline>
</glyph>
<glyph name="leftanglebracket-math" format="1">
  <advance width="480"/>
  <outline>
    <contour>
      <point x="149" y="219" type="line"/>
      <point x="269" y="-144" type="line"/>
      <point x="331" y="-144" type="line"/>
      <point x="211" y="219" type="line"/>
      <point x="331" y="582" type="line"/>
      <point x="269" y="582" type="line"/>
    </contour>
  </outline>
</glyph>
<glyph name="literSign" format="1">
  <advance width="480"/>
  <outline>
    <contour>
      <point x="257" y="-13" type="curve" smooth="yes"/>
      <point x="302" y="-13"/>
      <point x="340" y="6"/>
      <point x="372" y="40" type="curve"/>
      <point x="344" y="98" type="line"/>
      <point x="321" y="79"/>
      <point x="303" y="69"/>
      <point x="282" y="69" type="curve" smooth="yes"/>
      <point x="254" y="69"/>
      <point x="236" y="88"/>
      <point x="236" y="129" type="curve" smooth="yes"/>
      <point x="236" y="233" type="line"/>
      <point x="242" y="240"/>
      <point x="252" y="253"/>
      <point x="260" y="261" type="curve" smooth="yes"/>
      <point x="316" y="326"/>
      <point x="357" y="389"/>
      <point x="357" y="469" type="curve" smooth="yes"/>
      <point x="357" y="528"/>
      <point x="324" y="568"/>
      <point x="263" y="568" type="curve" smooth="yes"/>
      <point x="192" y="568"/>
      <point x="147" y="511"/>
      <point x="147" y="423" type="curve" smooth="yes"/>
      <point x="147" y="229" type="line"/>
      <point x="70" y="152" type="line"/>
      <point x="106" y="114" type="line"/>
      <point x="147" y="154" type="line"/>
      <point x="147" y="110" type="line" smooth="yes"/>
      <point x="147" y="46"/>
      <point x="177" y="-13"/>
    </contour>
    <contour>
      <point x="236" y="316" type="curve"/>
      <point x="236" y="434" type="line" smooth="yes"/>
      <point x="236" y="475"/>
      <point x="250" y="491"/>
      <point x="271" y="491" type="curve" smooth="yes"/>
      <point x="290" y="491"/>
      <point x="298" y="473"/>
      <point x="298" y="454" type="curve" smooth="yes"/>
      <point x="298" y="417"/>
      <point x="276" y="369"/>
      <point x="247" y="330" type="curve" smooth="yes"/>
      <point x="244" y="325"/>
      <point x="241" y="321"/>
    </contour>
  </outline>
</glyph>
<glyph name="macroncomb_acutecomb.case" format="1">
  <advance width="480"/>
  <outline>
    <contour>
      <point x="256" y="673" type="line"/>
      <point x="348" y="762" type="line"/>
      <point x="270" y="781" type="line"/>
      <point x="218" y="687" type="line"/>
    </contour>
    <contour>
      <point x="102" y="591" type="line"/>
      <point x="378" y="591" type="line"/>
      <point x="378" y="645" type="line"/>
      <point x="102" y="645" type="line"/>
    </contour>
    <contour>
      <point x="240" y="528" type="move" name="_top"/>
    </contour>
  </outline>
</glyph>
<glyph name="manat" format="1">
  <advance width="607"/>
  <outline>
    <contour>
      <point x="576" y="-1" type="curve"/>
      <point x="578" y="40" type="line"/>
      <point x="556" y="40"/>
      <point x="529" y="47"/>
      <point x="522" y="52" type="curve"/>
      <point x="519" y="58"/>
      <point x="516" y="95"/>
      <point x="516" y="186" type="curve" smooth="yes"/>
      <point x="516" y="312" type="line" smooth="yes"/>
      <point x="516" y="454"/>
      <point x="428" y="537"/>
      <point x="303" y="537" type="curve" smooth="yes"/>
      <point x="188" y="537"/>
      <point x="90" y="462"/>
      <point x="90" y="303" type="curve" smooth="yes"/>
      <point x="90" y="202" type="line" smooth="yes"/>
      <point x="90" y="106"/>
      <point x="87" y="58"/>
      <point x="83" y="52" type="curve"/>
      <point x="77" y="47"/>
      <point x="43" y="40"/>
      <point x="27" y="40" type="curve"/>
      <point x="29" y="-1" type="line"/>
      <point x="58" y="0"/>
      <point x="95" y="1"/>
      <point x="121" y="1" type="curve" smooth="yes"/>
      <point x="148" y="1"/>
      <point x="180" y="0"/>
      <point x="209" y="-1" type="curve"/>
      <point x="211" y="40" type="line"/>
      <point x="188" y="40"/>
      <point x="161" y="47"/>
      <point x="154" y="52" type="curve"/>
      <point x="151" y="58"/>
      <point x="148" y="106"/>
      <point x="148" y="202" type="curve" smooth="yes"/>
      <point x="148" y="296" type="line" smooth="yes"/>
      <point x="148" y="419"/>
      <point x="212" y="468"/>
      <point x="290" y="468" type="curve" smooth="yes"/>
      <point x="373" y="468"/>
      <point x="430" y="415"/>
      <point x="430" y="300" type="curve" smooth="yes"/>
      <point x="430" y="186" type="line" smooth="yes"/>
      <point x="430" y="95"/>
      <point x="427" y="64"/>
      <point x="423" y="52" type="curve"/>
      <point x="417" y="47"/>
      <point x="390" y="40"/>
      <point x="367" y="40" type="curve"/>
      <point x="369" y="-1" type="line"/>
      <point x="398" y="0"/>
      <point x="439" y="2"/>
      <point x="473" y="2" type="curve" smooth="yes"/>
      <point x="506" y="2"/>
      <point x="548" y="0"/>
    </contour>
    <contour>
      <point x="266" y="160" type="line"/>
      <point x="311" y="160" type="line"/>
      <point x="311" y="632" type="line"/>
      <point x="266" y="632" type="line"/>
    </contour>
  </outline>
</glyph>
<glyph name="micro" format="1">
  <advance width="456"/>
  <outline>
    <contour>
      <point x="385" y="67" type="curve"/>
      <point x="382" y="85"/>
      <point x="379" y="120"/>
      <point x="379" y="162" type="curve" smooth="yes"/>
      <point x="379" y="224" type="line" smooth="yes"/>
      <point x="379" y="275"/>
      <point x="380" y="311"/>
      <point x="381" y="341" type="curve"/>
      <point x="365" y="354" type="line"/>
      <point x="329" y="341"/>
      <point x="290" y="329"/>
      <point x="244" y="321" type="curve"/>
      <point x="244" y="288" type="line"/>
      <point x="265" y="285"/>
      <point x="282" y="281"/>
      <point x="297" y="275" type="curve"/>
      <point x="299" y="256"/>
      <point x="302" y="229"/>
      <point x="302" y="188" type="curve" smooth="yes"/>
      <point x="302" y="103" type="line"/>
      <point x="282" y="73"/>
      <point x="252" y="61"/>
      <point x="228" y="61" type="curve" smooth="yes"/>
      <point x="182" y="61"/>
      <point x="152" y="97"/>
      <point x="152" y="156" type="curve" smooth="yes"/>
      <point x="153" y="219" type="line" smooth="yes"/>
      <point x="153" y="267"/>
      <point x="154" y="311"/>
      <point x="157" y="341" type="curve"/>
      <point x="141" y="354" type="line"/>
      <point x="101" y="341"/>
      <point x="61" y="329"/>
      <point x="17" y="321" type="curve"/>
      <point x="17" y="288" type="line"/>
      <point x="35" y="285"/>
      <point x="56" y="282"/>
      <point x="69" y="276" type="curve"/>
      <point x="71" y="256"/>
      <point x="73" y="229"/>
      <point x="73" y="197" type="curve"/>
      <point x="72" y="71"/>
      <point x="62" y="-24"/>
      <point x="62" y="-111" type="curve" smooth="yes"/>
      <point x="62" y="-159"/>
      <point x="84" y="-183"/>
      <point x="113" y="-183" type="curve" smooth="yes"/>
      <point x="143" y="-183"/>
      <point x="163" y="-157"/>
      <point x="163" y="-114" type="curve" smooth="yes"/>
      <point x="163" y="-71"/>
      <point x="148" y="-24"/>
      <point x="135" y="45" type="curve"/>
      <point x="128" y="38" type="line"/>
      <point x="147" y="10"/>
      <point x="176" y="-7"/>
      <point x="206" y="-7" type="curve" smooth="yes"/>
      <point x="240" y="-7"/>
      <point x="270" y="9"/>
      <point x="302" y="56" type="curve"/>
      <point x="304" y="55" type="line"/>
      <point x="303" y="2" type="line"/>
      <point x="319" y="-10" type="line"/>
      <point x="353" y="3"/>
      <point x="393" y="15"/>
      <point x="439" y="23" type="curve"/>
      <point x="439" y="55" type="line"/>
      <point x="423" y="58"/>
      <point x="395" y="62"/>
    </contour>
  </outline>
</glyph>
<glyph name="naira" format="1">
  <advance width="608"/>
  <outline>
    <contour>
      <point x="455" y="139" type="line"/>
      <point x="475" y="139" type="line"/>
      <point x="170" y="529" type="line"/>
      <point x="154" y="528"/>
      <point x="129" y="527"/>
      <point x="109" y="527" type="curve" smooth="yes"/>
      <point x="89" y="527"/>
      <point x="69" y="527"/>
      <point x="41" y="529" type="curve"/>
      <point x="39" y="488" type="line"/>
      <point x="61" y="488"/>
      <point x="88" y="482"/>
      <point x="95" y="476" type="curve"/>
      <point x="98" y="468"/>
      <point x="101" y="433"/>
      <point x="101" y="354" type="curve" smooth="yes"/>
      <point x="101" y="211" type="line" smooth="yes"/>
      <point x="101" y="100"/>
      <point x="98" y="57"/>
      <point x="95" y="51" type="curve"/>
      <point x="88" y="46"/>
      <point x="59" y="40"/>
      <point x="35" y="38" type="curve"/>
      <point x="37" y="-3" type="line"/>
      <point x="67" y="-1"/>
      <point x="99" y="2"/>
      <point x="124" y="2" type="curve" smooth="yes"/>
      <point x="150" y="2"/>
      <point x="189" y="-1"/>
      <point x="219" y="-3" type="curve"/>
      <point x="221" y="38" type="line"/>
      <point x="198" y="40"/>
      <point x="169" y="46"/>
      <point x="162" y="51" type="curve"/>
      <point x="159" y="57"/>
      <point x="155" y="100"/>
      <point x="155" y="211" type="curve" smooth="yes"/>
      <point x="156" y="434" type="line"/>
      <point x="130" y="434" type="line"/>
      <point x="466" y="-4" type="line"/>
      <point x="508" y="-4" type="line"/>
      <point x="508" y="38"/>
      <point x="507" y="78"/>
      <point x="507" y="121" type="curve" smooth="yes"/>
      <point x="507" y="322" type="line" smooth="yes"/>
      <point x="507" y="428"/>
      <point x="510" y="471"/>
      <point x="514" y="477" type="curve"/>
      <point x="520" y="482"/>
      <point x="549" y="488"/>
      <point x="573" y="489" type="curve"/>
      <point x="571" y="530" type="line"/>
      <point x="541" y="528"/>
      <point x="511" y="527"/>
      <point x="484" y="527" type="curve" smooth="yes"/>
      <point x="459" y="527"/>
      <point x="421" y="528"/>
      <point x="391" y="530" type="curve"/>
      <point x="389" y="489" type="line"/>
      <point x="413" y="488"/>
      <point x="442" y="482"/>
      <point x="449" y="477" type="curve"/>
      <point x="452" y="471"/>
      <point x="455" y="428"/>
      <point x="455" y="322" type="curve" smooth="yes"/>
    </contour>
    <contour>
      <point x="22" y="252" type="line"/>
      <point x="586" y="252" type="line"/>
      <point x="586" y="297" type="line"/>
      <point x="22" y="297" type="line"/>
    </contour>
  </outline>
</glyph>
<glyph name="nine.tosf" format="1">
  <advance width="480"/>
  <outline>
    <contour>
      <point x="347" y="127" type="curve"/>
      <point x="344" y="169" type="line"/>
      <point x="322" y="128"/>
      <point x="284" y="102"/>
      <point x="239" y="102" type="curve" smooth="yes"/>
      <point x="176" y="102"/>
      <point x="137" y="144"/>
      <point x="137" y="210" type="curve" smooth="yes"/>
      <point x="137" y="268"/>
      <point x="173" y="313"/>
      <point x="228" y="313" type="curve" smooth="yes"/>
      <point x="293" y="313"/>
      <point x="332" y="248"/>
      <point x="332" y="158" type="curve" smooth="yes"/>
      <point x="332" y="3"/>
      <point x="252" y="-95"/>
      <point x="85" y="-144" type="curve"/>
      <point x="99" y="-190" type="line"/>
      <point x="299" y="-153"/>
      <point x="421" y="-8"/>
      <point x="421" y="153" type="curve" smooth="yes"/>
      <point x="421" y="276"/>
      <point x="349" y="358"/>
      <point x="234" y="358" type="curve" smooth="yes"/>
      <point x="130" y="358"/>
      <point x="53" y="281"/>
      <point x="53" y="183" type="curve" smooth="yes"/>
      <point x="53" y="97"/>
      <point x="115" y="33"/>
      <point x="206" y="33" type="curve" smooth="yes"/>
      <point x="263" y="33"/>
      <point x="316" y="69"/>
    </contour>
  </outline>
</glyph>
<glyph name="one.tf" format="1">
  <advance width="480"/>
  <outline>
    <contour>
      <point x="293" y="185" type="curve" smooth="yes"/>
      <point x="293" y="348" type="line" smooth="yes"/>
      <point x="293" y="415"/>
      <point x="295" y="486"/>
      <point x="298" y="538" type="curve"/>
      <point x="107" y="463" type="line"/>
      <point x="111" y="419" type="line"/>
      <point x="140" y="426"/>
      <point x="186" y="432"/>
      <point x="205" y="434" type="curve"/>
      <point x="207" y="416"/>
      <point x="209" y="377"/>
      <point x="209" y="330" type="curve" smooth="yes"/>
      <point x="209" y="185" type="line" smooth="yes"/>
      <point x="209" y="94"/>
      <point x="206" y="57"/>
      <point x="203" y="51" type="curve"/>
      <point x="192" y="46"/>
      <point x="150" y="42"/>
      <point x="115" y="39" type="curve"/>
      <point x="118" y="-3" type="line"/>
      <point x="162" y="-1"/>
      <point x="219" y="2"/>
      <point x="251" y="2" type="curve" smooth="yes"/>
      <point x="284" y="2"/>
      <point x="340" y="-1"/>
      <point x="384" y="-3" type="curve"/>
      <point x="387" y="39" type="line"/>
      <point x="353" y="42"/>
      <point x="311" y="46"/>
      <point x="300" y="51" type="curve"/>
      <point x="297" y="57"/>
      <point x="293" y="94"/>
    </contour>
  </outline>
</glyph>
<glyph name="periodcentered.loclCAT.case" format="1">
  <advance width="480"/>
  <outline>
    <contour>
      <point x="241" y="195" type="curve" smooth="yes"/>
      <point x="271" y="195"/>
      <point x="291" y="220"/>
      <point x="291" y="249" type="curve" smooth="yes"/>
      <point x="291" y="277"/>
      <point x="271" y="302"/>
      <point x="241" y="302" type="curve" smooth="yes"/>
      <point x="210" y="302"/>
      <point x="189" y="277"/>
      <point x="189" y="249" type="curve" smooth="yes"/>
      <point x="189" y="220"/>
      <point x="210" y="195"/>
    </contour>
    <contour>
      <point x="240" y="249" type="move" name="_dotacc"/>
    </contour>
  </outline>
</glyph>
<glyph name="peso" format="1">
  <advance width="508"/>
  <outline>
    <contour>
      <point x="37" y="-3" type="line"/>
      <point x="63" y="-1"/>
      <point x="113" y="1"/>
      <point x="144" y="1" type="curve" smooth="yes"/>
      <point x="175" y="1"/>
      <point x="225" y="-1"/>
      <point x="253" y="-3" type="curve"/>
      <point x="255" y="39" type="line"/>
      <point x="232" y="42"/>
      <point x="196" y="47"/>
      <point x="183" y="52" type="curve"/>
      <point x="180" y="57"/>
      <point x="177" y="94"/>
      <point x="177" y="164" type="curve" smooth="yes"/>
      <point x="177" y="330" type="line" smooth="yes"/>
      <point x="177" y="411"/>
      <point x="178" y="468"/>
      <point x="179" y="480" type="curve"/>
      <point x="191" y="484"/>
      <point x="203" y="485"/>
      <point x="224" y="485" type="curve" smooth="yes"/>
      <point x="292" y="485"/>
      <point x="337" y="434"/>
      <point x="337" y="345" type="curve" smooth="yes"/>
      <point x="337" y="266"/>
      <point x="297" y="225"/>
      <point x="237" y="225" type="curve" smooth="yes"/>
      <point x="207" y="225"/>
      <point x="187" y="230"/>
      <point x="163" y="240" type="curve"/>
      <point x="163" y="185" type="line"/>
      <point x="182" y="180"/>
      <point x="213" y="176"/>
      <point x="235" y="176" type="curve" smooth="yes"/>
      <point x="341" y="176"/>
      <point x="427" y="251"/>
      <point x="427" y="359" type="curve" smooth="yes"/>
      <point x="427" y="467"/>
      <point x="355" y="529"/>
      <point x="234" y="529" type="curve" smooth="yes"/>
      <point x="198" y="529"/>
      <point x="170" y="527"/>
      <point x="145" y="527" type="curve" smooth="yes"/>
      <point x="101" y="527"/>
      <point x="61" y="527"/>
      <point x="33" y="529" type="curve"/>
      <point x="31" y="488" type="line"/>
      <point x="53" y="487"/>
      <point x="80" y="482"/>
      <point x="87" y="476" type="curve"/>
      <point x="90" y="470"/>
      <point x="93" y="433"/>
      <point x="93" y="342" type="curve" smooth="yes"/>
      <point x="93" y="185" type="line" smooth="yes"/>
      <point x="93" y="94"/>
      <point x="90" y="57"/>
      <point x="87" y="51" type="curve"/>
      <point x="80" y="46"/>
      <point x="54" y="40"/>
      <point x="35" y="38" type="curve"/>
    </contour>
    <contour>
      <point x="14" y="278" type="line"/>
      <point x="494" y="278" type="line"/>
      <point x="494" y="324" type="line"/>
      <point x="14" y="324" type="line"/>
    </contour>
    <contour>
      <point x="14" y="385" type="line"/>
      <point x="494" y="385" type="line"/>
      <point x="494" y="430" type="line"/>
      <point x="14" y="430" type="line"/>
    </contour>
  </outline>
</glyph>
<glyph name="rightanglebracket-math" format="1">
  <advance width="480"/>
  <outline>
    <contour>
      <point x="331" y="219" type="line"/>
      <point x="211" y="582" type="line"/>
      <point x="149" y="582" type="line"/>
      <point x="269" y="219" type="line"/>
      <point x="149" y="-144" type="line"/>
      <point x="211" y="-144" type="line"/>
    </contour>
  </outline>
</glyph>
<glyph name="ringcomb_acutecomb.case" format="1">
  <advance width="480"/>
  <outline>
    <contour>
      <point x="241" y="569" type="curve" smooth="yes"/>
      <point x="288" y="569"/>
      <point x="324" y="605"/>
      <point x="324" y="651" type="curve" smooth="yes"/>
      <point x="324" y="699"/>
      <point x="289" y="734"/>
      <point x="241" y="734" type="curve" smooth="yes"/>
      <point x="193" y="734"/>
      <point x="156" y="698"/>
      <point x="156" y="651" type="curve" smooth="yes"/>
      <point x="156" y="605"/>
      <point x="193" y="569"/>
    </contour>
    <contour>
      <point x="242" y="603" type="curve" smooth="yes"/>
      <point x="214" y="603"/>
      <point x="193" y="624"/>
      <point x="193" y="652" type="curve" smooth="yes"/>
      <point x="193" y="681"/>
      <point x="214" y="702"/>
      <point x="242" y="702" type="curve" smooth="yes"/>
      <point x="269" y="702"/>
      <point x="288" y="682"/>
      <point x="288" y="652" type="curve" smooth="yes"/>
      <point x="288" y="623"/>
      <point x="269" y="603"/>
    </contour>
    <contour>
      <point x="300" y="687" type="line"/>
      <point x="384" y="769" type="line"/>
      <point x="306" y="788" type="line"/>
      <point x="262" y="702" type="line"/>
    </contour>
    <contour>
      <point x="240" y="528" type="move" name="_top"/>
    </contour>
  </outline>
</glyph>
<glyph name="ringcomb_acutecomb" format="1">
  <advance width="480"/>
  <outline>
    <contour>
      <point x="241" y="390" type="curve" smooth="yes"/>
      <point x="288" y="390"/>
      <point x="324" y="425"/>
      <point x="324" y="472" type="curve" smooth="yes"/>
      <point x="324" y="519"/>
      <point x="289" y="554"/>
      <point x="241" y="554" type="curve" smooth="yes"/>
      <point x="193" y="554"/>
      <point x="156" y="518"/>
      <point x="156" y="472" type="curve" smooth="yes"/>
      <point x="156" y="425"/>
      <point x="193" y="390"/>
    </contour>
    <contour>
      <point x="242" y="423" type="curve" smooth="yes"/>
      <point x="214" y="423"/>
      <point x="193" y="444"/>
      <point x="193" y="473" type="curve" smooth="yes"/>
      <point x="193" y="501"/>
      <point x="214" y="522"/>
      <point x="242" y="522" type="curve" smooth="yes"/>
      <point x="269" y="522"/>
      <point x="288" y="502"/>
      <point x="288" y="473" type="curve" smooth="yes"/>
      <point x="288" y="443"/>
      <point x="269" y="423"/>
    </contour>
    <contour>
      <point x="300" y="508" type="line"/>
      <point x="396" y="614" type="line"/>
      <point x="319" y="632" type="line"/>
      <point x="262" y="523" type="line"/>
    </contour>
    <contour>
      <point x="240" y="349" type="move" name="_top"/>
    </contour>
  </outline>
</glyph>
<glyph name="ringhalfleft" format="1">
  <advance width="480"/>
  <outline>
    <contour>
      <point x="240" y="522" type="curve"/>
      <point x="240" y="554" type="line"/>
      <point x="193" y="554"/>
      <point x="156" y="518"/>
      <point x="156" y="472" type="curve" smooth="yes"/>
      <point x="156" y="425"/>
      <point x="193" y="390"/>
      <point x="240" y="390" type="curve"/>
      <point x="240" y="423" type="line"/>
      <point x="214" y="423"/>
      <point x="193" y="444"/>
      <point x="193" y="473" type="curve" smooth="yes"/>
      <point x="193" y="501"/>
      <point x="214" y="522"/>
    </contour>
    <contour>
      <point x="240" y="349" type="move" name="_top"/>
    </contour>
    <contour>
      <point x="240" y="536" type="move" name="top"/>
    </contour>
  </outline>
</glyph>
<glyph name="ringhalfright" format="1">
  <advance width="480"/>
  <outline>
    <contour>
      <point x="240" y="390" type="line"/>
      <point x="287" y="390"/>
      <point x="324" y="425"/>
      <point x="324" y="472" type="curve" smooth="yes"/>
      <point x="324" y="518"/>
      <point x="287" y="554"/>
      <point x="240" y="554" type="curve"/>
      <point x="240" y="522" type="line"/>
      <point x="266" y="522"/>
      <point x="287" y="501"/>
      <point x="287" y="473" type="curve" smooth="yes"/>
      <point x="287" y="444"/>
      <point x="266" y="423"/>
      <point x="240" y="423" type="curve"/>
    </contour>
    <contour>
      <point x="240" y="349" type="move" name="_top"/>
    </contour>
    <contour>
      <point x="240" y="536" type="move" name="top"/>
    </contour>
  </outline>
</glyph>
<glyph name="rupeeIndian" format="1">
  <advance width="465"/>
  <outline>
    <contour>
      <point x="368" y="-10" type="curve" smooth="yes"/>
      <point x="381" y="-10"/>
      <point x="397" y="-8"/>
      <point x="410" y="-6" type="curve"/>
      <point x="411" y="30" type="line"/>
      <point x="363" y="38"/>
      <point x="331" y="63"/>
      <point x="270" y="131" type="curve" smooth="yes"/>
      <point x="159" y="276" type="line"/>
      <point x="86" y="258" type="line"/>
      <point x="152" y="147" type="line" smooth="yes"/>
      <point x="221" y="32"/>
      <point x="275" y="-10"/>
    </contour>
    <contour>
      <point x="164" y="511" type="curve"/>
      <point x="150" y="483" type="line"/>
      <point x="211" y="483"/>
      <point x="251" y="453"/>
      <point x="251" y="389" type="curve" smooth="yes"/>
      <point x="251" y="323"/>
      <point x="205" y="290"/>
      <point x="136" y="290" type="curve" smooth="yes"/>
      <point x="57" y="290" type="line"/>
      <point x="57" y="244" type="line"/>
      <point x="145" y="244" type="line" smooth="yes"/>
      <point x="258" y="244"/>
      <point x="340" y="305"/>
      <point x="340" y="387" type="curve" smooth="yes"/>
      <point x="340" y="470"/>
      <point x="279" y="511"/>
    </contour>
    <contour>
      <point x="57" y="376" type="line"/>
      <point x="410" y="376" type="line"/>
      <point x="410" y="421" type="line"/>
      <point x="57" y="421" type="line"/>
    </contour>
    <contour>
      <point x="57" y="483" type="line"/>
      <point x="410" y="483" type="line"/>
      <point x="410" y="528" type="line"/>
      <point x="57" y="528" type="line"/>
    </contour>
  </outline>
</glyph>
<glyph name="schwa" format="1">
  <advance width="383"/>
  <outline>
    <contour>
      <point x="184" y="356" type="curve" smooth="yes"/>
      <point x="116" y="356"/>
      <point x="63" y="322"/>
      <point x="34" y="263" type="curve"/>
      <point x="56" y="241" type="line"/>
      <point x="84" y="274"/>
      <point x="115" y="288"/>
      <point x="157" y="288" type="curve" smooth="yes"/>
      <point x="224" y="288"/>
      <point x="267" y="236"/>
      <point x="267" y="157" type="curve" smooth="yes"/>
      <point x="267" y="143" type="line" smooth="yes"/>
      <point x="267" y="76"/>
      <point x="236" y="35"/>
      <point x="187" y="35" type="curve" smooth="yes"/>
      <point x="141" y="35"/>
      <point x="114" y="67"/>
      <point x="114" y="121" type="curve" smooth="yes"/>
      <point x="114" y="145" type="line"/>
      <point x="102" y="128" type="line"/>
      <point x="280" y="128" type="line"/>
      <point x="280" y="169" type="line"/>
      <point x="36" y="169" type="line"/>
      <point x="36" y="151" type="line" smooth="yes"/>
      <point x="36" y="55"/>
      <point x="94" y="-6"/>
      <point x="185" y="-6" type="curve" smooth="yes"/>
      <point x="278" y="-7"/>
      <point x="350" y="68"/>
      <point x="350" y="181" type="curve" smooth="yes"/>
      <point x="350" y="283"/>
      <point x="282" y="356"/>
    </contour>
  </outline>
</glyph>
<glyph name="six.tosf" format="1">
  <advance width="480"/>
  <outline>
    <contour>
      <point x="133" y="223" type="curve"/>
      <point x="136" y="182" type="line"/>
      <point x="158" y="222"/>
      <point x="196" y="249"/>
      <point x="241" y="249" type="curve" smooth="yes"/>
      <point x="304" y="249"/>
      <point x="343" y="206"/>
      <point x="343" y="141" type="curve" smooth="yes"/>
      <point x="343" y="82"/>
      <point x="307" y="37"/>
      <point x="252" y="37" type="curve" smooth="yes"/>
      <point x="187" y="37"/>
      <point x="148" y="102"/>
      <point x="148" y="193" type="curve" smooth="yes"/>
      <point x="148" y="350"/>
      <point x="228" y="449"/>
      <point x="395" y="498" type="curve"/>
      <point x="381" y="544" type="line"/>
      <point x="181" y="507"/>
      <point x="59" y="361"/>
      <point x="59" y="197" type="curve" smooth="yes"/>
      <point x="59" y="75"/>
      <point x="131" y="-8"/>
      <point x="246" y="-8" type="curve" smooth="yes"/>
      <point x="350" y="-8"/>
      <point x="427" y="70"/>
      <point x="427" y="167" type="curve" smooth="yes"/>
      <point x="427" y="253"/>
      <point x="365" y="317"/>
      <point x="274" y="317" type="curve" smooth="yes"/>
      <point x="217" y="317"/>
      <point x="164" y="281"/>
    </contour>
  </outline>
</glyph>
<glyph name="slashshortcomb.case" format="1">
  <advance width="476"/>
  <outline>
    <contour>
      <point x="97" y="145" type="line"/>
      <point x="369" y="342" type="line"/>
      <point x="343" y="383" type="line"/>
      <point x="70" y="186" type="line"/>
    </contour>
    <contour>
      <point x="220" y="264" type="move" name="_center"/>
    </contour>
  </outline>
</glyph>
<glyph name="strokeshortcomb.case" format="1">
  <advance width="480"/>
  <outline>
    <contour>
      <point x="63" y="300" type="line"/>
      <point x="350" y="300" type="line"/>
      <point x="350" y="350" type="line"/>
      <point x="63" y="350" type="line"/>
    </contour>
    <contour>
      <point x="206" y="325" type="move" name="_stroke"/>
    </contour>
  </outline>
</glyph>
<glyph name="strokeshortcomb" format="1">
  <advance width="480"/>
  <outline>
    <contour>
      <point x="63" y="305" type="line"/>
      <point x="350" y="305" type="line"/>
      <point x="350" y="345" type="line"/>
      <point x="63" y="345" type="line"/>
    </contour>
    <contour>
      <point x="206" y="325" type="move" name="_stroke"/>
    </contour>
  </outline>
</glyph>
<glyph name="three.osf" format="1">
  <advance width="363"/>
  <outline>
    <contour>
      <point x="133" y="-182" type="curve" smooth="yes"/>
      <point x="248" y="-182"/>
      <point x="331" y="-106"/>
      <point x="331" y="-20" type="curve" smooth="yes"/>
      <point x="331" y="60"/>
      <point x="272" y="110"/>
      <point x="179" y="115" type="curve"/>
      <point x="169" y="98" type="line"/>
      <point x="259" y="126"/>
      <point x="303" y="174"/>
      <point x="303" y="239" type="curve" smooth="yes"/>
      <point x="303" y="305"/>
      <point x="252" y="356"/>
      <point x="169" y="356" type="curve" smooth="yes"/>
      <point x="103" y="356"/>
      <point x="51" y="322"/>
      <point x="25" y="277" type="curve"/>
      <point x="47" y="255" type="line"/>
      <point x="70" y="277"/>
      <point x="99" y="288"/>
      <point x="136" y="288" type="curve" smooth="yes"/>
      <point x="187" y="288"/>
      <point x="216" y="260"/>
      <point x="216" y="217" type="curve" smooth="yes"/>
      <point x="216" y="158"/>
      <point x="175" y="120"/>
      <point x="95" y="111" type="curve"/>
      <point x="100" y="66" type="line"/>
      <point x="115" y="68"/>
      <point x="126" y="69"/>
      <point x="143" y="69" type="curve" smooth="yes"/>
      <point x="205" y="69"/>
      <point x="244" y="31"/>
      <point x="244" y="-32" type="curve" smooth="yes"/>
      <point x="244" y="-104"/>
      <point x="186" y="-150"/>
      <point x="116" y="-139" type="curve"/>
      <point x="154" y="-150" type="line"/>
      <point x="97" y="-102" type="line" smooth="yes"/>
      <point x="76" y="-86"/>
      <point x="65" y="-80"/>
      <point x="47" y="-80" type="curve" smooth="yes"/>
      <point x="28" y="-80"/>
      <point x="11" y="-93"/>
      <point x="11" y="-116" type="curve" smooth="yes"/>
      <point x="11" y="-155"/>
      <point x="61" y="-182"/>
    </contour>
  </outline>
</glyph>
<glyph name="tildecomb.case" format="1">
  <advance width="480"/>
  <outline>
    <contour>
      <point x="376" y="676" type="line"/>
      <point x="360" y="652"/>
      <point x="344" y="639"/>
      <point x="318" y="639" type="curve" smooth="yes"/>
      <point x="279" y="639"/>
      <point x="224" y="678"/>
      <point x="177" y="678" type="curve" smooth="yes"/>
      <point x="131" y="678"/>
      <point x="93" y="646"/>
      <point x="74" y="594" type="curve"/>
      <point x="104" y="575" type="line"/>
      <point x="120" y="599"/>
      <point x="136" y="612"/>
      <point x="162" y="612" type="curve" smooth="yes"/>
      <point x="201" y="612"/>
      <point x="256" y="573"/>
      <point x="303" y="573" type="curve" smooth="yes"/>
      <point x="349" y="573"/>
      <point x="387" y="605"/>
      <point x="406" y="657" type="curve"/>
    </contour>
    <contour>
      <point x="240" y="528" type="move" name="_top"/>
    </contour>
    <contour>
      <point x="240" y="696" type="move" name="top"/>
    </contour>
  </outline>
</glyph>
<glyph name="tildecomb_dieresiscomb" format="1">
  <advance width="480"/>
  <outline>
    <contour>
      <point x="293" y="409" type="curve" smooth="yes"/>
      <point x="331" y="409"/>
      <point x="360" y="439"/>
      <point x="376" y="490" type="curve"/>
      <point x="348" y="507" type="line"/>
      <point x="334" y="483"/>
      <point x="321" y="471"/>
      <point x="301" y="471" type="curve" smooth="yes"/>
      <point x="269" y="471"/>
      <point x="225" y="509"/>
      <point x="187" y="509" type="curve" smooth="yes"/>
      <point x="149" y="509"/>
      <point x="120" y="479"/>
      <point x="104" y="428" type="curve"/>
      <point x="132" y="411" type="line"/>
      <point x="146" y="434"/>
      <point x="158" y="446"/>
      <point x="179" y="446" type="curve" smooth="yes"/>
      <point x="211" y="446"/>
      <point x="255" y="409"/>
    </contour>
    <contour>
      <point x="172" y="535" type="curve" smooth="yes"/>
      <point x="200" y="535"/>
      <point x="218" y="557"/>
      <point x="218" y="583" type="curve" smooth="yes"/>
      <point x="218" y="608"/>
      <point x="200" y="631"/>
      <point x="172" y="631" type="curve" smooth="yes"/>
      <point x="143" y="631"/>
      <point x="125" y="608"/>
      <point x="125" y="583" type="curve" smooth="yes"/>
      <point x="125" y="557"/>
      <point x="143" y="535"/>
    </contour>
    <contour>
      <point x="309" y="535" type="curve" smooth="yes"/>
      <point x="337" y="535"/>
      <point x="355" y="557"/>
      <point x="355" y="583" type="curve" smooth="yes"/>
      <point x="355" y="608"/>
      <point x="337" y="631"/>
      <point x="309" y="631" type="curve" smooth="yes"/>
      <point x="281" y="631"/>
      <point x="262" y="608"/>
      <point x="262" y="583" type="curve" smooth="yes"/>
      <point x="262" y="557"/>
      <point x="281" y="535"/>
    </contour>
    <contour>
      <point x="239" y="349" type="move" name="_top"/>
    </contour>
  </outline>
</glyph>
<glyph name="verticallinelowmod" format="1">
  <advance width="480"/>
  <outline>
    <contour>
      <point x="216" y="-176" type="line"/>
      <point x="265" y="-176" type="line"/>
      <point x="265" y="-80" type="line"/>
      <point x="216" y="-80" type="line"/>
    </contour>
    <contour>
      <point x="240" y="0" type="move" name="_bottom"/>
    </contour>
    <contour>
      <point x="240" y="-176" type="move" name="bottom"/>
    </contour>
  </outline>
</glyph>
<glyph name="zero.osf" format="1">
  <advance width="446"/>
  <outline>
    <contour>
      <point x="223" y="-6" type="curve" smooth="yes"/>
      <point x="321" y="-6"/>
      <point x="408" y="73"/>
      <point x="408" y="175" type="curve" smooth="yes"/>
      <point x="408" y="284"/>
      <point x="322" y="356"/>
      <point x="223" y="356" type="curve" smooth="yes"/>
      <point x="127" y="356"/>
      <point x="38" y="276"/>
      <point x="38" y="175" type="curve" smooth="yes"/>
      <point x="38" y="65"/>
      <point x="124" y="-6"/>
    </contour>
    <contour>
      <point x="223" y="61" type="curve" smooth="yes"/>
      <point x="165" y="61"/>
      <point x="114" y="107"/>
      <point x="114" y="175" type="curve" smooth="yes"/>
      <point x="114" y="244"/>
      <point x="165" y="290"/>
      <point x="223" y="290" type="curve" smooth="yes"/>
      <point x="283" y="290"/>
      <point x="334" y="244"/>
      <point x="334" y="175" type="curve" smooth="yes"/>
      <point x="334" y="107"/>
      <point x="283" y="61"/>
    </contour>
  </outline>
</glyph>
